<?xml version="1.0" encoding="UTF-8"?>
<svg width="100px" height="100px" viewBox="0 0 100 100" version="1.1" xmlns="http://www.w3.org/2000/svg" xmlns:xlink="http://www.w3.org/1999/xlink">
    <!-- Generator: Sketch 45 (43475) - http://www.bohemiancoding.com/sketch -->
    <title>24-7-entertainment</title>
    <desc>Created with Sketch.</desc>
    <defs></defs>
    <g id="Page-1" stroke="none" stroke-width="1" fill="none" fill-rule="evenodd">
        <g id="24-7-entertainment" fill-rule="nonzero">
            <g id="24-7" transform="translate(0.000000, 23.000000)">
                <path d="M0,49.1340485 L0,43.0121687 L13.9133632,26.8461657 C15.273781,25.2207315 15.8479833,24.0723269 15.8479833,22.34972 C15.8479833,19.5758812 14.2225491,17.6942645 11.3515376,17.6942645 C9.09889787,17.6942645 6.8020887,18.8426691 6.8020887,22.4557266 L0,22.4557266 C0,15.6536379 4.96464136,11.5812186 11.3515376,11.5812186 C17.9416132,11.5812186 22.650072,15.7154751 22.650072,22.4115572 C22.650072,26.0246147 21.236651,27.9592347 18.6748253,30.9362528 L8.26851302,43.0121687 L22.650072,43.0121687 L22.650072,49.1340485 L0,49.1340485 L0,49.1340485 Z M45.9626851,43.8513874 L45.9626851,49.1340485 L39.4256128,49.1340485 L39.4256128,43.8513874 L24.1960012,43.8513874 L24.1960012,37.4203217 L36.9609599,11.8992383 L44.3902542,11.8992383 L31.6164616,37.4203217 L39.4167789,37.4203217 L39.4167789,30.468057 L45.9538512,30.468057 L45.9538512,37.4203217 L49.3548955,37.4203217 L49.3548955,43.8513874 L45.9626851,43.8513874 L45.9626851,43.8513874 Z" id="Shape" fill="#6A747C"></path>
                <g id="Group" transform="translate(47.261266, 0.000000)" fill="#E3E4E5">
                    <path d="M5.54767754,28.7631179 C5.45050484,27.9592347 5.39750155,27.1376837 5.39750155,26.3072989 C5.39750155,25.5034157 5.45050484,24.6995325 5.53884366,23.9221509 L0.176677629,23.9221509 C0.106006577,24.7260341 0.06183717,25.5475851 0.06183717,26.3691361 C0.06183717,27.1730193 0.106006577,27.9769025 0.176677629,28.7631179 L5.54767754,28.7631179 Z" id="Shape"></path>
                    <path d="M26.3868038,0.0353355257 C13.3303271,0.0353355257 2.49998844,9.53175806 0.424026309,21.9963648 L5.84802951,21.9963648 C7.82681895,12.5087761 16.2455079,5.37099991 26.3249667,5.37099991 C37.8885174,5.37099991 47.2524318,14.7437481 47.2524318,26.298465 C47.2524318,37.8531819 37.8885174,47.234764 26.3249667,47.234764 C25.5299173,47.234764 24.7525358,47.1905946 23.9751542,47.1022558 L22.0670358,52.3407475 C23.471623,52.5704284 24.9115456,52.7029366 26.3868038,52.7029366 C40.9273727,52.7029366 52.7206044,40.9097049 52.7206044,26.3691361 C52.7206044,11.8285672 40.9362065,0.0353355257 26.3868038,0.0353355257 Z" id="Shape"></path>
                </g>
                <path d="M54.9732441,26.3072989 C54.9732441,25.5034157 55.1145862,23.9221509 55.1145862,23.9221509 L75.9713803,23.9221509 L75.9713803,28.7454502 L66.2982801,53.6304942 L60.3972473,53.6304942 L70.0615136,28.754284 C70.0615136,28.754284 55.2647622,28.7631179 55.1234201,28.754284 C55.1234201,28.7631179 54.9732441,27.1376837 54.9732441,26.3072989 Z" id="Shape" fill="#A5CD39"></path>
            </g>
        </g>
    </g>
</svg>