<?xml version="1.0" encoding="UTF-8"?>
<svg width="100px" height="100px" viewBox="0 0 100 100" version="1.1" xmlns="http://www.w3.org/2000/svg" xmlns:xlink="http://www.w3.org/1999/xlink">
    <!-- Generator: Sketch 45 (43475) - http://www.bohemiancoding.com/sketch -->
    <title>akazoo</title>
    <desc>Created with Sketch.</desc>
    <defs>
        <linearGradient x1="42.5809158%" y1="102.484799%" x2="59.9934073%" y2="10.3192789%" id="linearGradient-1">
            <stop stop-color="#603664" stop-opacity="0" offset="0%"></stop>
            <stop stop-color="#603664" offset="50.92%"></stop>
        </linearGradient>
        <linearGradient x1="43.5831299%" y1="105.238454%" x2="64.4501475%" y2="3.81454986%" id="linearGradient-2">
            <stop stop-color="#603664" stop-opacity="0" offset="20%"></stop>
            <stop stop-color="#603664" offset="100%"></stop>
        </linearGradient>
        <linearGradient x1="33.5952694%" y1="105.257976%" x2="75.8213968%" y2="10.0986093%" id="linearGradient-3">
            <stop stop-color="#52104C" offset="16.56%"></stop>
            <stop stop-color="#9C2266" offset="53.99%"></stop>
            <stop stop-color="#CD156B" offset="100%"></stop>
        </linearGradient>
        <linearGradient x1="27.2963057%" y1="99.3466771%" x2="87.9980982%" y2="4.84328253%" id="linearGradient-4">
            <stop stop-color="#CD156B" offset="50.92%"></stop>
            <stop stop-color="#FFFFFF" stop-opacity="0.64" offset="100%"></stop>
        </linearGradient>
        <linearGradient x1="0.530587%" y1="2.06470154%" x2="1.879293%" y2="-0.295377456%" id="linearGradient-5">
            <stop stop-color="#92278F" offset="8.59%"></stop>
            <stop stop-color="#EE2A7B" offset="52.76%"></stop>
        </linearGradient>
        <radialGradient cx="50.2279763%" cy="47.0696419%" fx="50.2279763%" fy="47.0696419%" r="46.0495059%" gradientTransform="translate(0.502280,0.470696),scale(0.754191,1.000000),translate(-0.502280,-0.470696)" id="radialGradient-6">
            <stop stop-color="#FFFFFF" offset="8.59%"></stop>
            <stop stop-color="#FFF3D1" offset="52.76%"></stop>
        </radialGradient>
        <linearGradient x1="65.0523636%" y1="82.3959601%" x2="-1.57282113%" y2="7.31643725%" id="linearGradient-7">
            <stop stop-color="#70586D" stop-opacity="0.84" offset="0%"></stop>
            <stop stop-color="#70586D" stop-opacity="0.84" offset="100%"></stop>
        </linearGradient>
        <linearGradient x1="59.4027221%" y1="85.0853595%" x2="13.7170106%" y2="-2.02158466%" id="linearGradient-8">
            <stop stop-color="#C7C8CA" offset="0%"></stop>
            <stop stop-color="#FAFAF8" stop-opacity="0" offset="79.75%"></stop>
        </linearGradient>
        <linearGradient x1="-4.16484517%" y1="85.0256227%" x2="85.701275%" y2="42.225003%" id="linearGradient-9">
            <stop stop-color="#231F20" offset="0%"></stop>
            <stop stop-color="#231F20" stop-opacity="0" offset="63.8%"></stop>
        </linearGradient>
    </defs>
    <g id="default---square-logos" stroke="none" stroke-width="1" fill="none" fill-rule="evenodd">
        <g id="akazoo" fill-rule="nonzero">
            <g transform="translate(15.000000, 2.000000)" id="Group">
                <g transform="translate(0.000000, 79.000000)" fill="#252B2B">
                    <path d="M9.45949806,4.8201264 C8.93433226,4.3796385 8.35624278,4.04906902 7.74232803,3.83493165 C7.12678486,3.62242269 6.45668959,3.5149469 5.74995484,3.5149469 C5.04077746,3.5149469 4.36905376,3.62242269 3.75188217,3.83493165 C3.13308216,4.04906902 2.55255004,4.3796385 2.02901267,4.81931219 C0.910287384,5.73774168 0.343596848,6.88822117 0.343596848,8.23655383 L0.343596848,10.6694149 C0.343596848,11.323226 0.492597377,11.942026 0.784898961,12.510345 C1.07801476,13.0811065 1.47453529,13.5859171 1.96469003,14.010935 C2.45240215,14.4359529 3.02967742,14.7762929 3.68023164,15.0221845 C4.32915744,15.2672618 5.02612167,15.3902076 5.74995484,15.3902076 C6.30931748,15.3902076 6.87112275,15.3096008 7.41664381,15.1500155 C7.93448172,14.9993866 8.41812278,14.7600087 8.85453963,14.4383955 C9.15661174,14.8601566 9.58407227,15.0742939 10.1287791,15.0742939 L11.1449139,15.0742939 L11.1449139,8.23573962 C11.1449139,6.90206275 10.5790376,5.75239747 9.45949806,4.8201264 Z M4.7973285,6.54218169 C5.10265746,6.44610485 5.4226422,6.39888064 5.75076905,6.39888064 C6.47053116,6.39888064 7.09991591,6.60813275 7.61938224,7.02012328 C8.05172803,7.37919013 8.26179435,7.77652487 8.26179435,8.23655383 L8.26179435,10.6694149 C8.26179435,10.9242628 8.19421488,11.1644549 8.05905593,11.3875486 C7.92064014,11.6114565 7.73581434,11.8076813 7.5086496,11.9713376 C7.27904223,12.1382507 7.00709591,12.2701528 6.70258117,12.3646013 C6.09110905,12.5559407 5.4071722,12.5551265 4.7973285,12.3637871 C4.49118534,12.2685244 4.2176106,12.1366223 3.98474638,11.9713376 C3.75351059,11.8093097 3.56787059,11.6106423 3.4294548,11.3875486 C3.29592427,11.1677118 3.22753058,10.9267055 3.22753058,10.6694149 L3.22753058,8.23655383 C3.22753058,7.98089172 3.29592427,7.7398854 3.4294548,7.51923434 C3.56705638,7.29451223 3.75351059,7.0991017 3.98474638,6.93544538 C4.21598218,6.76934643 4.49037113,6.63744433 4.7973285,6.54218169 Z" id="Shape"></path>
                    <path d="M21.5440109,10.4544633 C21.3754693,10.0799265 21.1678456,9.73714385 20.9260251,9.43425753 C20.7070025,9.16068279 20.4643677,8.93270384 20.2030061,8.75520594 C20.2697714,8.66808541 20.3218809,8.59154962 20.3593346,8.52234173 L23.2204704,3.84144533 L20.8625167,3.84144533 C20.5514882,3.84144533 20.2559298,3.92368059 19.9839835,4.08408007 C19.7120372,4.24692218 19.4824298,4.47571534 19.3024893,4.76720271 L17.3223292,7.98984803 C17.259635,8.09325277 17.182285,8.14699067 17.0878366,8.15838961 C16.9600056,8.17223119 16.8020487,8.17955909 16.6188513,8.17955909 L16.265484,8.17955909 L16.265484,0.0822352646 L14.923665,0.0822352646 C13.9010166,0.0822352646 13.3823644,0.5870458 13.3823644,1.58201108 L13.3823644,13.5867313 C13.3823644,14.5743687 13.9010166,15.0751082 14.923665,15.0751082 L16.265484,15.0751082 L16.265484,11.0431376 L18.1039714,11.0431376 C18.489093,11.0431376 18.7553398,11.2214497 18.9173677,11.5894728 L20.0442351,14.169706 C20.1704377,14.459565 20.3748046,14.6859155 20.6500077,14.8422439 C20.921954,14.9969439 21.2508951,15.0751082 21.629503,15.0751082 L23.5559251,15.0751082 L21.5440109,10.4544633 Z" id="Shape"></path>
                    <path d="M33.3060964,4.8201264 C32.7793021,4.3796385 32.2020269,4.04825481 31.5872979,3.83493165 C30.9741974,3.62242269 30.3041021,3.5149469 29.5949247,3.5149469 C28.8873758,3.5149469 28.2148379,3.62242269 27.5976663,3.83493165 C26.9796805,4.0474406 26.4007768,4.37882429 25.8739826,4.81931219 C24.7560715,5.73855589 24.1893809,6.88903538 24.1893809,8.23655383 L24.1893809,10.6694149 C24.1893809,11.3207834 24.3375673,11.9403976 24.6306831,12.510345 C24.9229846,13.0811065 25.3203194,13.5859171 25.8096599,14.010935 C26.2990005,14.4367671 26.8762757,14.7771071 27.5260157,15.0221845 C28.1757557,15.2672618 28.8719058,15.3902076 29.5949247,15.3902076 C30.1551016,15.3902076 30.7169068,15.3096008 31.2632421,15.1500155 C31.7818942,14.9985724 32.2647211,14.7600087 32.7003237,14.4383955 C33.0023958,14.8601566 33.4306706,15.0742939 33.9753774,15.0742939 L34.9915122,15.0742939 L34.9915122,8.23573962 C34.990698,6.90206275 34.4240074,5.75239747 33.3060964,4.8201264 Z M28.6422984,6.54218169 C28.9476273,6.44610485 29.2684263,6.39888064 29.5949247,6.39888064 C30.3146868,6.39888064 30.9440716,6.60813275 31.4651663,7.02012328 C31.8975121,7.37919013 32.1075784,7.77652487 32.1075784,8.23655383 L32.1075784,10.6694149 C32.1075784,10.9258912 32.039999,11.1660834 31.9056542,11.3875486 C31.7680527,11.6114565 31.5824127,11.8076813 31.3536195,11.9721518 C31.1256405,12.1374365 30.8536942,12.2693386 30.5491795,12.3646013 C29.9368931,12.5551265 29.2545847,12.5559407 28.6431126,12.3637871 C28.3377836,12.2693386 28.0642089,12.1374365 27.8313447,11.9713376 C27.5992947,11.8076813 27.4128405,11.6106423 27.2768673,11.3875486 C27.1417084,11.1660834 27.0733147,10.9242628 27.0733147,10.6694149 L27.0733147,8.23655383 C27.0733147,7.98252014 27.1417084,7.74069961 27.2768673,7.51923434 C27.4128405,7.29695486 27.6001089,7.09991591 27.8313447,6.93544538 C28.0633947,6.76934643 28.3369694,6.63744433 28.6422984,6.54218169 Z" id="Shape"></path>
                    <path d="M38.1482064,3.84144533 C37.1605691,3.84144533 36.6598296,4.36009744 36.6598296,5.38274588 L36.6598296,6.70339538 L41.3179281,6.70339538 L36.9594591,13.040396 C36.8519833,13.1991671 36.7664912,13.349796 36.7086822,13.4882118 C36.6508733,13.6249992 36.6060917,13.7691144 36.5775943,13.9156723 C36.5482827,14.0622302 36.5311843,14.2250724 36.5271133,14.3993134 C36.5246706,14.571926 36.5230422,14.7665224 36.5230422,14.9847308 L36.5230422,15.0742939 L44.1920913,15.0742939 C45.1805429,15.0742939 45.6820966,14.5556418 45.6820966,13.5321792 L45.6820966,12.1903602 L41.0345828,12.1903602 L45.3832813,5.8631301 C45.486686,5.70680168 45.564036,5.56757168 45.621845,5.43974062 C45.6788397,5.31272378 45.7252497,5.16942272 45.7586324,5.01797956 C45.7912008,4.86897903 45.8123703,4.70613692 45.8196982,4.53352429 C45.8262118,4.36498271 45.8294687,4.16305849 45.8294687,3.93100849 L45.8294687,3.84225954 L38.1482064,3.84225954 L38.1482064,3.84144533 Z" id="Shape"></path>
                    <path d="M56.1398168,4.8201264 C55.6154652,4.3796385 55.0373757,4.04906902 54.4226467,3.83493165 C53.808732,3.62242269 53.1386367,3.5149469 52.4302735,3.5149469 C51.7210962,3.5149469 51.0493725,3.62242269 50.4322009,3.83493165 C49.8142151,4.04906902 49.2344972,4.3796385 48.7093314,4.81931219 C47.5914203,5.73855589 47.0247298,6.88822117 47.0247298,8.23655383 L47.0247298,10.6694149 C47.0247298,11.3207834 47.1729161,11.9403976 47.4652177,12.510345 C47.7575192,13.0811065 48.154854,13.5859171 48.6433803,14.010935 C49.1327208,14.4367671 49.7108103,14.7771071 50.3613646,15.0221845 C51.0111046,15.2672618 51.7064404,15.3902076 52.4294593,15.3902076 C53.1239809,15.3902076 53.7957046,15.2754039 54.4226467,15.0482392 C55.0487746,14.8235171 55.6260499,14.5027181 56.1414452,14.0956129 C56.6600973,13.6404692 57.0745305,13.1161176 57.3725315,12.5363997 C57.672161,11.9542392 57.8244184,11.327297 57.8244184,10.6686007 L57.8244184,8.23573962 C57.8252326,6.90206275 57.258542,5.75239747 56.1398168,4.8201264 Z M53.3820857,12.3637871 C52.7714278,12.5543123 52.0883051,12.5551265 51.476833,12.3629728 C51.1723183,12.2693386 50.8995577,12.1374365 50.6658793,11.9705234 C50.4330151,11.8060528 50.2473751,11.6090139 50.1105877,11.3867344 C49.9754288,11.1652691 49.9070351,10.925077 49.9070351,10.6686007 L49.9070351,8.23573962 C49.9070351,7.98007751 49.9754288,7.73907119 50.1105877,7.51842013 C50.2457467,7.29695486 50.4322009,7.09991591 50.6658793,6.93463117 C50.8995577,6.76853222 51.171504,6.63663011 51.476833,6.54136748 C51.7821619,6.44529064 52.1029609,6.39806643 52.4302735,6.39806643 C53.1492214,6.39806643 53.7794204,6.60731854 54.2997009,7.01930907 C54.7312325,7.37756171 54.9412988,7.77571066 54.9412988,8.23573962 L54.9412988,10.6686007 C54.9412988,10.925077 54.8737194,11.1660834 54.7385604,11.3867344 C54.601773,11.6098281 54.4169473,11.806867 54.1881541,11.9705234 C53.9577325,12.1374365 53.6866004,12.2693386 53.3820857,12.3637871 Z" id="Shape"></path>
                    <path d="M68.3375049,4.8201264 C67.8115249,4.3796385 67.2334354,4.04906902 66.6187064,3.83493165 C66.0064201,3.62242269 65.3363248,3.5149469 64.6263332,3.5149469 C63.9179701,3.5149469 63.2454321,3.62242269 62.6290748,3.83493165 C62.011089,4.04906902 61.4305568,4.3796385 60.9062053,4.81931219 C59.78748,5.73774168 59.2207894,6.88822117 59.2207894,8.23655383 L59.2207894,10.6694149 C59.2207894,11.3207834 59.36979,11.9395834 59.6620916,12.510345 C59.9535789,13.0811065 60.3500995,13.5859171 60.83944,14.010935 C61.330409,14.4367671 61.9084984,14.7779213 62.5574242,15.0221845 C63.20635,15.2672618 63.9025001,15.3902076 64.6263332,15.3902076 C65.3208548,15.3902076 65.9925785,15.2754039 66.6187064,15.0482392 C67.2440201,14.8235171 67.8212954,14.5027181 68.3383191,14.0947987 C68.8569712,13.639655 69.2714044,13.1153034 69.5694054,12.5363997 C69.8690349,11.9542392 70.0212923,11.327297 70.0212923,10.6686007 L70.0212923,8.23573962 C70.0221065,6.90206275 69.4554159,5.75239747 68.3375049,4.8201264 Z M65.5797738,12.3637871 C64.9674874,12.5543123 64.285179,12.5551265 63.6737069,12.3629728 C63.3691921,12.2685244 63.0956174,12.1366223 62.861939,11.9705234 C62.629889,11.806867 62.4434348,11.6098281 62.3066474,11.3867344 C62.1723027,11.1652691 62.1047232,10.925077 62.1047232,10.6686007 L62.1047232,8.23573962 C62.1047232,7.98089172 62.1723027,7.73907119 62.3066474,7.51842013 C62.4434348,7.29614065 62.629889,7.0991017 62.861939,6.93463117 C63.0948032,6.76853222 63.3683779,6.63663011 63.6737069,6.54136748 C63.9790358,6.44529064 64.2998348,6.39806643 64.6271474,6.39806643 C65.3469095,6.39806643 65.9762943,6.60731854 66.497389,7.01930907 C66.9289206,7.3767475 67.1381727,7.77408224 67.1381727,8.23573962 L67.1381727,10.6686007 C67.1381727,10.925077 67.0697791,11.1652691 66.9346201,11.3867344 C66.7978327,11.6106423 66.6130069,11.806867 66.3858422,11.9705234 C66.1546064,12.1374365 65.8842885,12.2693386 65.5797738,12.3637871 Z" id="Shape"></path>
                </g>
                <g>
                    <path d="M8.08718823,29.8317881 C8.08718823,29.8317881 -3.6125828,51.6801059 1.13270607,61.9161042 C5.03471193,70.3322769 15.9349257,77.2888412 30.6830087,68.2834115 C40.111121,62.526183 41.4166481,60.4918928 47.8214346,60.7771515 C51.2112241,60.9270685 8.08718823,29.8317881 8.08718823,29.8317881 Z" id="Shape" fill="url(#linearGradient-1)"></path>
                    <path d="M69.4906848,41.4815868 C66.9670823,24.4347768 45.9828694,0.425155967 33.1608032,0.425155967 C20.338737,0.425155967 3.65006204,36.3989848 2.84217609,49.1919004 C2.04053668,61.914022 14.529454,71.5045444 33.2690766,60.5127146 C38.2912954,57.5643474 42.7846405,59.188448 50.3158866,61.7016396 C61.6804266,65.4849612 71.9247536,57.9328933 69.4906848,41.4815868 Z" id="Shape" fill="url(#linearGradient-2)"></path>
                    <path d="M32.8505584,0.0815962203 C21.1757735,0.0815962203 2.14881005,35.7410158 1.41380041,48.1862074 C0.685037314,60.562687 11.8788385,75.8979448 28.9443881,65.2038668 C33.5147739,62.3367046 39.4677273,58.253549 46.3264292,60.7001109 C56.6748652,64.3814056 68.3163352,59.315461 67.0233012,43.1973034 C65.6823771,26.4649026 44.5253432,0.0815962203 32.8505584,0.0815962203 Z" id="Shape" fill="url(#linearGradient-3)"></path>
                    <path d="M32.8505584,0.0815962203 C21.1903488,0.702085945 2.14881005,35.7410158 1.41588259,48.1841252 C0.687119494,60.5606048 11.1146784,74.3550492 28.9464703,65.2017846 C62.0947805,48.182043 38.8826346,-0.243223904 32.8505584,0.0815962203 Z" id="Shape" fill="url(#linearGradient-4)" opacity="0.17"></path>
                    <g opacity="0.5" transform="translate(4.164361, 25.881892)" id="Shape">
                        <path d="M19.1060863,1.11604863 C19.1102507,1.11813081 19.114415,1.11813081 19.1185794,1.12021299 C19.1185794,1.12021299 19.2101953,1.03067924 19.1060863,1.11604863 Z" fill="url(#linearGradient-5)"></path>
                        <path d="M1.26180125,31.2264577 C2.93795638,36.3881827 5.6718591,37.9310783 9.08663477,39.5593432 C17.1071932,43.3780619 29.0672368,36.9024812 14.9021643,32.1842607 C12.7741761,31.4742372 8.80345825,29.3462489 6.95448215,27.8783118 C1.84064737,23.8055672 -1.60119664,22.4063421 1.26180125,31.2264577 Z" fill="url(#radialGradient-6)" opacity="0.23"></path>
                    </g>
                    <path d="M25.9731169,41.8334753 C25.9710347,40.282251 25.9273089,26.3108213 25.9273089,26.3108213 C26.0480754,18.4714125 27.4243965,16.2039182 34.2851806,19.2834628 C37.454259,20.7035098 52.895708,27.2394737 51.7879881,32.7655802 C50.8197742,37.5983206 42.6180661,43.7636564 37.2377122,46.553778 C26.5686204,52.0882132 25.9751991,44.1696816 25.9731169,41.8334753 Z" id="Shape" fill="url(#linearGradient-7)"></path>
                    <path d="M28.6799513,39.9720061 L28.6945265,27.8516347 C28.6945265,24.401462 28.8069642,19.4687769 36.3756896,23.0293051 C38.3849936,23.974615 50.020217,29.1217647 48.8562782,33.098729 C47.8651604,36.5030938 41.4707847,41.2504648 37.7270246,43.6012464 C30.5060234,48.1341528 28.6799513,46.3247382 28.6799513,39.9720061 Z" id="Shape" fill="#FFFFFF"></path>
                    <path d="M30.3852569,40.8173713 C30.3852569,40.8173713 30.3998322,31.955612 30.3685995,27.4581026 C30.3561064,25.5508255 30.3998322,24.2328054 31.0015823,23.639384 C31.8885911,22.7607039 32.9838179,23.3562075 35.2804628,24.4701739 C35.4845164,24.5680364 35.7760217,24.7117068 36.1404032,24.8845278 C47.5382581,30.3169361 47.4862036,32.5656909 47.479957,32.6614711 C46.8157415,34.9289655 38.5349105,42.1728707 33.9999219,43.9802032 C32.4549441,44.5944464 30.3873391,44.9963072 30.3852569,40.8173713 Z" id="Shape" fill="url(#linearGradient-8)"></path>
                    <path d="M45.2770103,45.1045805 C43.5841977,51.7592287 39.9341357,57.9266467 33.3690213,62.5761553 C37.1502607,60.5064681 41.5561541,58.9552438 46.4180451,60.6897 C49.7120543,61.8619675 53.1372409,62.1430618 56.2313608,61.4684354 C50.2679965,60.6480564 45.5664334,53.6998207 45.2770103,45.1045805 Z" id="Shape" fill="url(#linearGradient-9)"></path>
                </g>
            </g>
        </g>
    </g>
</svg>