<?xml version="1.0" encoding="UTF-8"?>
<svg width="100px" height="100px" viewBox="0 0 100 100" version="1.1" xmlns="http://www.w3.org/2000/svg" xmlns:xlink="http://www.w3.org/1999/xlink">
    <!-- Generator: Sketch 45 (43475) - http://www.bohemiancoding.com/sketch -->
    <title>amazon</title>
    <desc>Created with Sketch.</desc>
    <defs>
        <linearGradient x1="93.5899523%" y1="6.22829861%" x2="7.06597222%" y2="93.0078125%" id="linearGradient-1">
            <stop stop-color="#FF9700" offset="0%"></stop>
            <stop stop-color="#FD6800" offset="99.212771%"></stop>
        </linearGradient>
    </defs>
    <g id="default---square-logos" stroke="none" stroke-width="1" fill="none" fill-rule="evenodd">
        <g id="amazon">
            <rect id="Rectangle" fill="url(#linearGradient-1)" x="5" y="5" width="90" height="90" rx="8"></rect>
            <g id="Amazon-music" transform="translate(16.000000, 60.000000)" fill-rule="nonzero" fill="#FFFFFF">
                <polyline id="Shape" points="21.485671 21.5803453 0.334539639 21.5972876 0.331564935 17.6872608 21.4822005 17.6700578 21.485671 21.5803453"></polyline>
                <polyline id="Shape" points="21.4807131 15.7149141 0.329829692 15.7321171 0.327350772 11.8218296 21.4789779 11.804366 21.4807131 15.7149141"></polyline>
                <polyline id="Shape" points="21.4772427 9.84922225 0.325863421 9.86642523 0.322888718 5.95639842 21.4737722 5.93893479 21.4772427 9.84922225"></polyline>
                <polyline id="Shape" points="21.4720369 3.98379106 0.321401366 4.00099404 0.318426663 0.0904459238 21.4705496 0.0735036038 21.4720369 3.98379106"></polyline>
                <polyline id="Shape" points="44.4689716 21.5613178 23.3188318 21.5787814 23.3153613 17.6682333 44.4672364 17.6512909 44.4689716 21.5613178"></polyline>
                <polyline id="Shape" points="44.465749 15.6958866 23.3136261 15.7133502 23.3118909 11.8028021 44.4622785 11.7855991 44.465749 15.6958866"></polyline>
                <polyline id="Shape" points="67.4812756 21.5428115 46.3291527 21.5600145 46.3256822 17.6494664 67.4778051 17.6322634 67.4812756 21.5428115"></polyline>
                <polyline id="Shape" points="67.4760698 15.6771197 46.3239469 15.6945833 46.3224596 11.7840352 67.4728472 11.7668322 67.4760698 15.6771197"></polyline>
                <polyline id="Shape" points="67.4728472 9.8116885 46.3209722 9.82863082 46.3172539 5.91860401 67.4693768 5.90140104 67.4728472 9.8116885"></polyline>
            </g>
            <g id="Group-2" transform="translate(34.000000, 17.000000)" fill-rule="nonzero" fill="#FFFFFF">
                <g id="Group" transform="translate(0.000000, 27.000000)">
                    <path d="M29.0501039,3.295726 C25.5594386,5.89346923 20.4854346,7.27816063 16.1193657,7.28149749 C9.99967412,7.2863985 4.49187871,5.01983834 0.316740582,1.23333979 C-0.0114184543,0.937193722 0.282329244,0.530618544 0.676078377,0.76253011 C5.17708145,3.38769813 10.7382666,4.97114108 16.4861071,4.96665718 C20.3615538,4.96363315 24.6250143,4.14871009 28.5427974,2.47590193 C29.1347767,2.22292646 29.6312384,2.86892113 29.0501039,3.295726" id="Shape"></path>
                    <path d="M30.5093532,1.62354351 C30.0588775,1.05283667 27.549561,1.35555218 26.423476,1.49330181 C26.078737,1.53407403 26.0264943,1.23354834 26.334945,1.01821678 C28.338102,-0.397444826 31.6173983,0.00714909234 31.9992599,0.481191349 C32.3815386,0.955963543 31.9009269,4.26174612 30.0250918,5.84393776 C29.7357238,6.08575562 29.4637699,5.95144712 29.5902577,5.63778255 C30.0110145,4.57603635 30.9574306,2.2007155 30.5093532,1.62354351" id="Shape"></path>
                </g>
                <path d="M26.7574767,21.7458922 C25.909318,20.5822173 25.0189187,19.6341237 25.0178885,17.4589944 L25.0124796,10.2562128 C25.009904,7.20150198 25.2195612,4.39868886 22.974632,2.29361704 C21.2190748,0.597557086 18.2869644,-0.00256739108 16.0474441,8.25045573e-06 C11.6685959,0.00258389199 6.78440691,1.6551155 5.76084696,7.08147708 C5.65524566,7.67104143 6.07481766,7.97187636 6.44416466,8.06279651 L10.9129027,8.53619942 C11.3270659,8.51379134 11.6289311,8.10349165 11.7082608,7.6841772 C12.0853347,5.81657953 13.6510672,4.91046884 15.4092001,4.90918101 C16.3536879,4.90918101 17.4297909,5.25998339 17.9892203,6.10556651 C18.6367366,7.05649336 18.5563765,8.36363144 18.5563765,9.45827909 L18.5576644,10.0584036 C15.8854363,10.3618141 12.4008508,10.5637444 9.90247855,11.6717854 C7.02471426,12.9286985 4.99742681,15.4821895 5.00000245,19.2346417 C5.00386591,24.0446522 8.0217451,26.4423169 11.8890709,26.4399989 C15.1706957,26.4374232 16.9525246,25.6593219 19.4769108,23.0687417 C20.3145094,24.2834142 20.583664,24.8758118 22.1202917,26.1484362 C22.4659428,26.3410942 22.9076653,26.3225496 23.2056671,26.0376836 L23.217515,26.0495316 C24.1290346,25.2330532 25.8068075,23.7664829 26.7482044,22.9737005 C27.1201271,22.6702899 27.047494,22.1677822 26.7574767,21.7458922 Z M17.7053846,19.6804852 C16.970554,20.9809266 15.8073943,21.7801482 14.517513,21.781436 C12.7516532,21.7827238 11.718821,20.4359209 11.7162453,18.4220268 C11.7136697,14.4954612 15.2232388,13.7647517 18.56024,13.7621761 L18.5615278,14.7684792 C18.5628156,16.5768372 18.6009351,18.0750878 17.7053846,19.6804852 Z" id="Shape"></path>
            </g>
        </g>
    </g>
</svg>