<?xml version="1.0" encoding="UTF-8"?>
<svg width="100px" height="100px" viewBox="0 0 100 100" version="1.1" xmlns="http://www.w3.org/2000/svg" xmlns:xlink="http://www.w3.org/1999/xlink">
    <!-- Generator: Sketch 47.1 (45422) - http://www.bohemiancoding.com/sketch -->
    <title>anghami</title>
    <desc>Created with Sketch.</desc>
    <defs></defs>
    <g id="default---square-logos" stroke="none" stroke-width="1" fill="none" fill-rule="evenodd">
        <g id="anghami">
            <g id="Group-2" transform="translate(7.000000, 7.000000)">
                <g id="Page-1" transform="translate(0.000000, 61.000000)" fill="#252122">
                    <path d="M64.6048311,7.166367 C64.9989904,6.91635394 65.3405154,6.66783617 65.7100024,6.47240133 C66.3422125,6.13820325 66.9757683,5.85873291 67.7464425,6.02874777 C68.3303546,6.15749253 68.9453688,6.16900629 69.5478225,6.18530499 C70.4995767,6.21117357 71.0108176,6.83904727 71.4556673,7.54377905 C71.6430276,7.84044527 71.7227267,7.93135911 72.0243274,7.63185184 C72.6903311,6.9701845 73.4245202,6.33303998 74.3574337,6.13012866 C75.732057,5.83121951 77.1597631,5.61320573 78.4271738,6.46941074 C79.2349313,7.0150433 79.7043039,7.82863245 79.8819448,8.82210539 C80.3725505,11.5662679 80.1424249,14.3328597 80.1820501,17.0906294 C80.1868351,17.4200425 80.0618286,17.7542406 79.9740548,18.080065 C79.9544665,18.1527363 79.8381327,18.250678 79.7668072,18.2502294 C79.1712318,18.2472388 78.5593577,18.2986769 77.9872585,18.1736704 C77.7197505,18.1152044 77.4353457,17.7389886 77.3263388,17.4445653 C77.1751646,17.0369483 77.1335955,16.5711644 77.1294087,16.1294548 C77.1107175,14.1114068 77.1259695,12.0930597 77.1204369,10.0748622 C77.115652,8.31265893 75.5932937,7.42490323 74.071085,8.33299492 C73.1007891,8.91182299 72.4256642,9.78522388 72.3935154,10.9452725 C72.332956,13.1351297 72.366301,15.3275289 72.361217,17.5190309 C72.3594227,18.2630889 72.3603199,18.263388 71.5941315,18.2657804 C71.3200442,18.2665281 71.0458074,18.268472 70.7718697,18.2648833 C69.9976067,18.2548648 69.6258768,18.0002163 69.4633384,17.2421026 C69.3549296,16.7359458 69.3342946,16.2061633 69.3205379,15.6856517 C69.2696979,13.7698818 69.2716418,11.8520184 69.1883539,9.9377438 C69.1252526,8.48521578 68.118322,7.74579319 66.7154377,8.07012233 C65.3900096,8.37650795 64.4916373,9.28863693 64.5677478,10.6925679 C64.6499889,12.2078983 64.5912239,13.7313032 64.5821026,15.2511194 C64.5801587,15.5726075 64.5481594,15.8973852 64.4937308,16.2143874 C64.2752684,17.4865831 63.5702375,18.1415216 62.2778554,18.2291458 C61.6330849,18.2728083 60.9826323,18.2301925 60.3353198,18.2448463 C59.8903205,18.2550143 59.6917455,18.0070947 59.6621387,17.6141316 C59.6337281,17.2367195 59.7439312,17.0160142 60.2174907,16.9379599 C61.3394093,16.7529921 61.5657967,16.4092242 61.5660958,15.218522 C61.5665444,13.4742622 61.5919644,11.7295539 61.5512924,9.98634084 C61.5372366,9.37850407 61.3687171,8.77261118 61.2516356,8.16940982 C61.1689459,7.74384931 60.909961,7.53764835 60.4570367,7.6031422 C60.3377123,7.62033808 60.2052293,7.6006002 60.0879983,7.56650751 C59.7340623,7.46363133 59.5707763,7.22558062 59.5632998,6.84861715 C59.5555243,6.45520545 59.7330156,6.20489334 60.104596,6.172595 C60.7970664,6.11233467 61.4937236,6.09588645 62.189035,6.07465328 C62.7397516,6.05790599 63.2958512,6.01813119 63.840138,6.0762981 C64.0600957,6.09977421 64.3000903,6.32257293 64.4470776,6.51800778 C64.563561,6.67277064 64.5520472,6.92383041 64.6048311,7.166367" id="Fill-3"></path>
                    <path d="M31.7413024,10.4806998 C31.5875862,9.81424752 31.4743925,9.02533072 31.2145105,8.2883006 C30.9969453,7.67149206 30.432173,7.41385301 29.7721505,7.43822629 C29.1200531,7.46245005 28.592065,7.73459345 28.2853803,8.31895411 C27.5854334,9.65290536 27.6253578,11.0553411 28.041797,12.4473097 C28.2868756,13.2664314 28.8616664,13.6166291 29.6692743,13.6140871 C30.5272737,13.6112461 31.1261387,13.2522261 31.3818339,12.4434219 C31.5663531,11.860108 31.6098661,11.2320847 31.7413024,10.4806998 M28.2070269,19.2178487 C27.3161311,19.081777 26.405946,19.0188252 25.5397225,18.7895967 C24.6205657,18.546462 23.9159834,17.5923152 23.9843183,16.6836254 C24.0196072,16.2127575 24.2847228,15.7134791 24.573763,15.3211141 C24.8278133,14.976449 25.2399162,14.729576 25.6183749,14.4990018 C26.2275575,14.1275709 26.2483421,14.1413276 25.804838,13.6197692 C25.6319821,13.4165589 25.3719506,13.2810853 25.2231689,13.0653145 C24.8690834,12.5521298 24.6059118,12.0097868 24.6625834,11.3388487 C24.7250867,10.6001737 24.6090519,9.83637786 24.744376,9.11624456 C25.0027627,7.74236897 26.895206,6.23062733 28.1943169,6.12386339 C29.1901823,6.04192131 30.2044398,5.92498936 31.1890905,6.02786555 C32.4736971,6.16199337 33.5334116,6.88930408 34.1911911,7.98236356 C34.9561832,9.25366202 35.2320649,10.6058559 34.6435174,12.1204385 C33.8665629,14.1200944 32.2809538,14.8299102 30.3856694,15.1557346 C29.8007106,15.2562184 29.1922757,15.2119577 28.5998405,15.2790963 C28.2620537,15.3173759 27.9164914,15.4079906 27.6096572,15.5504921 C27.4345583,15.6318361 27.3301868,15.8649523 27.1939656,16.0297336 C27.3665225,16.1439741 27.5308552,16.3403061 27.7131315,16.3585487 C28.4787217,16.4351077 29.2531342,16.5254234 30.0179767,16.4859477 C31.2545844,16.4220986 32.3706714,16.7694553 33.415732,17.3545636 C34.6803016,18.0627346 35.3048857,19.8285265 34.8162238,21.2791107 C34.0895112,23.436221 32.5791153,24.7975361 30.3781929,25.3020481 C29.2073782,25.5704532 28.001125,25.518118 26.8801035,24.9682986 C25.6855136,24.3822931 25.2047768,23.0287535 25.6716074,21.8835083 C25.9527226,21.194178 27.2614033,20.7988224 28.039255,21.161132 C28.7910885,21.5111802 29.0502229,22.1134844 28.7587902,23.0169407 C28.7058568,23.1808248 28.6224194,23.3423165 28.6098589,23.5090417 C28.6020834,23.6111703 28.7082493,23.8160255 28.7540052,23.813334 C29.1885375,23.7886616 29.6253127,23.7515783 30.052518,23.670982 C30.2886249,23.6264223 30.5096292,23.4960327 30.7342223,23.3971938 C31.7788343,22.9375406 32.445137,21.5590296 32.1605827,20.4726989 C32.0010349,19.8633669 31.5226905,19.6114099 30.997992,19.4221058 C30.6545232,19.298146 30.29969,19.1622238 29.9414177,19.1315703 C29.3747015,19.0832723 28.8006584,19.1187108 28.2297554,19.1187108 C28.2221294,19.1517567 28.2146529,19.1848027 28.2070269,19.2178487" id="Fill-8"></path>
                    <path d="M39.9091483,7.20626143 C40.7788109,6.50571646 41.6016709,6.04426892 42.624302,6.05249303 C43.1946069,6.05712844 43.7649119,6.06879173 44.3350672,6.06729644 C45.5728711,6.06385726 46.4304219,6.73449636 46.9090653,7.77133281 C47.2537304,8.51808233 47.4690527,9.38595063 47.493426,10.2073153 C47.5677421,12.7213521 47.5142105,15.2391272 47.5317055,17.7554069 C47.5342475,18.1337161 47.4554455,18.3043291 47.0461837,18.2724794 C46.649931,18.2416763 46.2494914,18.2687411 45.8508462,18.2632085 C45.0973678,18.2524424 44.74403,18.0042237 44.5650434,17.2839409 C44.4762229,16.9261172 44.4494572,16.5457145 44.4467656,16.1750313 C44.4348033,14.5308067 44.4503543,12.8864325 44.4362986,11.2422079 C44.4319622,10.74592 44.3989163,10.2445481 44.3177218,9.75558716 C44.1939115,9.01048245 43.8890212,8.33610513 43.0891888,8.12467064 C42.2480862,7.90232051 41.4466089,8.07218584 40.8069224,8.69617178 C40.2929901,9.19769319 39.9785299,9.81629607 39.976586,10.5542234 C39.9723992,12.0979643 39.9809223,13.6417052 39.9783803,15.1854461 C39.9779318,15.4836076 39.9701562,15.7841616 39.933073,16.079482 C39.7552826,17.4949268 39.0305139,18.2123686 37.6346575,18.3131513 C37.0399793,18.3562158 36.4394694,18.3293005 35.8419502,18.3194316 C35.4673792,18.3133009 35.1538162,18.2114714 35.0956492,17.7586965 C35.0395757,17.3216223 35.2172166,17.0390118 35.619301,16.8855947 C35.7118597,16.8503058 35.8087547,16.8259325 35.9044535,16.7990172 C36.9181129,16.5137153 36.961925,16.458838 36.9620745,15.4296275 C36.9628221,11.6676188 36.9638688,7.90561015 36.9601306,4.14360146 C36.9598315,3.79564669 36.9528037,3.44410321 36.9042066,3.10048478 C36.7808449,2.2270839 36.5683637,2.05198504 35.6807576,1.91352087 C35.2519074,1.84653173 34.7747593,1.82335468 34.7840301,1.15750053 C34.7909085,0.660165937 34.982306,0.383088068 35.4612485,0.369630428 C36.7543782,0.332995739 38.0485547,0.305781399 39.3418339,0.315650336 C39.8153934,0.31923904 39.9190172,0.675866518 39.915578,1.10710914 C39.9015223,2.85106984 39.9092978,4.59503054 39.9091483,6.33899125 C39.9091483,6.607845 39.9091483,6.87669876 39.9091483,7.20626143" id="Fill-10"></path>
                    <path d="M22.4150826,13.7837132 C22.4150826,15.1031601 22.3956438,16.4229061 22.4258488,17.7416053 C22.4361663,18.1866047 22.2784128,18.3012937 21.8718425,18.272285 C21.4755898,18.2441735 21.0755988,18.2630142 20.6772526,18.2673505 C20.0952844,18.2737803 19.7223583,17.9709834 19.5892772,17.4350702 C19.4757844,16.9776599 19.4078981,16.4976708 19.4023655,16.0266533 C19.3812818,14.259067 19.4040103,12.4911816 19.3874125,10.7235953 C19.3830762,10.2543722 19.3504788,9.77243912 19.2374346,9.3198138 C19.0001316,8.36895672 18.2974932,7.90003271 17.3355709,8.07827168 C15.9101077,8.3423405 15.1919183,8.88348718 15.0461272,10.465059 C14.9184291,11.8489531 14.9650823,13.2489963 14.9363727,14.6418621 C14.9277,15.0648806 14.9523723,15.4905906 14.9136442,15.9106186 C14.7712923,17.4554062 13.924059,18.2378932 12.3806172,18.2628646 C11.8082188,18.2721354 11.2355215,18.2529957 10.6629736,18.2528462 C10.2525156,18.2526966 10.0768186,17.9862353 10.0392867,17.6433646 C10.0032502,17.3133533 10.0651553,17.0075658 10.5123976,16.957623 C10.7740739,16.9283153 11.0384418,16.8424854 11.2797821,16.7337776 C11.5356269,16.6183409 11.8496385,16.5375951 11.8595074,16.1512113 C11.8657876,15.9047869 11.9341225,15.6594093 11.9350197,15.4134335 C11.941599,13.5461111 11.9483278,11.6787887 11.9315805,9.8116158 C11.9272442,9.31906615 11.9429448,8.78434923 11.7591732,8.34936838 C11.6216062,8.02369347 11.1923075,7.80717499 10.866184,7.58048851 C10.6786742,7.45024845 10.3724381,7.45189327 10.2386093,7.2935417 C10.0932668,7.12173249 9.99726899,6.81190769 10.0473613,6.60241709 C10.0857904,6.44197211 10.379765,6.24564008 10.5693683,6.23517303 C11.4382833,6.1876227 12.3103384,6.20078128 13.1813468,6.19031422 C13.3797722,6.18792176 13.5835807,6.20676245 13.7754269,6.16833341 C14.6145855,5.99996337 14.7937217,6.09042862 14.9260551,6.8990833 C14.9852687,7.26139289 15.1229853,7.29174735 15.3329245,7.05803299 C16.0765339,6.23008903 17.063278,6.14336201 18.0839653,6.01745831 C18.8571815,5.92205859 19.5047931,5.94583375 20.2500473,6.29453618 C21.4681133,6.86454202 22.1429392,7.78295124 22.2791605,9.015073 C22.4536612,10.592458 22.429587,12.1918239 22.4910435,13.7816198 C22.4657731,13.7823675 22.4403531,13.7829656 22.4150826,13.7837132" id="Fill-12"></path>
                    <path d="M6.56883036,13.9676493 C6.56883036,13.594424 6.59140929,13.2188063 6.55507366,12.8491698 C6.54415802,12.738219 6.35096611,12.5430832 6.27066885,12.5569895 C5.3148773,12.7217708 4.36790799,12.9133179 3.63177504,13.6364418 C2.99208852,14.2649136 3.06296543,14.9970092 3.37234164,15.6153131 C3.50631992,15.8831201 3.76440757,16.1597494 4.03251368,16.2678591 C4.26054592,16.3599692 4.59265059,16.2475231 4.86344822,16.1712632 C6.14491468,15.8104489 6.74706933,15.6782649 6.57137236,14.1914947 C6.56269965,14.1179262 6.57017612,14.0422644 6.56883036,13.9676493 M9.55223977,13.6624599 C9.55209024,15.0325972 9.53579154,16.4030336 9.56195918,17.7727224 C9.56988423,18.1788441 9.43291535,18.2702065 9.05490518,18.275141 C8.27869837,18.285309 7.63542315,18.0227355 7.14003244,17.4377767 C6.93233618,17.1925486 6.77966673,17.1802872 6.53129849,17.3719838 C5.86290234,17.8875609 5.0666586,18.0125675 4.25232181,18.0607159 C3.62250422,18.0979487 2.97534123,18.2404502 2.3661587,18.1443028 C1.06689826,17.9391486 0.269009693,16.9594323 0.130395994,15.6452189 C0.0161555772,14.5608322 0.112003885,13.5085942 0.947723371,12.7422563 C2.00743781,11.7704651 3.24419499,11.1738431 4.75997392,11.2611682 C5.30201778,11.2924198 5.8606594,11.1016204 6.40360044,10.9769129 C6.48225287,10.9588199 6.56150342,10.7426004 6.56150342,10.618192 C6.56105483,10.1461279 6.57077424,9.66748447 6.49959827,9.20319587 C6.28816378,7.82244193 5.25805615,7.13819567 3.89823633,7.43860012 C3.39731304,7.5491023 3.09960012,8.15409801 3.27499803,8.70481458 C3.69801654,10.0326351 2.94139807,10.9182974 1.5696159,10.7010313 C0.810455436,10.5806602 0.40134316,10.034579 0.424520207,9.07385299 C0.443211375,8.30422547 0.745559702,7.70072505 1.38808728,7.18155918 C2.08414636,6.61932886 2.79441073,6.10554604 3.67259655,6.04289325 C4.71601229,5.96827811 5.79292261,5.94211047 6.81704906,6.11750839 C8.36587398,6.38277344 9.53190378,7.75889196 9.5498473,9.62666296 C9.56270682,10.9718289 9.5523893,12.3171444 9.55223977,13.6624599" id="Fill-14"></path>
                    <path d="M55.8633159,13.9406742 C55.8633159,13.866059 55.8633159,13.7912944 55.8633159,13.7166792 C55.8645121,12.5747236 55.8645121,12.5745741 54.7222575,12.7028703 C54.6977347,12.7055618 54.6730623,12.7097486 54.6492872,12.716627 C53.8472118,12.9500423 53.0834159,13.256727 52.6381175,14.0238125 C52.1814549,14.8106359 52.5186436,15.9600679 53.2911122,16.1568485 C54.0438429,16.3485451 54.7373599,16.1457834 55.3984292,15.7057185 C55.955725,15.3348857 55.8565871,14.8255888 55.8624187,14.3140489 C55.8637645,14.1896405 55.8625682,14.0650826 55.8633159,13.9406742 M58.8307256,13.6815398 C58.8304266,15.0259581 58.8160718,16.3706755 58.8389498,17.7147947 C58.8459776,18.1230098 58.7474378,18.2907818 58.3090178,18.2728382 C57.6480981,18.245923 57.0256074,18.0969917 56.5849445,17.6062364 C56.2558304,17.23974 56.0545639,17.2952154 55.6182373,17.4570061 C54.6476423,17.8167737 53.6221701,18.1871579 52.6050715,18.2312691 C50.0123823,18.3440142 48.9052671,16.3524329 49.5039825,14.1124834 C49.9601966,12.4053069 51.3521652,11.6760523 52.9622971,11.3432 C53.7518121,11.1799139 54.5622611,11.098869 55.3674766,11.0383097 C55.7634303,11.0085533 55.9081747,10.8696406 55.8576338,10.4938733 C55.7688133,9.83265458 55.7843644,9.13524974 55.5696402,8.51799262 C55.183705,7.40923255 53.6656832,7.03077379 52.7611802,7.77916814 C52.5857823,7.92436113 52.5319517,8.2814372 52.5214846,8.54475837 C52.5081765,8.88104986 52.5851841,9.22302346 52.6424539,9.55946448 C52.7252931,10.0461825 52.4618224,10.3998194 52.0624296,10.4659113 C51.486293,10.5613111 50.8220837,10.6438513 50.3053103,10.4457249 C49.6612874,10.1987024 49.5998308,9.46944781 49.6708573,8.82796694 C49.7946676,7.71098276 51.0706014,6.47601994 52.2188372,6.31572448 C52.3375635,6.29927626 52.4565889,6.26981898 52.569334,6.22959558 C53.5927128,5.86459446 54.6391192,5.81599743 55.700927,6.00231098 C57.6123606,6.33800435 58.8205577,7.75599109 58.8298285,9.64798585 C58.8364078,10.9924042 58.8311742,12.336972 58.8307256,13.6815398" id="Fill-16"></path>
                    <path d="M85.8571223,12.4384127 C85.8571223,14.2064476 85.8442628,15.9746321 85.8665426,17.7423679 C85.8719257,18.1700219 85.7389941,18.3080374 85.3218072,18.2693093 C84.9514231,18.2350671 84.5753568,18.2676645 84.201982,18.2600385 C83.5027828,18.2458332 83.1431647,17.9917829 82.9822712,17.2982658 C82.8765539,16.8423508 82.8316951,16.3631093 82.8287045,15.8940358 C82.8139011,13.5782749 82.8236205,11.2622149 82.8219757,8.94645399 C82.8213776,7.90453354 82.6787266,7.73122904 81.6344137,7.59246581 C81.2066102,7.53564466 80.9586906,7.34783581 80.9174205,6.90642519 C80.868973,6.38935273 81.2475813,6.21126329 81.6196103,6.12274192 C81.9750415,6.03825784 82.3615749,6.08027558 82.734501,6.07519158 C83.4562792,6.06532265 84.1782068,6.06502359 84.899985,6.05395842 C85.6035205,6.04319231 85.8503935,6.28393454 85.8542812,7.05969277 C85.8631034,8.85254956 85.8571223,10.6454064 85.8571223,12.4384127" id="Fill-18"></path>
                    <path d="M84.0397576,0.981624114 C84.8168616,0.965175887 85.4459315,1.65316038 85.4595387,2.53463585 C85.473744,3.44930683 84.7769373,4.17542131 83.8522478,4.209514 C82.9789965,4.24181234 82.2492933,3.66418049 82.2156492,2.94315001 C82.1374453,1.26677657 82.6377705,1.04756655 84.0397576,0.981624114" id="Fill-21"></path>
                </g>
                <g id="Group" transform="translate(16.000000, 0.000000)" fill="#90288E">
                    <path d="M49.2368147,44.4443756 C48.8129198,44.0954872 48.5835436,43.8412125 48.3003246,43.6840415 C46.2284686,42.532803 44.1317143,41.4260702 42.0760423,40.2477547 C41.4461134,39.8867283 40.8715835,39.7749968 40.5071335,40.4186198 C40.1959038,40.9676289 39.6409813,41.5847974 40.3888662,42.3049829 C42.2089374,44.0572059 43.9804567,45.8601594 45.7883899,47.6251429 C45.9359127,47.7692423 46.3514043,47.9024486 46.4083594,47.8370903 C47.3448495,46.7602356 48.2436808,45.6507019 49.2368147,44.4443756 M34.1602268,30.6248444 C31.0292562,30.5790936 28.2932362,33.1517181 28.2163624,36.2135957 C28.1369989,39.3772453 30.7955227,42.0687595 34.0067905,42.0749841 C37.1250006,42.0815199 39.8706688,39.4668794 39.9232666,36.441727 C39.9749308,33.4697948 37.2003182,30.6693502 34.1602268,30.6248444 M53.3568731,36.4081142 C53.40418,45.6111757 46.5686427,53.4890212 37.5451607,54.9057387 C29.455679,56.175867 22.8162163,53.5683848 17.9383136,46.8679211 C16.8527445,45.3768197 16.9405113,45.1654948 18.6681472,44.4456206 C21.2799867,43.3572504 23.3624244,41.713024 24.7894125,39.1985995 C28.238771,33.1212176 31.7718502,27.0914539 35.2626023,21.0374143 C36.0167118,19.7299384 35.9862113,19.7417651 37.2012519,20.5210842 C37.6488002,20.8077268 38.1651302,21.0050464 38.6721233,21.1774676 C41.2901874,22.0660283 43.8774397,23.0762799 46.7454211,22.8073774 C47.1939031,22.7653614 47.7998673,23.0862392 48.1422199,23.4295255 C51.1689285,26.4671272 53.6279541,31.9267181 53.3568731,36.4081142" id="Fill-1"></path>
                    <path d="M21.2454402,28.281814 C23.8071716,23.8499035 26.3978474,19.3694411 28.9875896,14.888045 C31.4491051,10.6285556 33.9037735,6.36502033 36.3789831,2.11331174 C36.6301455,1.68194741 36.9868147,1.30753811 37.3201416,0.929394055 C38.0281892,0.126421494 39.0135423,0.190223577 39.7200337,0.642129065 C40.1741178,0.932817581 40.4240352,1.83787348 40.4343058,2.47309324 C40.4719646,4.76623349 40.6804884,7.00335239 41.5170738,9.16888847 C42.9082705,12.7688821 45.3934394,15.2313313 48.9953004,16.5861141 C49.3220916,16.7090498 49.6435918,16.8469245 49.9501531,17.0837703 C47.4098965,17.525094 44.9468248,17.6667035 42.3583276,17.0800356 C39.5071526,16.434234 37.1461643,15.1877591 35.2003563,13.0869588 C34.6516584,12.4943775 34.4811045,12.8385976 34.2218502,13.2895694 C32.9069049,15.5799085 31.5848012,17.8658905 30.2626975,20.1518725 C27.3296691,25.2230488 24.3188332,30.2506529 21.4872656,35.3775394 C19.4813904,39.0099009 16.3532209,40.4172815 12.4631612,40.2171608 C7.97491806,39.9862284 4.28404535,38.0205018 1.73631923,34.2452858 C-0.11767594,31.4980615 -0.612219893,28.512124 0.866743521,25.4141438 C2.09921303,22.8321824 5.00983295,21.2909731 7.87719195,21.4979408 C8.62258702,21.5517835 9.4037735,21.1667924 10.142944,21.2408651 C13.0846869,21.5349771 15.7864717,22.4095325 17.8443223,24.721969 C18.8925438,25.8999733 20.0216851,27.0060836 21.2454402,28.281814" id="Fill-5"></path>
                </g>
            </g>
        </g>
    </g>
</svg>