<?xml version="1.0" encoding="UTF-8"?>
<svg width="100px" height="100px" viewBox="0 0 100 100" version="1.1" xmlns="http://www.w3.org/2000/svg" xmlns:xlink="http://www.w3.org/1999/xlink">
    <!-- Generator: Sketch 45 (43475) - http://www.bohemiancoding.com/sketch -->
    <title>apple-music</title>
    <desc>Created with Sketch.</desc>
    <defs>
        <linearGradient x1="48.3490825%" y1="0%" x2="48.3490825%" y2="100%" id="linearGradient-1">
            <stop stop-color="#F8228D" offset="0%"></stop>
            <stop stop-color="#EC0000" offset="52.757212%"></stop>
            <stop stop-color="#FF5D39" offset="100%"></stop>
        </linearGradient>
    </defs>
    <g id="default---square-logos" stroke="none" stroke-width="1" fill="none" fill-rule="evenodd">
        <g id="apple-music">
            <g id="Group" transform="translate(5.000000, 5.000000)">
                <path d="M20.6524845,0 C9.21102484,0 0,9.21102484 0,20.6524845 L0,20.6524845 L0,69.347236 C0,80.7889752 9.21102484,90 20.6524845,90 L20.6524845,90 L69.347236,90 C80.7889752,90 90,80.7889752 90,69.347236 L90,69.347236 L90,20.6524845 C90,9.21102484 80.7889752,0 69.347236,0 L69.347236,0 L20.6524845,0 Z" id="Fill-1" fill="url(#linearGradient-1)"></path>
                <path d="M60.6120165,52.3261639 L60.6120165,30.2969723 C60.6120165,28.1445688 60.8862099,27.0849217 59.7867471,26.9100511 L33.1347223,33.20621 C33.1347511,33.2141497 33.1347656,33.2221191 33.1347656,33.2301186 C31.8074293,33.5698738 32.2877363,34.6189456 32.2877363,35.2571177 L32.2877363,36.8008786 L32.2877363,67.2363281 L32.1675204,67.2363281 C32.1679934,67.2998381 32.1679685,67.3378219 32.1679685,67.3472453 C32.1679685,67.6747337 31.3750638,74.0917969 23.7636917,74.0917969 L22.0976681,74.0917969 C14.0625,73.8929695 14.0625,67.3373656 14.0625,67.3373656 C14.0625,67.3439521 14.0625,60.6026938 22.0976681,60.6026938 C22.4981712,60.6026938 21.6440347,60.6026938 23.7636917,60.6026938 C27.9831901,60.6026938 28.6147102,59.169861 28.6147094,56.6894531 C28.6272987,56.6894531 28.6398435,56.689584 28.6523438,56.6898448 L28.6523438,31.6104067 L28.6523438,20.1749353 C28.6523438,18.9835691 29.3563956,17.8561315 30.2248876,17.6572463 L62.6755031,10.2260344 C63.5450107,10.0269166 64.2480469,10.816589 64.2480469,11.9892975 L64.2480469,23.7327563 C64.2480469,24.033412 64.2017522,24.3304337 64.1182614,24.609375 L64.2480469,24.609375 L64.2480469,60.7324219 L64.2275731,60.7324219 C64.2483418,61.318526 64.2480466,61.6897886 64.2480466,61.7222453 C64.2480466,62.0497337 63.0573681,68.4667969 55.8437699,68.4667969 L54.1777463,68.4667969 C46.1425781,68.2679695 46.1425781,61.7123656 46.1425781,61.7123656 C46.1425781,61.7189521 46.1425781,54.9776938 54.1777463,54.9776938 C54.5782494,54.9776938 53.7241128,54.9776938 55.8437699,54.9776938 C59.2859848,54.9776938 60.3403657,54.0241298 60.6120165,52.3261639 Z" id="Rectangle-4" fill="#FFFFFF"></path>
            </g>
        </g>
    </g>
</svg>