<?xml version="1.0" encoding="UTF-8"?>
<svg width="100px" height="100px" viewBox="0 0 100 100" version="1.1" xmlns="http://www.w3.org/2000/svg" xmlns:xlink="http://www.w3.org/1999/xlink">
    <!-- Generator: Sketch 45 (43475) - http://www.bohemiancoding.com/sketch -->
    <title>aspiro</title>
    <desc>Created with Sketch.</desc>
    <defs></defs>
    <g id="default---square-logos" stroke="none" stroke-width="1" fill="none" fill-rule="evenodd">
        <g id="aspiro" fill="#025C7F">
            <g id="Page-1" transform="translate(1.000000, 39.000000)">
                <path d="M37.4359991,21.5599995 C38.0399731,18.5073975 38.641693,15.4543056 39.248705,12.4022917 C39.550545,10.8848597 39.875219,9.37193577 40.164417,7.85215181 C40.375509,6.74269383 41.015841,6.07599985 42.089333,5.74956186 C43.3174689,5.37608387 44.5725549,5.26985187 45.9095689,5.21595187 C45.8586089,5.55581586 45.8141169,5.85265786 45.7572769,6.23201585 C46.8191068,5.60912786 47.9192548,5.29934987 49.0653648,5.14313787 C50.8644487,4.89794188 52.6433447,4.99290388 54.3957807,5.48378586 C54.5675746,5.53190386 54.7360366,5.59579986 54.9012646,5.66371386 C56.1695806,6.18536785 56.4826906,6.70006383 56.2540566,8.0457018 C56.0330666,9.34665177 55.7608226,10.6390757 55.5065126,11.9343417 C55.2748406,13.1137717 54.4778067,13.7821317 53.4231307,14.2055896 C51.7052887,14.8954116 49.9010108,15.1323756 48.0677248,15.2041116 C47.6655328,15.2198896 47.2622628,15.2064636 46.8019568,15.2064636 C46.9188708,14.6113096 47.0306888,14.0421257 47.1341768,13.5152777 C47.6891508,13.4135537 48.2130588,13.3659257 48.7062928,13.2167697 C49.6251408,12.9388417 50.1833488,12.2985097 50.3683728,11.3479097 C50.5428127,10.4517977 50.7146067,9.55509776 50.8887527,8.65888779 C51.0255607,7.9551498 50.8465147,7.58755181 50.1777628,7.31011382 C49.2879228,6.94094783 48.3547668,6.99269183 47.4283728,7.10666582 C47.0765528,7.14998182 46.7251248,7.25552782 46.3925129,7.38233982 C45.7653129,7.62155781 45.3670409,8.0175758 45.2272929,8.74708778 C44.5563849,12.2505877 43.8231489,15.7421316 43.1330329,19.2420055 C42.9798589,20.0187535 42.5838409,20.5926415 41.848841,20.8285275 C41.016037,21.0956755 40.147561,21.2512995 39.295255,21.4584715 C39.195883,21.4825795 39.101019,21.5256995 39.003999,21.5599995 L37.4359991,21.5599995 Z" id="Fill-1"></path>
                <path d="M97.9999976,9.01599978 C97.8082116,9.84939176 97.5622316,10.6746497 97.4367916,11.5178417 C97.2327556,12.8902337 96.4716876,13.7409717 95.2087616,14.2348916 C93.6867237,14.8301436 92.0995157,15.0770056 90.4847698,15.1836296 C89.8903998,15.2228296 89.2913258,15.1899016 88.6414878,15.1899016 C88.7559518,14.6052336 88.8672798,14.0364417 88.9579298,13.5735877 C89.6603938,13.3931697 90.3046458,13.2850757 90.9044057,13.0590877 C91.6362697,12.7833157 92.0688417,12.2222657 92.2070217,11.4208217 C92.3951817,10.3291017 92.6185237,9.24267377 92.8590157,8.1611458 C92.9666197,7.67731981 92.8111917,7.31785582 92.3895957,7.15899782 C90.8203218,6.56815584 89.2683938,6.56394184 87.7959438,7.46603182 C87.3651358,7.73004381 87.2140198,8.1773158 87.1201358,8.66114179 C86.6976579,10.8368397 86.2579319,13.0090097 85.8153639,15.2279256 C84.5913439,15.1890196 83.3665399,15.2284156 82.235914,14.6572716 C81.307266,14.1881456 81.095684,13.3531857 81.211912,12.4214017 C81.32275,11.5335217 81.51679,10.6559317 81.680058,9.77481376 C81.748168,9.40672577 81.843816,9.04353778 81.905262,8.67446979 C82.090188,7.56363981 82.741692,6.82903183 83.7406059,6.37225384 C85.0915359,5.75446186 86.5297839,5.48182586 87.9944918,5.34384187 C90.5566038,5.10236987 93.1092097,5.11432587 95.6182056,5.78493986 C96.5521456,6.03454585 97.4326756,6.39547984 97.9999976,7.25199982 L97.9999976,9.01599978 Z" id="Fill-3"></path>
                <path d="M0,12.2499997 C0.0342019992,12.2195217 0.0874159978,12.1953157 0.0996659975,12.1577817 C0.469909988,11.0248037 1.33181997,10.4397437 2.39972594,10.0781238 C3.8848179,9.57518776 5.42674987,9.43935977 6.97740383,9.39761177 C8.44426779,9.35811777 9.91279775,9.34831777 11.3799557,9.36781977 C11.8133117,9.37350377 11.9608017,9.23512777 12.0358697,8.82264578 C12.2405917,7.69819381 12.0253837,7.33725982 10.8927977,7.15605782 C10.4119117,7.07912782 9.91916775,7.04708183 9.43161777,7.04512183 C6.86803583,7.03453783 4.30425789,7.04022183 1.74057796,7.04022183 L1.18070397,7.04022183 C1.28713197,6.48691384 1.36964797,5.97251185 1.49606796,5.46918386 C1.52291996,5.36216787 1.70960996,5.22134187 1.82309395,5.22104787 C4.58228389,5.21310987 7.34157182,5.21320787 10.1007617,5.23163187 C11.7014937,5.24241187 13.3054597,5.31218787 14.8441576,5.79375986 C15.5011496,5.99946185 16.1403056,6.31835384 16.7236016,6.68693183 C17.2877876,7.04335783 17.4973116,7.63125981 17.3618756,8.31343779 C17.1143276,9.56009576 16.8906916,10.8117517 16.6224656,12.0539017 C16.4364616,12.9152237 15.9150036,13.5401697 15.1277696,13.9467717 C13.7852677,14.6401216 12.3316337,14.9222636 10.8519317,15.0816116 C9.91534575,15.1824536 8.97111578,15.2123436 7.9485838,15.2794736 C8.0799038,14.6155236 8.1941718,14.0379117 8.30559779,13.4746077 C10.6508357,13.2343117 11.4594337,12.5734977 11.5814437,10.7865657 C9.87291176,10.7843117 8.1646738,10.6978757 6.50229984,11.2124737 C5.75044386,11.4451257 5.30268187,11.9154277 5.19360787,12.7365697 C5.08453387,13.5569277 4.88177188,14.3648396 4.70850788,15.2366476 C2.97733793,15.0327096 1.21578797,15.0547596 0,13.5239997 C0,13.0993657 0,12.6746337 0,12.2499997" id="Fill-5"></path>
                <path d="M66.1499984,0 C65.9732064,0.990583975 65.7970024,1.98136395 65.6191324,2.97175193 C65.5903204,3.13188392 65.5540604,3.29054592 65.5126064,3.49242591 C63.5845544,3.61384791 61.5999565,3.58709391 59.8934825,4.94566788 C60.1822885,3.8550259 60.3998485,2.73743393 60.7959645,1.68726596 C60.9496285,1.27987997 61.4581505,0.903853978 61.8919965,0.727649982 C62.6225864,0.430709989 63.4228544,0.305857992 64.1930364,0.105545997 C64.2924084,0.079673998 64.3870764,0.0355739991 64.4839984,0 L66.1499984,0 Z" id="Fill-7"></path>
                <path d="M19.0724655,15.178073 C19.1873215,14.583311 19.2969835,14.0149111 19.4107615,13.4257351 C21.3194095,13.4257351 23.1960114,13.4363191 25.0724174,13.4221091 C26.3936533,13.4121131 27.7147913,13.3764411 29.0353413,13.3331251 C29.3076833,13.3241091 29.5810053,13.2442391 29.8473693,13.1726991 C30.4991672,12.9976711 30.9527112,12.6382071 31.0128832,11.9052651 C31.0339532,11.6479171 31.1098052,11.3948811 31.1737012,11.0743231 C30.9759372,11.0743231 30.8057112,11.0762831 30.6353872,11.0740291 C28.2530073,11.0423751 25.8686674,11.0546251 23.4892274,10.9529991 C22.6955254,10.9190911 21.8939835,10.6511591 21.1334055,10.3839131 C20.4646535,10.1490071 20.3300995,9.73427116 20.3446035,9.03131718 C20.3727295,7.66735321 21.0802895,6.82906123 22.2823574,6.30632924 C23.6932634,5.69284926 25.1843334,5.36690127 26.6983353,5.32721127 C30.2709253,5.23362127 33.8463572,5.24567527 37.4207111,5.21656927 C37.4507971,5.21627527 37.4809811,5.23773727 37.5674171,5.27007727 C37.4610871,5.82877526 37.3527971,6.39766524 37.2361771,7.01045923 C37.0382171,7.01045923 36.8633851,7.01045923 36.6886511,7.01045923 C34.0432392,7.01045923 31.3978272,6.99762123 28.7526113,7.02035723 C28.1553013,7.02545323 27.5522093,7.11933722 26.9642093,7.23527122 C26.2665473,7.37286322 25.7821334,7.75947321 25.7219614,8.53925919 C25.7034394,8.77984918 25.6280774,9.01612718 25.5673174,9.30973517 L26.0692734,9.30973517 C28.0614173,9.30973517 30.0542473,9.28111917 32.0455092,9.32306317 C32.9039892,9.34119317 33.7784432,9.42419917 34.6123251,9.61990516 C36.4612911,10.0538492 36.9473711,11.8852731 35.6371111,13.3039211 C35.0637131,13.9248491 34.3225391,14.256971 33.5386372,14.501579 C31.7444532,15.061453 29.8903913,15.190617 28.0276073,15.201691 C25.1537574,15.218743 22.2797114,15.206591 19.4056655,15.205415 C19.3107035,15.205317 19.2156435,15.190225 19.0724655,15.178073" id="Fill-9"></path>
                <path d="M66.2426476,15.2811102 C66.7799815,12.6758783 67.2899735,10.1534563 67.8250535,7.63642441 C67.9991015,6.81773243 68.4972355,6.26491444 69.2991695,5.94847245 C70.6404955,5.41917447 72.0361134,5.27168447 73.5232634,5.20063447 C73.4727934,5.52805246 73.4297714,5.80637246 73.3770474,6.14800045 C75.7068993,5.35106447 78.0847713,5.28099447 80.5384952,5.23248447 C80.4139372,5.86889645 80.3005512,6.44866444 80.1954952,6.98511643 C78.9460932,7.07517842 77.7436333,7.14181842 76.5459753,7.25755642 C76.0304953,7.30743842 75.5159953,7.42827242 75.0162933,7.57056841 C73.5987234,7.9742304 72.7402434,8.87788838 72.5050434,10.3718003 C72.3658834,11.2552703 72.1424434,12.1261963 71.9392894,12.9985923 C71.7594594,13.7703423 71.2741634,14.2776882 70.5418095,14.5771762 C69.1873515,15.1310722 67.7638035,15.2175082 66.2426476,15.2811102" id="Fill-11"></path>
                <path d="M65.1692536,5.28061227 C64.6669056,7.75932621 64.1704376,10.1670881 63.6939616,12.5787701 C63.4696396,13.7142961 62.8359716,14.418524 61.7105397,14.745256 C60.4784837,15.102858 59.2258477,15.213304 57.8969678,15.268086 C58.1029638,14.24036 58.2994538,13.2558521 58.4977078,12.2718341 C58.7937657,10.8027161 59.0973697,9.33516617 59.3857837,7.86467621 C59.5902117,6.82264223 60.1825237,6.16790425 61.2046637,5.84430826 C62.4785657,5.44094027 63.7804956,5.32020427 65.1692536,5.28061227" id="Fill-13"></path>
            </g>
        </g>
    </g>
</svg>