<?xml version="1.0" encoding="UTF-8"?>
<svg width="100px" height="100px" viewBox="0 0 100 100" version="1.1" xmlns="http://www.w3.org/2000/svg" xmlns:xlink="http://www.w3.org/1999/xlink">
    <!-- Generator: Sketch 45.1 (43504) - http://www.bohemiancoding.com/sketch -->
    <title>awa</title>
    <desc>Created with Sketch.</desc>
    <defs></defs>
    <g id="default---square-logos" stroke="none" stroke-width="1" fill="none" fill-rule="evenodd">
        <g id="awa" fill="#000000">
            <g id="Page-1" transform="translate(1.000000, 33.000000)">
                <path d="M41.5980308,34.1901623 L35.8996704,34.1901623 C32.1005735,22.7934415 28.3020465,11.3967208 24.5029496,0 L31.3409821,0 C33.6949748,7.39476227 36.0483976,14.7889547 38.4023903,22.183717 C38.6667942,22.1632029 38.9311981,22.1426888 39.195602,22.1221747 C41.3256492,14.7484963 43.4562661,7.37424817 45.586883,0 L52.4249155,0 C54.8085396,7.43522062 57.1921638,14.8710111 59.5763578,22.3062317 L60.2960607,22.2475386 C62.4209793,14.8316924 64.5458979,7.4158462 66.6708165,0 L73.5088489,0 C69.9000773,11.3967208 66.2907358,22.7934415 62.6819642,34.1901623 L56.9836038,34.1901623 C54.4347272,26.4985154 51.8864204,18.8068686 49.3375438,11.1146519 C49.0965032,11.1511214 48.8554626,11.1870211 48.6144219,11.2234906 C46.2758148,18.8792378 43.9366379,26.5344151 41.5980308,34.1901623" id="Fill-1"></path>
                <path d="M86.0483189,18.8347906 C85.2078107,16.251154 84.4886776,14.0418996 83.5535767,11.1682165 C82.6709007,14.1211069 82.0053322,16.3503054 81.2628358,18.8347906 L86.0483189,18.8347906 Z M80.9169453,0 L86.6153057,0 L98.0120265,34.1394469 L91.173994,34.1901623 L88.039326,24.9867404 L79.2615716,24.9867404 L76.358257,34.1901623 L70.0900606,34.1901623 L80.9169453,0 Z" id="Fill-3"></path>
                <path d="M15.9584862,18.8482387 C15.117978,16.2646021 14.3988449,14.0553478 13.463744,11.1816646 C12.581068,14.134555 11.9154995,16.3637536 11.1730031,18.8482387 L15.9584862,18.8482387 Z M10.8271127,0.0134481305 L16.525473,0.0134481305 L27.9221938,34.152895 L21.0841613,34.2036104 L17.9494933,25.0001886 L9.17173897,25.0001886 L6.26842435,34.2036104 L0.000227934415,34.2036104 L10.8271127,0.0134481305 Z" id="Fill-6"></path>
            </g>
        </g>
    </g>
</svg>