<?xml version="1.0" encoding="UTF-8"?>
<svg width="100px" height="100px" viewBox="0 0 100 100" version="1.1" xmlns="http://www.w3.org/2000/svg" xmlns:xlink="http://www.w3.org/1999/xlink">
    <!-- Generator: Sketch 45 (43475) - http://www.bohemiancoding.com/sketch -->
    <title>deezer</title>
    <desc>Created with Sketch.</desc>
    <defs></defs>
    <g id="default---square-logos" stroke="none" stroke-width="1" fill="none" fill-rule="evenodd">
        <g id="deezer">
            <rect id="Rectangle" fill="#222222" x="5" y="5" width="90" height="90" rx="8"></rect>
            <g id="Deezer_logo" transform="translate(17.000000, 18.000000)" fill-rule="nonzero">
                <g id="g12" transform="translate(32.500000, 18.000000) scale(-1, 1) rotate(-180.000000) translate(-32.500000, -18.000000) ">
                    <polygon id="path14" fill="#ED1C24" points="0 0.00245402477 11.7532801 0.00245402477 11.7532801 3.56422192 0 3.56422192"></polygon>
                    <polygon id="path16" fill="#ED1C24" points="0 4.63171686 11.7532801 4.63171686 11.7532801 8.19397481 0 8.19397481"></polygon>
                    <polygon id="path18" fill="#ED1C24" points="0 9.26146107 11.7532801 9.26146107 11.7532801 12.823719 0 12.823719"></polygon>
                    <polygon id="path20" fill="#F6836C" points="0 13.8921476 11.7532801 13.8921476 11.7532801 17.452923 0 17.452923"></polygon>
                    <polygon id="path22" fill="#F6836C" points="0 18.5229473 11.7532801 18.5229473 11.7532801 22.0837226 0 22.0837226"></polygon>
                    <polygon id="path24" fill="#FFF200" points="13.1781029 0.00245402477 24.931873 0.00245402477 24.931873 3.56422192 13.1781029 3.56422192"></polygon>
                    <polygon id="path26" fill="#FFF200" points="13.1781029 4.63171686 24.931873 4.63171686 24.931873 8.19397481 13.1781029 8.19397481"></polygon>
                    <polygon id="path28" fill="#FFF200" points="13.1781029 9.26146107 24.931873 9.26146107 24.931873 12.823719 13.1781029 12.823719"></polygon>
                    <polygon id="path30" fill="#EC008C" points="26.3562057 0.00245402477 38.1099758 0.00245402477 38.1099758 3.56422192 26.3562057 3.56422192"></polygon>
                    <polygon id="path32" fill="#EC008C" points="26.3562057 4.63171686 38.1099758 4.63171686 38.1099758 8.19397481 26.3562057 8.19397481"></polygon>
                    <polygon id="path34" fill="#EC008C" points="26.3562057 9.26146107 38.1099758 9.26146107 38.1099758 12.823719 26.3562057 12.823719"></polygon>
                    <polygon id="path36" fill="#F680C5" points="26.3562057 13.8921476 38.1099758 13.8921476 38.1099758 17.452923 26.3562057 17.452923"></polygon>
                    <polygon id="path38" fill="#F680C5" points="26.3562057 18.5229473 38.1099758 18.5229473 38.1099758 22.0837226 26.3562057 22.0837226"></polygon>
                    <polygon id="path40" fill="#F680C5" points="26.3562057 23.1527418 38.1099758 23.1527418 38.1099758 26.7145097 26.3562057 26.7145097"></polygon>
                    <polygon id="path42" fill="#F680C5" points="26.3562057 27.781908 38.1099758 27.781908 38.1099758 31.344166 26.3562057 31.344166"></polygon>
                    <polygon id="path44" fill="#B2DB18" points="39.5341829 0.00245402477 51.287463 0.00245402477 51.287463 3.56422192 39.5341829 3.56422192"></polygon>
                    <polygon id="path46" fill="#B2DB18" points="39.5341829 4.63171686 51.287463 4.63171686 51.287463 8.19397481 39.5341829 8.19397481"></polygon>
                    <polygon id="path48" fill="#B2DB18" points="39.5341829 9.26146107 51.287463 9.26146107 51.287463 12.823719 39.5341829 12.823719"></polygon>
                    <polygon id="path50" fill="#D9ED84" points="39.5341829 13.8921476 51.287463 13.8921476 51.287463 17.452923 39.5341829 17.452923"></polygon>
                    <polygon id="path52" fill="#D9ED84" points="39.5341829 18.5229473 51.287463 18.5229473 51.287463 22.0837226 39.5341829 22.0837226"></polygon>
                    <polygon id="path54" fill="#59CAF5" points="52.7122858 0.00245402477 64.4665459 0.00245402477 64.4665459 3.56422192 52.7122858 3.56422192"></polygon>
                    <polygon id="path56" fill="#59CAF5" points="52.7122858 4.63171686 64.4665459 4.63171686 64.4665459 8.19397481 52.7122858 8.19397481"></polygon>
                    <polygon id="path58" fill="#59CAF5" points="52.7122858 9.26294369 64.4665459 9.26294369 64.4665459 12.8247116 52.7122858 12.8247116"></polygon>
                    <polygon id="path60" fill="#B2E6FA" points="52.7122858 13.8921476 64.4665459 13.8921476 64.4665459 17.4544056 52.7122858 17.4544056"></polygon>
                    <polygon id="path62" fill="#B2E6FA" points="52.7122858 18.5229473 64.4665459 18.5229473 64.4665459 22.0852052 52.7122858 22.0852052"></polygon>
                    <polygon id="path64" fill="#B2E6FA" points="52.7122858 23.1536213 64.4665459 23.1536213 64.4665459 26.7143966 52.7122858 26.7143966"></polygon>
                    <polygon id="path66" fill="#B2E6FA" points="52.7122858 27.7844209 64.4665459 27.7844209 64.4665459 31.3451963 52.7122858 31.3451963"></polygon>
                    <polygon id="path68" fill="#B2E6FA" points="52.7122858 32.4140897 64.4665459 32.4140897 64.4665459 35.9758577 52.7122858 35.9758577"></polygon>
                </g>
                <g id="Group" transform="translate(32.500000, 52.442623) scale(-1, 1) rotate(-180.000000) translate(-32.500000, -52.442623) translate(0.000000, 40.442623)" fill="#FFFFFF">
                    <path d="M3.98973463,2.68463628 L5.59995357,2.68463628 C7.96398245,2.68463628 8.35107404,3.93048199 8.35107404,7.89104016 L8.35107404,15.8106615 C8.35107404,19.2287491 8.05844687,20.3780784 5.34521477,20.3780784 L3.98973463,20.3780784 L3.98973463,2.68463628 Z M0.87482722,23.0604575 L6.01482019,23.0604575 C11.1888174,23.0604575 11.6771889,21.249804 11.6771889,14.5425371 L11.6771889,7.68774745 C11.6771889,1.77916294 10.488872,0.00143135214 5.44422286,0.00143135214 L0.87482722,0.00143135214 L0.87482722,23.0604575 L0.87482722,23.0604575 Z" id="path70"></path>
                    <polyline id="path72" points="12.9224484 23.0604575 21.6476922 23.0604575 21.6476922 20.3194504 16.0385283 20.3194504 16.0385283 13.0890749 21.2317263 13.0890749 21.2317263 10.3878615 16.0385283 10.3878615 16.0385283 2.74045749 21.6476922 2.74045749 21.6476922 0.00143135214 12.9224484 0.00143135214 12.9224484 23.0604575"></polyline>
                    <polyline id="path74" points="22.8944173 23.0604575 31.6190748 23.0604575 31.6190748 20.3194504 26.010424 20.3194504 26.010424 13.0890749 31.203915 13.0890749 31.203915 10.3878615 26.010424 10.3878615 26.010424 2.74045749 31.6190748 2.74045749 31.6190748 0.00143135214 22.8944173 0.00143135214 22.8944173 23.0604575"></polyline>
                    <polyline id="path76" points="44.2902051 23.0604575 53.0155222 23.0604575 53.0155222 20.3194504 47.4062851 20.3194504 47.4062851 13.0890749 52.6007288 13.0890749 52.6007288 10.3878615 47.4062851 10.3878615 47.4062851 2.74045749 53.0155222 2.74045749 53.0155222 0.00143135214 44.2902051 0.00143135214 44.2902051 23.0604575"></polyline>
                    <polyline id="path78" points="32.8651404 2.70095686 40.0440698 20.358951 32.8651404 20.358951 32.8651404 23.0589918 43.0436265 23.0589918 43.0436265 20.358951 35.9884756 2.70095686 43.0436265 2.70095686 43.0436265 0 32.8651404 0.00143135214 32.8651404 2.70095686"></polyline>
                    <path d="M57.3781807,12.8807255 L58.3448104,12.8807255 C60.8680144,12.8807255 61.2527608,13.1921869 61.2527608,16.6408344 C61.2527608,20.0589221 60.9464294,20.3603434 58.9684661,20.3603434 L57.3781807,20.3603434 L57.3781807,12.8807255 Z M54.2621007,23.0589918 L59.2476821,23.0589918 C63.9108093,23.0589918 64.2376606,21.8710413 64.2376606,16.8249265 C64.2376606,13.7280472 63.9452533,12.2136851 61.3260459,11.4158308 L61.3260459,11.4158308 C63.4974817,11.1926046 64.2413248,10.0589583 64.2413248,7.88818204 L64.2413248,2.8741514 C64.2413248,2.04253473 64.2471877,0.959865491 64.4421259,0.00143135214 L61.3260459,0.00143135214 C61.0050574,0.576833159 61.1201149,1.1430781 61.1201149,2.06973081 L61.1201149,7.27496945 C61.1201149,9.44688159 60.7075201,9.97218877 58.5991095,9.97218877 L57.3781807,9.97218877 L57.3781807,0 L54.2621007,0.00143135214 L54.2621007,23.0589918 L54.2621007,23.0589918 Z" id="path80"></path>
                </g>
            </g>
        </g>
    </g>
</svg>