<?xml version="1.0" encoding="UTF-8"?>
<svg width="100px" height="100px" viewBox="0 0 100 100" version="1.1" xmlns="http://www.w3.org/2000/svg" xmlns:xlink="http://www.w3.org/1999/xlink">
    <!-- Generator: Sketch 54 (76480) - https://sketchapp.com -->
    <title>facebook</title>
    <desc>Created with Sketch.</desc>
    <g id="facebook" stroke="none" stroke-width="1" fill="none" fill-rule="evenodd">
        <g id="f-ogo_RGB_HEX-100" transform="translate(5.000000, 5.000000)" fill-rule="nonzero">
            <path d="M85.032,0 L4.932,0 C2.20231864,0.0197808181 -7.16705683e-05,2.23824697 0,4.968 L0,85.068 C0.0197808181,87.7976814 2.23824697,90.0000717 4.968,90 L48.078,90 L48.078,55.197 L36.378,55.197 L36.378,41.571 L48.078,41.571 L48.078,31.545 C48.078,19.926 55.179,13.59 65.547,13.59 C69.0463236,13.5750982 72.5437549,13.7553781 76.023,14.13 L76.023,26.28 L68.877,26.28 C63.234,26.28 62.136,28.98 62.136,32.895 L62.136,41.571 L75.6,41.571 L73.8,55.197 L62.1,55.197 L62.1,90 L85.032,90 C87.7757506,90 90,87.7757506 90,85.032 L90,4.932 C89.9802192,2.20231864 87.761753,-7.16705683e-05 85.032,0 L85.032,0 Z" id="Path" fill="#4267B2"></path>
            <path d="M62.1,90 L62.1,55.197 L73.8,55.197 L75.6,41.571 L62.1,41.571 L62.1,32.895 C62.1,28.962 63.198,26.28 68.841,26.28 L75.987,26.28 L75.987,14.13 C72.5077549,13.7553781 69.0103236,13.5750982 65.511,13.59 C55.143,13.59 48.042,19.89 48.042,31.545 L48.042,41.571 L36.342,41.571 L36.342,55.197 L48.042,55.197 L48.042,90 L62.1,90 Z" id="f" fill="#FFFFFF"></path>
        </g>
    </g>
</svg>