<?xml version="1.0" encoding="UTF-8"?>
<svg width="100px" height="100px" viewBox="0 0 100 100" version="1.1" xmlns="http://www.w3.org/2000/svg" xmlns:xlink="http://www.w3.org/1999/xlink">
    <!-- Generator: Sketch 45 (43475) - http://www.bohemiancoding.com/sketch -->
    <title>hmv-digital</title>
    <desc>Created with Sketch.</desc>
    <defs>
        <polygon id="path-1" points="3.11513694e-16 17.952298 3.11513694e-16 0.213054438 11.7578689 0.213054438 11.7578689 17.952298"></polygon>
    </defs>
    <g id="default---square-logos" stroke="none" stroke-width="1" fill="none" fill-rule="evenodd">
        <g id="hmv-digital">
            <rect id="Rectangle" fill="#2C2A2C" x="5" y="5" width="90" height="90" rx="8"></rect>
            <g id="Page-1" transform="translate(21.000000, 29.000000)">
                <g id="Group-3" transform="translate(17.624878, 23.996459)" fill="#FEFEFE">
                    <path d="M8.91233838,6.53470482 C8.88608856,6.27595661 8.87333865,5.71083551 8.7645894,5.16483929 C8.49159129,3.79497376 7.66134703,3.0232291 6.40360572,2.90247993 C5.05511505,2.77348082 3.93574779,3.40947643 3.46587604,4.70171749 C3.23675262,5.33133814 3.12312841,6.0310833 3.10137856,6.70382865 C3.0226291,9.14543676 4.050122,10.6034267 5.82423473,10.6724262 C7.72884656,10.7470507 8.86096373,9.33781043 8.91233838,6.53470482 M8.97796292,0.976493248 C9.59970862,0.887243865 10.3238286,0.566246085 10.8109502,0.781494596 C11.2009476,0.953993404 11.5005705,1.77786271 11.5009455,2.31298401 C11.5039455,6.12183267 11.4930705,9.93368131 11.3359466,13.738405 C11.2414473,16.0255142 10.1862046,17.0747569 7.97034489,17.5993783 C6.38373086,17.9751257 4.77799196,18.3816229 3.30687713,17.3211302 C2.56738225,16.7878839 1.83501231,16.1837631 1.28414112,15.469018 C0.76214473,14.7917727 0.670270365,13.9420286 1.52826443,13.3289078 C2.26588433,12.8020365 3.11787844,12.9981601 3.66424966,14.0507778 C4.22037082,15.1225204 5.03449019,15.3816436 6.10923276,15.3786437 C8.25946789,15.3726437 8.88083859,14.6597736 8.67908999,12.4169141 C7.7374715,12.6400376 6.79885299,13.0030351 5.84148461,13.0619097 C3.23862761,13.2220336 1.39176538,11.8859178 0.626770666,9.41055993 C0.0953993404,7.69119682 0.141524021,5.96508375 0.660145435,4.24384566 C1.73976297,0.661120429 5.84860956,-0.619870714 8.97796292,0.976493248" id="Fill-1"></path>
                </g>
                <path d="M29.2534727,6.45824284 C30.4455895,5.39250021 31.7753303,5.00962786 33.2839449,5.0910023 C35.8028024,5.22675136 37.8315384,7.05111375 37.9635375,9.56622135 C38.0782867,11.7468313 38.0066622,13.9375661 38.0070372,16.123801 C38.0070372,16.995295 37.6357898,17.5821659 36.6900463,17.5915409 C35.6370536,17.6024158 35.2988059,16.9656702 35.3108058,16.0068018 C35.3280557,14.5701868 35.3130558,13.1335717 35.3111808,11.6965816 C35.3104308,11.2593346 35.3381807,10.8190877 35.2988059,10.3852157 C35.1593069,8.85522627 34.1100641,7.77223376 32.8440729,7.82098342 C31.6339563,7.8674831 30.6405881,8.89010103 30.5513388,10.346966 C30.4710893,11.6542069 30.5299639,12.9696978 30.5273389,14.2814388 C30.5258389,14.9061844 30.5299639,15.5309301 30.520589,16.1553008 C30.5070891,17.0369197 30.1155918,17.5952908 29.1765983,17.5952908 C28.2477297,17.5956658 27.8269826,17.0665445 27.8224826,16.1703007 C27.8146077,14.6714361 27.8134827,13.1721964 27.8078577,11.6729568 C27.8059827,11.1730852 27.8457325,10.6675887 27.7846079,10.1752171 C27.621484,8.85747626 26.606741,7.82998336 25.5151236,7.82060842 C24.2855071,7.8097335 23.2103895,8.80347663 23.0712655,10.2100919 C22.9793911,11.1385855 23.0442657,12.082454 23.0408907,13.0191975 C23.0371407,14.0811901 23.0506406,15.1435578 23.0281408,16.2051754 C23.0093909,17.0969193 22.561269,17.6091657 21.6327754,17.5911659 C20.8017812,17.575416 20.3439093,17.1066692 20.3409094,16.3000498 C20.3326594,13.9270662 20.1642856,11.5312078 20.4324087,9.18709898 C20.8021562,5.95312134 24.6638795,4.08225927 27.6436089,5.50799942 C28.1461054,5.74837275 28.6077272,6.0738705 29.2534727,6.45824284" id="Fill-4" fill="#E01475"></path>
                <g id="Group-8" transform="translate(0.000000, 19.871488)">
                    <mask id="mask-2" fill="white">
                        <use xlink:href="#path-1"></use>
                    </mask>
                    <g id="Clip-7"></g>
                    <path d="M9.20581135,11.1532479 C9.03031256,10.3762533 8.94368816,9.56175889 8.65906513,8.82338899 C8.14494368,7.49027321 6.97757675,6.86552753 5.53608672,7.00652655 C4.29634529,7.12765072 3.33522694,7.84764574 3.13647831,9.21901126 C2.94447964,10.5431271 2.93097973,11.9384925 3.1244784,13.2607333 C3.33860192,14.7280982 4.3102202,15.4233434 5.68571069,15.5084678 C7.13395067,15.5980921 8.23569305,14.9365967 8.71193976,13.5509813 C8.96956298,12.8002365 9.04118749,11.9857421 9.20581135,11.1532479 M9.08881216,5.66366084 C9.08881216,4.17267115 9.08318719,2.92842975 9.09068714,1.68418835 C9.09593711,0.808944407 9.49755933,0.216823501 10.413303,0.213073527 C11.3166718,0.209323553 11.7527937,0.758319757 11.7527937,1.65718854 C11.7524187,6.51827993 11.7786686,11.3801213 11.715294,16.2404627 C11.708544,16.7365843 11.2274224,17.5724535 10.8569249,17.639203 C10.2513041,17.7475773 9.55568393,17.352705 8.58894061,17.0842069 C8.24019302,17.2248309 7.52957294,17.6212032 6.7679532,17.7989519 C4.13772139,18.4120727 1.73211302,17.1513314 0.687745245,14.6485987 C-0.134624069,12.6787373 -0.197998631,10.6372514 0.382497355,8.6055155 C1.39161538,5.07453991 4.47071909,3.6450498 7.85507069,5.08278986 C8.18994337,5.22528887 8.51431613,5.39216272 9.08881216,5.66366084" id="Fill-6" fill="#FEFEFE" mask="url(#mask-2)"></path>
                </g>
                <path d="M49.8901425,31.3555582 C48.6204013,31.670556 47.4657843,31.9169293 46.3366671,32.249927 C45.5304227,32.4880504 45.1044256,33.1049211 45.2135499,33.9542902 C45.3215491,34.7999094 45.8517955,35.1955316 46.7236644,35.3136558 C48.9391491,35.6144037 50.0870162,34.2906629 49.8901425,31.3555582 M49.672269,29.1340736 C50.0727663,27.6325839 49.393271,26.608466 48.1055299,26.8653392 C47.0851619,27.0689628 45.7520461,26.8428394 45.4051735,28.4515783 C45.2319247,29.2536977 44.3818056,29.3013224 43.6805605,29.0414492 C42.882941,28.7455762 42.6849424,28.057456 43.0149401,27.3558358 C43.3254379,26.6954654 43.7364351,26.0197201 44.2730564,25.5400984 C45.8551704,24.1267332 49.4262707,24.0157339 51.1700087,25.2374755 C52.2361263,25.9844703 52.6456235,27.0697128 52.6602484,28.3162042 C52.6902482,30.8155619 52.7356229,33.3164196 52.6639984,35.8139024 C52.6471235,36.4075233 52.3238757,37.3345169 51.9106286,37.4886408 C51.3916322,37.6821394 50.6352624,37.2373925 49.9400172,37.0577688 C48.7632753,37.2741423 47.4417845,37.7218892 46.1232936,37.7128892 C44.0030582,37.6986393 42.6114429,36.2466494 42.4051943,34.2235384 C42.1850708,32.0639283 43.1364392,30.6771879 45.339924,30.0966919 C46.782539,29.7164445 48.2540288,29.4453214 49.672269,29.1340736" id="Fill-9" fill="#FEFEFE"></path>
                <path d="M11.0411987,5.54272418 C13.5840561,4.75635461 15.6956665,4.78372942 17.5226538,6.61184178 C18.5662716,7.65620956 19.0301434,8.92182581 19.1145178,10.2943163 C19.228892,12.1576784 19.1523926,14.0330405 19.1452676,15.9035275 C19.1418926,16.7300218 18.8268948,17.3690174 17.9531509,17.568141 C16.9414079,17.7987644 16.3117872,17.2242684 16.2709125,15.9099025 C16.2169129,14.1657896 16.2180379,12.4179266 16.2667875,10.6734387 C16.2964123,9.62832093 15.8850402,8.84907631 15.0686708,8.2869552 C13.590056,7.26846224 11.6783193,7.96520742 11.2699471,9.77981988 C11.0145738,10.913812 11.0891983,12.1254287 11.0490736,13.3029205 C11.0175738,14.2374141 11.0423236,15.1734076 11.0310737,16.1082761 C11.0205738,16.9651452 10.6913261,17.577516 9.73545768,17.5917659 C8.69408989,17.6075158 8.32621743,16.988395 8.32809242,16.0295267 C8.33446737,13.0989219 8.32921741,10.1686922 8.32846741,7.23846245 C8.32771742,5.43022495 8.30446758,3.62198746 8.33559236,1.81449995 C8.35584222,0.653132984 8.95958805,-0.113361716 9.74933259,0.0137624048 C10.708576,0.168261337 11.0543236,0.853006602 11.0441986,1.77587522 C11.0314487,2.95336708 11.0411987,4.13160893 11.0411987,5.54272418" id="Fill-11" fill="#E01475"></path>
                <path d="M39.3884527,35.0527326 C40.055198,35.1806067 40.5479446,35.1536069 40.8798173,35.3714804 C41.2435648,35.6103538 41.7258115,36.1188503 41.6748118,36.4304731 C41.6035623,36.8624701 41.1561904,37.4305912 40.7421933,37.5745902 C38.6279579,38.3118351 36.6190968,36.9483445 36.5418473,34.6972351 C36.4582229,32.2695019 36.5227225,29.8365187 36.5227225,27.3555359 C35.7086031,26.900289 34.2644881,27.2407866 34.3559874,25.7737968 C34.4339869,24.5239304 35.5409793,24.7568038 36.5320974,24.5633052 C36.5320974,23.7788106 36.5073476,22.9834411 36.5388474,22.1903216 C36.5752221,21.262578 37.1047184,20.8950805 38.0163371,20.9157054 C38.9219559,20.9359552 39.2099539,21.4647016 39.2339537,22.2398212 C39.2568286,22.9815661 39.2388287,23.724811 39.2388287,24.4534309 C40.1174476,24.9083028 41.5870624,24.2854321 41.6121873,25.8285464 C41.6361871,27.3146611 40.2580716,26.9602886 39.3884527,27.2370367 L39.3884527,35.0527326 Z" id="Fill-13" fill="#FEFEFE"></path>
                <path d="M44.2474441,12.6789248 C44.9134394,11.0060614 45.5771849,9.33244797 46.2469302,7.66145953 C46.5015535,7.02583892 46.7280519,6.37371843 47.0445497,5.76959761 C47.432672,5.03047772 48.2074167,4.87035382 48.8040375,5.24272625 C49.2139097,5.49847448 49.3725336,6.20871957 49.5566573,6.74534086 C49.6211569,6.93321456 49.4460331,7.21783759 49.3485338,7.44433603 C48.0694176,10.4180655 46.7835515,13.3891699 45.5021854,16.3617744 C45.2224373,17.0105199 44.8939396,17.7657647 44.0756952,17.5516411 C43.5008242,17.4012672 42.7954541,16.9388954 42.5625807,16.4273989 C41.1687153,13.3681701 39.8982241,10.2526916 38.5789832,7.15971299 C38.2437356,6.37371843 38.2688604,5.67509826 39.0901047,5.23335131 C39.8693493,4.81410421 40.8079678,5.19922655 41.21559,6.17384481 C41.9112102,7.83770831 42.515706,9.53944654 43.1734515,11.2198099 C43.3695751,11.7208065 43.6163234,12.2019281 43.8398219,12.6920497 L44.2474441,12.6789248 Z" id="Fill-15" fill="#E01475"></path>
                <path d="M55.1872434,28.7996884 C55.1876184,26.4889543 55.1684935,24.1782203 55.1947434,21.8678613 C55.2097433,20.5763702 55.6413653,20.0592488 56.5687339,20.0719987 C57.4979774,20.0847486 57.8913497,20.5756202 57.8962247,21.909861 C57.9130996,26.5935786 57.9164745,31.2772962 57.8928497,35.9606389 C57.8864747,37.2022553 57.1736047,37.8986255 56.253361,37.6526272 C55.3758671,37.4182538 55.1692435,36.7556334 55.1782435,35.9186391 C55.2033683,33.5460305 55.1868684,31.172672 55.1872434,28.7996884" id="Fill-17" fill="#FEFEFE"></path>
                <path d="M16.5061484,31.0668102 C16.5068984,32.691674 16.5057734,34.3165377 16.5076484,35.9414015 C16.5083984,36.8503952 16.2136504,37.5666402 15.2049074,37.6836394 C14.3514133,37.7830138 13.7555424,37.1005185 13.7439175,35.9192766 C13.7120427,32.6699241 13.7289176,29.4198216 13.7345425,26.170094 C13.7360425,25.2423505 14.0697902,24.5684801 15.1321579,24.5752301 C16.1990255,24.58198 16.5031484,25.2686003 16.5046484,26.1922189 C16.5072734,27.8170827 16.5053984,29.4419464 16.5061484,31.0668102" id="Fill-19" fill="#FEFEFE"></path>
                <path d="M31.1817469,30.9945482 C31.1828719,29.3734344 31.1941218,27.7523206 31.1779969,26.1312068 C31.169747,25.2788377 31.3996204,24.6417171 32.3836136,24.5952174 C33.4069815,24.5468428 33.8513534,25.0703392 33.8494784,26.0723322 C33.8427285,29.3768094 33.8408535,32.6812865 33.8644783,35.9857637 C33.8712283,36.9382571 33.5134808,37.6447522 32.5381125,37.6668771 C31.5586193,37.6890019 31.1566221,37.0166315 31.172747,36.0446383 C31.2008718,34.3616499 31.1806219,32.6779115 31.1817469,30.9945482" id="Fill-21" fill="#FEFEFE"></path>
                <path d="M15.0578709,20.0591363 C15.9777395,20.0310115 16.7273593,20.7776313 16.7112345,21.7061249 C16.6962346,22.5884938 16.0613639,23.2308644 15.1756201,23.2604892 C14.2538764,23.291239 13.6313807,22.7343678 13.5683812,21.8223741 C13.4990067,20.8162561 14.1143774,20.0880111 15.0578709,20.0591363" id="Fill-23" fill="#FEFEFE"></path>
                <path d="M34.1083392,21.6451128 C34.125964,22.5627315 33.411219,23.2752266 32.4662255,23.2433518 C31.530607,23.211852 30.9771108,22.7191054 30.8931114,21.7763619 C30.811737,20.8602433 31.521607,20.0802487 32.4212258,20.0532488 C33.3223446,20.026249 34.0910893,20.751869 34.1083392,21.6451128" id="Fill-25" fill="#FEFEFE"></path>
            </g>
        </g>
    </g>
</svg>