<?xml version="1.0" encoding="UTF-8"?>
<svg width="100px" height="100px" viewBox="0 0 100 100" version="1.1" xmlns="http://www.w3.org/2000/svg" xmlns:xlink="http://www.w3.org/1999/xlink">
    <!-- Generator: Sketch 45 (43475) - http://www.bohemiancoding.com/sketch -->
    <title>iheart-radio</title>
    <desc>Created with Sketch.</desc>
    <defs></defs>
    <g id="default---square-logos" stroke="none" stroke-width="1" fill="none" fill-rule="evenodd">
        <g id="iheart-radio">
            <g id="iHeartRadio_Logo_iHR-Vertical-Color" transform="translate(12.000000, 3.000000)">
                <path d="M6.68829295,86.8467401 C9.04132159,86.8467401 10.7226542,85.635804 10.7226542,83.6200881 L10.7226542,83.5755176 C10.7226542,81.646641 9.24262115,80.4823678 6.71047357,80.4823678 L1.86924009,80.4823678 L1.86924009,86.8467401 L6.68829295,86.8467401 Z M0.0989757709,79.7420374 C0.0989757709,79.2490419 0.501784141,78.844978 0.972599119,78.844978 L6.84523128,78.844978 C8.77243392,78.844978 10.3190088,79.4281608 11.3045815,80.4143612 C12.0670925,81.1756167 12.5150991,82.2743943 12.5150991,83.507511 L12.5150991,83.5520815 C12.5150991,86.1300551 10.7670154,87.6303855 8.32505507,88.1022467 L12.2234031,93.1221806 C12.4037775,93.3249449 12.5150991,93.5251982 12.5150991,93.7710683 C12.5150991,94.2418833 12.0670925,94.6459471 11.6197137,94.6459471 C11.2602203,94.6459471 10.9909141,94.4446476 10.7894053,94.1751322 L6.3744163,88.4372577 L1.86924009,88.4372577 L1.86924009,93.7488877 C1.86924009,94.2418833 1.46517621,94.6459471 0.972599119,94.6459471 C0.501784141,94.6459471 0.0989757709,94.2418833 0.0989757709,93.7488877 L0.0989757709,79.7420374 L0.0989757709,79.7420374 Z" id="Fill-1" fill="#919395"></path>
                <path d="M26.4317621,88.7745705 L22.8232269,80.7504185 L19.2144824,88.7745705 L26.4317621,88.7745705 Z M15.3360132,93.3693062 L21.7028965,79.4515969 C21.9253304,78.9573458 22.2622247,78.665859 22.8232269,78.665859 L22.9121586,78.665859 C23.4497247,78.665859 23.8098458,78.9573458 24.0100991,79.4515969 L30.3769824,93.3471256 C30.4426872,93.5040639 30.488304,93.6597467 30.488304,93.7945044 C30.488304,94.2642731 30.1076762,94.6459471 29.6372797,94.6459471 C29.2110352,94.6459471 28.9193392,94.3544604 28.7624009,93.9960132 L27.1256388,90.387478 L18.5193502,90.387478 L16.8825881,94.0405837 C16.7269053,94.4222577 16.4352093,94.6459471 16.0311454,94.6459471 C15.5837665,94.6459471 15.2236454,94.2877093 15.2236454,93.8390749 C15.2236454,93.7055727 15.2470815,93.5486344 15.3360132,93.3693062 L15.3360132,93.3693062 Z" id="Fill-2" fill="#919395"></path>
                <path d="M39.3166079,92.8997467 C43.2825441,92.8997467 45.8159471,90.2094053 45.8159471,86.7343722 L45.8159471,86.6910573 C45.8159471,83.2160242 43.2825441,80.4823678 39.3166079,80.4823678 L35.6398568,80.4823678 L35.6398568,92.8997467 L39.3166079,92.8997467 Z M33.870848,79.7420374 C33.870848,79.2490419 34.2736564,78.844978 34.7438436,78.844978 L39.3166079,78.844978 C44.2476101,78.844978 47.6535903,82.2298238 47.6535903,86.6452313 L47.6535903,86.6910573 C47.6535903,91.104163 44.2476101,94.5335793 39.3166079,94.5335793 L34.7438436,94.5335793 C34.2736564,94.5335793 33.870848,94.1305617 33.870848,93.6375661 L33.870848,79.7420374 L33.870848,79.7420374 Z" id="Fill-3" fill="#919395"></path>
                <path d="M51.5513106,79.6296696 C51.5513106,79.1377203 51.9553744,78.7324009 52.4251432,78.7324009 C52.9181388,78.7324009 53.3211564,79.1377203 53.3211564,79.6296696 L53.3211564,93.7488877 C53.3211564,94.2418833 52.9181388,94.6459471 52.4251432,94.6459471 C51.9553744,94.6459471 51.5513106,94.2418833 51.5513106,93.7488877 L51.5513106,79.6296696" id="Fill-4" fill="#919395"></path>
                <path d="M71.384967,86.7343722 L71.384967,86.6910573 C71.384967,83.125837 68.7848128,80.2130617 65.1986674,80.2130617 C61.613359,80.2130617 59.0577753,83.082522 59.0577753,86.6452313 L59.0577753,86.6910573 C59.0577753,90.2539758 61.6579295,93.1680066 65.2430286,93.1680066 C68.8293833,93.1680066 71.384967,90.298337 71.384967,86.7343722 Z M57.2201322,86.7343722 L57.2201322,86.6910573 C57.2201322,82.3643722 60.4702203,78.5756718 65.2430286,78.5756718 C70.0181388,78.5756718 73.2226101,82.3187555 73.2226101,86.6452313 L73.2226101,86.6910573 C73.2226101,91.0152313 69.972522,94.8028855 65.1986674,94.8028855 C60.4246035,94.8028855 57.2201322,91.0595925 57.2201322,86.7343722 L57.2201322,86.7343722 Z" id="Fill-5" fill="#919395"></path>
                <path d="M65.2300551,18.9068833 C65.2300551,24.4156278 62.2526211,29.8459031 56.3825,35.0497687 C56.1232379,35.2786894 55.8003634,35.3910573 55.4787445,35.3910573 C55.1037665,35.3910573 54.7287885,35.2370485 54.4592731,34.9327974 C53.9604185,34.3703304 54.0114758,33.5094714 54.5760352,33.0095705 C59.8378634,28.3474559 62.5062335,23.6020595 62.5062335,18.9068833 L62.5062335,18.8409692 C62.5062335,15.0298789 60.1153304,10.5435352 57.0629846,8.62972467 C56.4253965,8.22984581 56.233304,7.38865639 56.6336013,6.75211454 C57.0326432,6.11452643 57.8740419,5.92243392 58.51163,6.32105727 C62.3407159,8.72451542 65.2300551,14.1077093 65.2300551,18.8409692 L65.2300551,18.9068833 Z M47.5498018,30.4014648 C47.3392952,30.5194824 47.1112115,30.5749339 46.8843833,30.5749339 C46.4077093,30.5749339 45.9448458,30.3238326 45.695,29.878337 C45.3279736,29.2221256 45.5619163,28.3913987 46.219174,28.0247907 C49.3723789,26.2585022 51.493348,22.8263656 51.5015088,19.4762555 C51.4946035,16.3977533 49.7969493,13.5956718 47.0672687,12.1595815 C46.400804,11.8088767 46.1450991,10.9856828 46.4955947,10.3196366 C46.8462996,9.65421806 47.6701211,9.39809471 48.3355396,9.74796256 C51.957467,11.6527753 54.2104736,15.3694934 54.2265859,19.4565859 L54.2265859,19.4982269 C54.2092181,23.7960352 51.5293392,28.1727313 47.5498018,30.4014648 Z M36.6116189,26.3989097 C33.3477203,26.3970264 30.7025771,23.750837 30.7025771,20.4865198 C30.7025771,17.2224119 33.3477203,14.5760132 36.6116189,14.5743392 C39.8755176,14.5760132 42.5206608,17.2224119 42.5206608,20.4865198 C42.5206608,23.750837 39.8755176,26.3970264 36.6116189,26.3989097 Z M27.5282379,29.878337 C27.2783921,30.3238326 26.8155286,30.5749339 26.3386454,30.5749339 C26.1118172,30.5749339 25.8839427,30.5194824 25.6734361,30.4014648 C21.6938987,28.1727313 19.0140198,23.7960352 18.996652,19.4982269 L18.996652,19.4565859 C19.0127643,15.3694934 21.2657709,11.6527753 24.8876982,9.74796256 C25.5531167,9.39809471 26.3769383,9.65421806 26.7276432,10.3196366 C27.0781388,10.9856828 26.8224339,11.8088767 26.1557599,12.1595815 C23.4260793,13.5956718 21.7286344,16.3977533 21.7215198,19.4762555 C21.7298899,22.8263656 23.850859,26.2585022 27.0040639,28.0247907 C27.6613216,28.3913987 27.8950551,29.2221256 27.5282379,29.878337 Z M18.7639648,34.9327974 C18.4944493,35.2370485 18.1194714,35.3910573 17.7444934,35.3910573 C17.4228744,35.3910573 17.1,35.2786894 16.8407379,35.0497687 C10.9706167,29.8459031 7.99318282,24.4156278 7.99318282,18.9068833 L7.99318282,18.8409692 C7.99318282,14.1077093 10.882522,8.72451542 14.7116079,6.32105727 C15.349196,5.92243392 16.1903855,6.11452643 16.5896366,6.75211454 C16.9899339,7.38865639 16.7978414,8.22984581 16.1602533,8.62972467 C13.1076982,10.5435352 10.7170044,15.0298789 10.7170044,18.8409692 L10.7170044,18.9068833 C10.7170044,23.6020595 13.3853744,28.3474559 18.6472026,33.0095705 C19.2117621,33.5094714 19.2628194,34.3703304 18.7639648,34.9327974 Z M53.0430617,0.113414097 C46.2273348,0.113414097 40.1379185,3.72446035 36.6116189,8.99758811 C33.0853194,3.72446035 26.9959031,0.113414097 20.1801762,0.113414097 C9.3189978,0.113414097 0.520198238,8.91284141 0.520198238,19.7729736 C0.520198238,26.6631938 4.88412996,31.6306057 9.44287445,36.2274339 L27.2668833,53.0788436 C28.2007709,53.961674 29.7379295,53.2996035 29.7379295,52.0143833 L29.7379295,38.8851322 C29.7379295,35.0863877 32.8143392,32.0064207 36.6116189,32.0001432 C40.4088987,32.0064207 43.4853084,35.0863877 43.4853084,38.8851322 L43.4853084,52.0143833 C43.4853084,53.2996035 45.022467,53.961674 45.9563546,53.0788436 L63.7803634,36.2274339 C68.3391079,31.6306057 72.7030396,26.6631938 72.7030396,19.7729736 C72.7030396,8.91284141 63.9040308,0.113414097 53.0430617,0.113414097 L53.0430617,0.113414097 Z" id="Fill-6" fill="#C6002B"></path>
                <polyline id="Fill-7" fill="#111820" points="7.39325991 58.3710132 12.10413 58.3710132 12.10413 64.7320374 18.1479295 64.7320374 18.1479295 58.3710132 22.85587 58.3710132 22.85587 75.3628304 18.1479295 75.3628304 18.1479295 68.9070154 12.10413 68.9070154 12.10413 75.3628304 7.39325991 75.3628304 7.39325991 58.3710132"></polyline>
                <path d="M33.1464207,67.6540198 C33.1464207,66.2503634 32.1273678,65.3384471 30.8655837,65.3384471 C29.6517181,65.3384471 28.6918833,66.2765198 28.5843282,67.6540198 L33.1464207,67.6540198 Z M24.2147467,68.8584692 L24.2147467,68.8099229 C24.2147467,64.974978 26.9574009,61.9410463 30.8413106,61.9410463 C35.3803855,61.9410463 37.4674559,65.2654185 37.4674559,69.1258921 C37.4674559,69.4161233 37.4674559,69.7553194 37.4431828,70.0723348 L28.6561013,70.0723348 C29.0210352,71.5048678 30.064152,72.2338987 31.4962665,72.2338987 C32.589185,72.2338987 33.4623899,71.8195815 34.4094604,70.8961564 L36.9596035,73.0081278 C35.6955176,74.6107819 33.8754515,75.6787996 31.2531167,75.6787996 C27.1279405,75.6787996 24.2147467,72.9363546 24.2147467,68.8584692 L24.2147467,68.8584692 Z" id="Fill-8" fill="#111820"></path>
                <path d="M52.9777753,62.2314868 L57.5879956,62.2314868 L57.5879956,64.87663 C58.3410903,63.080837 59.5549559,61.9165639 61.7384912,62.0126101 L61.7384912,66.8680727 L61.3509581,66.8680727 C58.9487555,66.8680727 57.5879956,68.2510132 57.5879956,71.2862004 L57.5879956,75.3628304 L52.9777753,75.3628304 L52.9777753,62.2314868" id="Fill-9" fill="#111820"></path>
                <path d="M64.6190419,71.2862004 L64.6190419,65.9446476 L63.0684912,65.9446476 L63.0684912,62.2314868 L64.6190419,62.2314868 L64.6190419,58.9056498 L69.2326101,58.9056498 L69.2326101,62.2314868 L72.2910242,62.2314868 L72.2910242,65.9446476 L69.2326101,65.9446476 L69.2326101,70.388304 C69.2326101,71.3104736 69.6469273,71.6969604 70.4939758,71.6969604 C71.1014317,71.6969604 71.6848238,71.5280947 72.242478,71.2619273 L72.242478,74.8769493 C71.4174009,75.3385573 70.3251101,75.6312996 69.0382159,75.6312996 C66.2727533,75.6312996 64.6190419,74.4151322 64.6190419,71.2862004" id="Fill-10" fill="#111820"></path>
                <path d="M2.87259912,57.1473128 C1.52062775,57.1473128 0.424779736,58.24337 0.424779736,59.5951322 C0.424779736,60.9471035 1.52062775,62.0429515 2.87259912,62.0429515 C4.22457048,62.0429515 5.3204185,60.9471035 5.3204185,59.5951322 C5.3204185,58.24337 4.22457048,57.1473128 2.87259912,57.1473128" id="Fill-11" fill="#111820"></path>
                <path d="M2.95734581,63.1948789 L2.78785242,63.1948789 C1.45764317,63.1948789 0.379372247,64.2731498 0.379372247,65.603359 L0.379372247,75.3628304 L5.36582599,75.3628304 L5.36582599,65.603359 C5.36582599,64.2731498 4.28755507,63.1948789 2.95734581,63.1948789" id="Fill-12" fill="#111820"></path>
                <path d="M44.3055727,72.7409141 C43.1103304,72.7923899 42.4005507,72.103326 42.4005507,71.2765749 C42.4005507,70.4774449 43.0356278,70.0639648 44.1944604,70.0639648 L46.8245374,70.0639648 L46.8245374,70.2073018 C46.8080066,70.7467511 46.5878744,72.6427753 44.3055727,72.7409141 Z M51.1939097,68.7636784 C51.1939097,64.685793 48.2807159,61.943348 44.1555396,61.943348 C41.5334141,61.943348 39.7131388,63.0113656 38.4492621,64.6140198 L40.9994053,66.7257819 C41.9464758,65.8023568 42.8196806,65.3882489 43.9125991,65.3882489 C45.3286013,65.3882489 46.363348,66.1022137 46.739163,67.5035683 L46.7431388,67.6040088 L43.7064868,67.6169824 C39.9328524,67.6663656 37.9512445,69.072533 37.9512445,71.7369273 C37.9512445,74.3027643 39.7798899,75.6787996 42.9289097,75.6787996 C44.6349339,75.6787996 45.9454736,75.0094053 46.8245374,74.0972797 L46.8245374,75.3628304 L51.1882599,75.3628304 L51.1882599,68.9386123 C51.1895154,68.8957159 51.1939097,68.8563767 51.1939097,68.8122247 L51.1939097,68.7636784 L51.1939097,68.7636784 Z" id="Fill-13" fill="#111820"></path>
            </g>
        </g>
    </g>
</svg>