<?xml version="1.0" encoding="UTF-8"?>
<svg width="100px" height="100px" viewBox="0 0 100 100" version="1.1" xmlns="http://www.w3.org/2000/svg" xmlns:xlink="http://www.w3.org/1999/xlink">
    <!-- Generator: Sketch 45 (43475) - http://www.bohemiancoding.com/sketch -->
    <title>itunes</title>
    <desc>Created with Sketch.</desc>
    <defs>
        <linearGradient x1="0%" y1="0%" x2="0%" y2="0%" id="linearGradient-1"></linearGradient>
        <linearGradient x1="50%" y1="0%" x2="50%" y2="100%" id="linearGradient-2">
            <stop stop-color="#EB82D6" offset="0%"></stop>
            <stop stop-color="#BB5BFD" offset="100%"></stop>
        </linearGradient>
        <path d="M20.6524845,0 C9.21102484,0 0,9.21102484 0,20.6524845 L0,20.6524845 L0,69.347236 C0,80.7889752 9.21102484,90 20.6524845,90 L20.6524845,90 L69.347236,90 C80.7889752,90 90,80.7889752 90,69.347236 L90,69.347236 L90,20.6524845 C90,9.21102484 80.7889752,0 69.347236,0 L69.347236,0 L20.6524845,0 Z" id="path-3"></path>
    </defs>
    <g id="default---square-logos" stroke="none" stroke-width="1" fill="none" fill-rule="evenodd">
        <g id="itunes">
            <g id="app-logo" transform="translate(5.000000, 5.000000)">
                <g id="Fill-1">
                    <use xlink:href="#path-3"></use>
                    <use fill="url(#linearGradient-2)" xlink:href="#path-3"></use>
                </g>
                <g id="Group-8" transform="translate(6.149068, 5.310559)" fill="#FFFFFF">
                    <path d="M38.7702671,4.39588509 C57.7647391,4.39588509 73.1667578,19.7979037 73.1667578,38.7923758 C73.1667578,57.7865683 57.7647391,73.189146 38.7702671,73.189146 C19.775795,73.189146 4.40591925,57.7865683 4.40591925,38.7923758 C4.40591925,19.7979037 19.775795,4.39588509 38.7702671,4.39588509 M38.7702671,0.128431677 C17.4162298,0.128431677 0.106602484,17.4383385 0.106602484,38.7920963 C0.106602484,60.1461335 17.4162298,77.4563199 38.7702671,77.4563199 C60.1243043,77.4563199 77.4342112,60.146413 77.4342112,38.7920963 C77.4342112,17.4383385 60.1243043,0.128431677 38.7702671,0.128431677" id="Fill-4"></path>
                    <path d="M54.881972,13.002205 L28.0697981,20.252236 L28.0387733,20.252236 L28.0387733,31.1581677 L28.0697981,31.1581677 L28.0697981,50.6582609 C26.8970031,49.952236 25.4589596,49.5332609 23.9138665,49.5332609 C19.9340217,49.5332609 16.7267236,52.2969876 16.7267236,55.6893168 C16.7267236,59.082205 19.9348602,61.8140683 23.9138665,61.8140683 C27.8928727,61.8140683 31.2748602,59.0794099 31.1328727,55.6893168 L31.0599224,53.9494099 L30.8829969,30.3763975 L52.0698913,24.657205 L52.0698913,46.1884472 C50.8328106,45.3351242 49.253618,44.8132919 47.5388665,44.8132919 C43.5587422,44.8132919 40.3508851,47.5772981 40.3508851,50.9693478 C40.3508851,54.362236 43.5587422,57.0940994 47.5388665,57.0940994 C51.5189907,57.0940994 54.8640839,54.362236 54.8640839,50.9693478 C54.8640839,50.937205 54.8649224,50.9072981 54.8640839,50.8751553 L54.8828106,23.9061801 L54.8828106,14.2501863 L54.8828106,13.002205 L54.881972,13.002205 Z" id="Fill-6"></path>
                </g>
            </g>
        </g>
    </g>
</svg>