<?xml version="1.0" encoding="UTF-8"?>
<svg width="100px" height="100px" viewBox="0 0 100 100" version="1.1" xmlns="http://www.w3.org/2000/svg" xmlns:xlink="http://www.w3.org/1999/xlink">
    <!-- Generator: Sketch 45 (43475) - http://www.bohemiancoding.com/sketch -->
    <title>itunes-radio</title>
    <desc>Created with Sketch.</desc>
    <defs></defs>
    <g id="default---square-logos" stroke="none" stroke-width="1" fill="none" fill-rule="evenodd">
        <g id="itunes-radio" fill-rule="nonzero">
            <g id="ITunes_Radio_Logo" transform="translate(1.000000, 16.000000)">
                <path d="M70.1062963,35.9316395 C70.1062963,37.8025926 68.5895951,39.3192938 66.718642,39.3192938 L30.664321,39.3192938 C28.7933679,39.3192938 27.2766667,37.8025926 27.2766667,35.9316395 L27.2766667,11.250158 C27.2766667,9.37920494 28.7933679,7.8625037 30.664321,7.8625037 L66.718642,7.8625037 C68.5895951,7.8625037 70.1062963,9.37920494 70.1062963,11.250158 L70.1062963,35.9316395 Z M62.7664593,12.1776494 C61.5636,12.1776494 60.5886815,13.1525679 60.5886815,14.3554272 C60.5886815,15.5582864 61.5636,16.5332049 62.7664593,16.5332049 C63.9693185,16.5332049 64.944237,15.5582864 64.944237,14.3554272 C64.944237,13.1525679 63.9690765,12.1776494 62.7664593,12.1776494 Z M62.7664593,19.7998716 C61.5636,19.7998716 60.5886815,20.7747901 60.5886815,21.9776494 C60.5886815,23.1805086 61.5636,24.1554272 62.7664593,24.1554272 C63.9693185,24.1554272 64.944237,23.1805086 64.944237,21.9776494 C64.944237,20.7747901 63.9690765,19.7998716 62.7664593,19.7998716 Z M44.4973235,22.2198667 C43.8960148,22.2198667 43.4084346,22.7072049 43.4084346,23.3087556 C43.4084346,23.9098222 43.8960148,24.3976444 44.4973235,24.3976444 C45.0986321,24.3976444 45.5862123,23.9098222 45.5862123,23.3087556 C45.5862123,22.7072049 45.0986321,22.2198667 44.4973235,22.2198667 Z M54.4988889,22.2196247 C53.8978222,22.2196247 53.41,22.706963 53.41,23.3085136 C53.41,23.9095802 53.8978222,24.3974025 54.4988889,24.3974025 C55.1004395,24.3974025 55.5877778,23.9095802 55.5877778,23.3085136 C55.5877778,22.706963 55.1004395,22.2196247 54.4988889,22.2196247 Z M34.495758,22.2196247 C33.8944494,22.2196247 33.4068691,22.706963 33.4068691,23.3085136 C33.4068691,23.9095802 33.8944494,24.3974025 34.495758,24.3974025 C35.0970667,24.3974025 35.5846469,23.9095802 35.5846469,23.3085136 C35.5846469,22.706963 35.0970667,22.2196247 34.495758,22.2196247 Z M44.4973235,27.2207704 C43.8960148,27.2207704 43.4084346,27.7081086 43.4084346,28.3096593 C43.4084346,28.9107259 43.8960148,29.3985481 44.4973235,29.3985481 C45.0986321,29.3985481 45.5862123,28.9107259 45.5862123,28.3096593 C45.5862123,27.7081086 45.0986321,27.2207704 44.4973235,27.2207704 Z M44.4973235,32.1408543 C43.8960148,32.1408543 43.4084346,32.6281926 43.4084346,33.2297432 C43.4084346,33.8308099 43.8960148,34.3186321 44.4973235,34.3186321 C45.0986321,34.3186321 45.5862123,33.8308099 45.5862123,33.2297432 C45.5862123,32.6281926 45.0986321,32.1408543 44.4973235,32.1408543 Z M44.4973235,17.2593728 C43.8960148,17.2593728 43.4084346,17.7467111 43.4084346,18.3482617 C43.4084346,18.9493284 43.8960148,19.4371506 44.4973235,19.4371506 C45.0986321,19.4371506 45.5862123,18.9493284 45.5862123,18.3482617 C45.5862123,17.7464691 45.0986321,17.2593728 44.4973235,17.2593728 Z M44.4973235,12.1374815 C43.8960148,12.1374815 43.4084346,12.6248198 43.4084346,13.2263704 C43.4084346,13.827437 43.8960148,14.3152593 44.4973235,14.3152593 C45.0986321,14.3152593 45.5862123,13.827437 45.5862123,13.2263704 C45.5862123,12.6245778 45.0986321,12.1374815 44.4973235,12.1374815 Z M53.1680247,17.2591309 C52.566716,17.2591309 52.0791358,17.7464691 52.0791358,18.3480198 C52.0791358,18.9490864 52.566716,19.4369086 53.1680247,19.4369086 C53.7693333,19.4369086 54.2569136,18.9490864 54.2569136,18.3480198 C54.2569136,17.7464691 53.7693333,17.2591309 53.1680247,17.2591309 Z M35.8667901,17.2591309 C35.2654815,17.2591309 34.7779012,17.7464691 34.7779012,18.3480198 C34.7779012,18.9490864 35.2654815,19.4369086 35.8667901,19.4369086 C36.4680988,19.4369086 36.955679,18.9490864 36.955679,18.3480198 C36.955679,17.7462272 36.4680988,17.2591309 35.8667901,17.2591309 Z M35.8667901,27.2207704 C35.2654815,27.2207704 34.7779012,27.7081086 34.7779012,28.3096593 C34.7779012,28.9107259 35.2654815,29.3985481 35.8667901,29.3985481 C36.4680988,29.3985481 36.955679,28.9107259 36.955679,28.3096593 C36.955679,27.7081086 36.4680988,27.2207704 35.8667901,27.2207704 Z M53.1680247,27.2205284 C52.566716,27.2205284 52.0791358,27.7078667 52.0791358,28.3094173 C52.0791358,28.910484 52.566716,29.3983062 53.1680247,29.3983062 C53.7693333,29.3983062 54.2569136,28.910484 54.2569136,28.3094173 C54.2569136,27.7078667 53.7693333,27.2205284 53.1680247,27.2205284 Z M40.1821778,19.7998716 C39.5808691,19.7998716 39.0932889,20.2872099 39.0932889,20.8887605 C39.0932889,21.4898272 39.5808691,21.9776494 40.1821778,21.9776494 C40.7834864,21.9776494 41.2710667,21.4898272 41.2710667,20.8887605 C41.2710667,20.2872099 40.7834864,19.7998716 40.1821778,19.7998716 Z M48.8124691,19.7998716 C48.2111605,19.7998716 47.7235802,20.2872099 47.7235802,20.8887605 C47.7235802,21.4898272 48.2111605,21.9776494 48.8124691,21.9776494 C49.4137778,21.9776494 49.901358,21.4898272 49.901358,20.8887605 C49.901358,20.2872099 49.4137778,19.7998716 48.8124691,19.7998716 Z M40.1821778,24.6800296 C39.5808691,24.6800296 39.0932889,25.1673679 39.0932889,25.7689185 C39.0932889,26.3699852 39.5808691,26.8578074 40.1821778,26.8578074 C40.7834864,26.8578074 41.2710667,26.3699852 41.2710667,25.7689185 C41.2710667,25.1673679 40.7834864,24.6800296 40.1821778,24.6800296 Z M48.8124691,24.6797877 C48.2111605,24.6797877 47.7235802,25.1671259 47.7235802,25.7686765 C47.7235802,26.3697432 48.2111605,26.8575654 48.8124691,26.8575654 C49.4137778,26.8575654 49.901358,26.3697432 49.901358,25.7686765 C49.901358,25.1671259 49.4137778,24.6797877 48.8124691,24.6797877 Z M39.4964198,30.8099901 C38.8951111,30.8099901 38.4075309,31.2973284 38.4075309,31.898879 C38.4075309,32.4999457 38.8951111,32.9877679 39.4964198,32.9877679 C40.0977284,32.9877679 40.5853086,32.4999457 40.5853086,31.898879 C40.5853086,31.2973284 40.0977284,30.8099901 39.4964198,30.8099901 Z M49.4982272,30.8099901 C48.8969185,30.8099901 48.4093383,31.2973284 48.4093383,31.898879 C48.4093383,32.4999457 48.8969185,32.9877679 49.4982272,32.9877679 C50.0995358,32.9877679 50.587116,32.4999457 50.587116,31.898879 C50.587116,31.2973284 50.0995358,30.8099901 49.4982272,30.8099901 Z M49.4982272,13.5491654 C48.8971605,13.5491654 48.4093383,14.0365037 48.4093383,14.6380543 C48.4093383,15.239121 48.8971605,15.7269432 49.4982272,15.7269432 C50.0997778,15.7269432 50.587116,15.239121 50.587116,14.6380543 C50.587116,14.0365037 50.0997778,13.5491654 49.4982272,13.5491654 Z M39.4964198,13.5491654 C38.8951111,13.5491654 38.4075309,14.0365037 38.4075309,14.6380543 C38.4075309,15.239121 38.8951111,15.7269432 39.4964198,15.7269432 C40.0977284,15.7269432 40.5853086,15.239121 40.5853086,14.6380543 C40.5853086,14.0362617 40.0977284,13.5491654 39.4964198,13.5491654 Z M66.786637,7.8625037 L33.5612494,0.811585185 C33.5612494,0.811585185 33.5024494,1.08743704 33.3984,1.57767901 L33.3628296,1.74560988 C33.2585383,2.23585185 33.1840099,2.58671605 33.1840099,2.58671605 L58.0048691,7.8625037 L66.786637,7.8625037 Z M32.8275802,0.60397037 L31.2182025,0.261817284 C30.7279605,0.157525926 30.2461877,0.4704 30.1418963,0.960641975 L30.1418963,0.960641975 C30.0376049,1.45088395 30.350479,1.93265679 30.840721,2.03694815 L32.4500988,2.37910123 L32.8275802,0.60397037 Z" id="Shape" fill="#FF2E55"></path>
                <g id="Group" transform="translate(0.000000, 52.992593)" fill="#151515">
                    <path d="M2.73819259,1.7405284 C2.73819259,2.47468148 2.20245926,3.05009877 1.34925432,3.05009877 C0.535733333,3.05009877 8.8817842e-16,2.47468148 8.8817842e-16,1.7405284 C8.8817842e-16,0.986775309 0.555575309,0.411358025 1.3690963,0.411358025 C2.20245926,0.411358025 2.71835062,0.986775309 2.73819259,1.7405284 Z M0.138893827,14.102321 L0.138893827,4.43903704 L2.59929877,4.43903704 L2.59929877,14.102321 L0.138893827,14.102321 Z" id="Shape"></path>
                    <polygon id="Shape" points="7.28200494 2.77255309 3.47234568 2.77255309 3.47234568 0.72882963 13.5721531 0.72882963 13.5721531 2.77255309 9.7225679 2.77255309 9.7225679 14.102321 7.28200494 14.102321"></polygon>
                    <path d="M22.1042025,11.2056346 C22.1042025,12.3564691 22.1438864,13.308642 22.1835704,14.102563 L20.040637,14.102563 L19.9215852,12.6342568 L19.8819012,12.6342568 C19.4652198,13.3287259 18.5128049,14.3210667 16.7865531,14.3210667 C15.0206173,14.3210667 13.4134173,13.2692 13.4134173,10.1143259 L13.4134173,4.43952099 L15.8539802,4.43952099 L15.8539802,9.69764444 C15.8539802,11.3048444 16.3698716,12.3366272 17.6596,12.3366272 C18.6318568,12.3366272 19.2668,11.642158 19.5247457,11.0270568 C19.6041136,10.8087951 19.6636395,10.5508494 19.6636395,10.2730617 L19.6636395,4.43952099 L22.1042025,4.43952099 L22.1042025,11.2056346 Z" id="Shape"></path>
                    <path d="M24.147442,7.31636543 C24.147442,6.20497284 24.1276,5.27264198 24.0680741,4.43903704 L26.2110074,4.43903704 L26.3300593,5.88750123 L26.3895852,5.88750123 C26.8062667,5.13350617 27.8578914,4.22077531 29.4650914,4.22077531 C31.1516593,4.22077531 32.8977531,5.31208395 32.8977531,8.36774815 L32.8977531,14.102079 L30.4574321,14.102079 L30.4574321,8.6455358 C30.4574321,7.25659753 29.9415407,6.20473086 28.6121284,6.20473086 C27.6398716,6.20473086 26.9652444,6.8992 26.7072988,7.63335309 C26.6279309,7.85161481 26.6080889,8.14924444 26.6080889,8.4270321 L26.6080889,14.101837 L24.147442,14.101837 L24.147442,7.31636543 Z" id="Shape"></path>
                    <path d="M36.6278025,9.95559012 C36.6873284,11.701684 38.0564247,12.455679 39.6040988,12.455679 C40.7350914,12.455679 41.5486123,12.2969432 42.2827654,12.0189136 L42.640163,13.7057235 C41.8068,14.043037 40.6559654,14.3009827 39.2670272,14.3009827 C36.1319951,14.3009827 34.2866914,12.3763111 34.2866914,9.41961481 C34.2866914,6.74119012 35.9137333,4.22125926 39.0090815,4.22125926 C42.1441136,4.22125926 43.1758963,6.80071605 43.1758963,8.92380741 C43.1758963,9.38017284 43.1362123,9.7373284 43.0965284,9.9558321 L36.6278025,9.9558321 L36.6278025,9.95559012 Z M40.8739852,8.24893827 C40.8938272,7.35629136 40.4969877,5.88774321 38.8699457,5.88774321 C37.3619556,5.88774321 36.7270123,7.25683951 36.6278025,8.24893827 L40.8739852,8.24893827 Z" id="Shape"></path>
                    <path d="M44.4256988,11.8604198 C44.9812741,12.1977333 46.0331407,12.5546469 46.9059457,12.5546469 C47.9774123,12.5546469 48.4536198,12.1181235 48.4536198,11.4831802 C48.4536198,10.8283951 48.0565383,10.4910815 46.8660198,10.0744 C44.9810321,9.41961481 44.1873531,8.3878321 44.2071951,7.25683951 C44.2071951,5.55018765 45.6159753,4.22101728 47.8581185,4.22101728 C48.9298272,4.22101728 49.8624,4.49856296 50.4177333,4.79643457 L49.9417679,6.52268642 C49.5248444,6.28458272 48.7512494,5.96711111 47.8978025,5.96711111 C47.0249975,5.96711111 46.5487901,6.38379259 46.5487901,6.97905185 C46.5487901,7.59415309 47.0051556,7.89178272 48.235358,8.32830617 C49.9816938,8.96324938 50.7949728,9.85613827 50.8148148,11.2847605 C50.8148148,13.0310963 49.4457185,14.3009827 46.8861037,14.3009827 C45.7154272,14.3009827 44.6638025,14.0231951 43.9494914,13.6263556 L44.4256988,11.8604198 Z" id="Shape"></path>
                    <path d="M56.0327704,0.907407407 C56.9055753,0.72882963 58.1556198,0.629619753 59.3461383,0.629619753 C61.191684,0.629619753 62.3822025,0.967175309 63.2153235,1.72117037 C63.8899506,2.31642963 64.2669481,3.22891852 64.2669481,4.26094321 C64.2669481,6.02687901 63.1557975,7.19755556 61.7470173,7.67376296 L61.7470173,7.73328889 C62.779042,8.09044444 63.3941432,9.04285926 63.7116148,10.4317975 C64.1481383,12.2969432 64.4653679,13.5866716 64.7433975,14.102563 L62.9573778,14.102563 C62.739358,13.7255654 62.4417284,12.5747309 62.0647309,10.9080049 C61.6678914,9.06270123 60.9535802,8.3682321 59.3860642,8.30870617 L57.7590222,8.30870617 L57.7590222,14.102563 L56.0327704,14.102563 L56.0327704,0.907407407 L56.0327704,0.907407407 Z M57.7590222,6.99889383 L59.524958,6.99889383 C61.3702617,6.99889383 62.5411802,5.98695309 62.5411802,4.45912099 C62.5411802,2.73286914 61.2911358,1.97887407 59.4654321,1.9590321 C58.6323111,1.9590321 58.0368099,2.0384 57.7590222,2.1177679 L57.7590222,6.99889383 Z" id="Shape"></path>
                    <path d="M71.4100593,14.102321 L71.2711654,12.8919605 L71.2116395,12.8919605 C70.6761481,13.6459556 69.6441235,14.3205827 68.2752691,14.3205827 C66.3305136,14.3205827 65.3384148,12.9514864 65.3384148,11.5625481 C65.3384148,9.24103704 67.4017383,7.97115062 71.1124296,7.99099259 L71.1124296,7.79257284 C71.1124296,6.99889383 70.8941679,5.57002963 68.9295704,5.57002963 C68.0369235,5.57002963 67.1041086,5.84781728 66.4294815,6.28434074 L66.032642,5.13350617 C66.826321,4.61761481 67.9771556,4.28030123 69.187516,4.28030123 C72.1241284,4.28030123 72.8384395,6.28434074 72.8384395,8.20901235 L72.8384395,11.8006519 C72.8384395,12.6337728 72.8781235,13.4475358 72.9971753,14.102321 L71.4100593,14.102321 L71.4100593,14.102321 Z M71.1523556,9.20135309 C69.2475259,9.16166914 67.0845086,9.49874074 67.0845086,11.3641284 C67.0845086,12.495363 67.8385037,13.0310963 68.7313926,13.0310963 C69.981437,13.0310963 70.775358,12.2374173 71.0531457,11.4236543 C71.1126716,11.2450765 71.1523556,11.0466568 71.1523556,10.868079 L71.1523556,9.20135309 L71.1523556,9.20135309 Z" id="Shape"></path>
                    <path d="M83.1565086,0.0145185185 L83.1565086,11.622316 C83.1565086,12.475521 83.1763506,13.4477778 83.2358765,14.102563 L81.6683605,14.102563 L81.5889926,12.435837 L81.5493086,12.435837 C81.0133333,13.5073037 79.8426568,14.3208247 78.2753827,14.3208247 C75.9536296,14.3208247 74.1680938,12.3564691 74.1680938,9.43945679 C74.1482519,6.24489877 76.1322074,4.28054321 78.4735605,4.28054321 C79.9418667,4.28054321 80.9339654,4.97501235 81.3707309,5.74884938 L81.4104148,5.74884938 L81.4104148,0.0145185185 L83.1565086,0.0145185185 Z M81.4104148,8.40767407 C81.4104148,8.18941235 81.3905728,7.89178272 81.3310469,7.67352099 C81.0731012,6.56237037 80.1206864,5.64963951 78.811116,5.64963951 C77.0054963,5.64963951 75.9337877,7.23723951 75.9337877,9.36008889 C75.9337877,11.3046025 76.8864444,12.9120444 78.7714321,12.9120444 C79.9421086,12.9120444 81.0135753,12.1382074 81.3310469,10.828637 C81.3905728,10.5907753 81.4104148,10.3524296 81.4104148,10.074642 L81.4104148,8.40767407 L81.4104148,8.40767407 Z" id="Shape"></path>
                    <path d="M87.2042716,1.80005432 C87.2241136,2.39531358 86.7873481,2.87176296 86.093121,2.87176296 C85.4777778,2.87176296 85.0412543,2.39531358 85.0412543,1.80005432 C85.0412543,1.18495309 85.4976198,0.708745679 86.1328049,0.708745679 C86.7873481,0.708987654 87.2042716,1.18495309 87.2042716,1.80005432 Z M85.259516,14.102321 L85.259516,4.49880494 L87.0058519,4.49880494 L87.0058519,14.102321 L85.259516,14.102321 Z" id="Shape"></path>
                    <path d="M97.7998864,9.22119506 C97.7998864,12.7729086 95.3392395,14.3205827 93.0177284,14.3205827 C90.4184296,14.3205827 88.4146321,12.4157531 88.4146321,9.37968889 C88.4146321,6.16528889 90.5176395,4.28030123 93.1767062,4.28030123 C95.9344988,4.28030123 97.7998864,6.28458272 97.7998864,9.22119506 Z M90.1805679,9.32064691 C90.1805679,11.4236543 91.3909284,13.0112543 93.0973383,13.0112543 C94.7640642,13.0112543 96.0141086,11.4434963 96.0141086,9.28096296 C96.0141086,7.65367901 95.2008296,5.59011358 93.1370222,5.59011358 C91.0732148,5.59011358 90.1805679,7.49494321 90.1805679,9.32064691 Z" id="Shape"></path>
                </g>
            </g>
        </g>
    </g>
</svg>