<?xml version="1.0" encoding="UTF-8"?>
<svg width="100px" height="100px" viewBox="0 0 100 100" version="1.1" xmlns="http://www.w3.org/2000/svg" xmlns:xlink="http://www.w3.org/1999/xlink">
    <!-- Generator: Sketch 45 (43475) - http://www.bohemiancoding.com/sketch -->
    <title>kkbox</title>
    <desc>Created with Sketch.</desc>
    <defs></defs>
    <g id="default---square-logos" stroke="none" stroke-width="1" fill="none" fill-rule="evenodd">
        <g id="kkbox" fill="#00ADCB">
            <g id="KKBOX_logo_20130820" transform="translate(1.000000, 37.000000)">
                <path d="M69.4364028,19.7439375 C67.0275764,19.7439375 65.0737014,17.7907431 65.0737014,15.3812361 C65.0737014,12.9720694 67.0275764,11.0171736 69.4364028,11.0171736 C71.84625,11.0171736 73.800125,12.9720694 73.800125,15.3812361 C73.800125,17.7907431 71.84625,19.7439375 69.4364028,19.7439375 Z M69.4364028,6.26145139 C64.3999514,6.26145139 60.3179792,10.3437639 60.3179792,15.3812361 C60.3179792,20.4170069 64.3999514,24.5010208 69.4364028,24.5010208 C74.473875,24.5010208 78.5572083,20.4170069 78.5572083,15.3812361 C78.5572083,10.3437639 74.473875,6.26145139 69.4364028,6.26145139 L69.4364028,6.26145139 Z" id="Fill-1"></path>
                <path d="M18.6142153,6.48229167 C17.5682014,6.48229167 16.4728472,6.48229167 15.3125,6.48229167 C13.8983056,6.48229167 13.2282986,6.83992361 12.4126528,7.48645139 L5.83916667,13.909875 L5.83916667,6.88007639 C5.83916667,6.65855556 5.65711806,6.47650694 5.43525694,6.47650694 L1.24201389,6.47650694 C1.02015278,6.47650694 0.838104167,6.65855556 0.838104167,6.88007639 L0.838104167,24.1501944 C0.838104167,24.3727361 1.02015278,24.5534236 1.24201389,24.5534236 L5.43525694,24.5534236 C5.65711806,24.5534236 5.83916667,24.3727361 5.83916667,24.1501944 L5.83916667,16.9812222 L12.6140972,23.6857153 C13.3048611,24.2318611 14.1283333,24.5115694 15.2189236,24.5115694 C15.6041181,24.5115694 17.9969514,24.5115694 18.4376111,24.5115694 C19.4822639,24.5115694 19.0960486,23.9102986 19.0960486,23.9102986 L10.6949306,15.5074792 L19.1253125,7.07369444 C19.1253125,7.07369444 19.6588681,6.48229167 18.6142153,6.48229167" id="Fill-2"></path>
                <path d="M38.0726597,6.48229167 C37.0266458,6.48229167 35.9299306,6.48229167 34.7709444,6.48229167 C33.3550486,6.48229167 32.6860625,6.83992361 31.8704167,7.48645139 L25.4265764,13.7829514 L25.4265764,6.88007639 C25.4265764,6.65855556 25.2445278,6.47650694 25.0223264,6.47650694 L20.8294236,6.47650694 C20.6068819,6.47650694 20.4244931,6.65855556 20.4244931,6.88007639 L20.4244931,24.1501944 C20.4244931,24.3727361 20.6068819,24.5534236 20.8294236,24.5534236 L25.0223264,24.5534236 C25.2445278,24.5534236 25.4265764,24.3727361 25.4265764,24.1501944 L25.4265764,17.1101875 L32.0711806,23.6857153 C32.7622847,24.2318611 33.5850764,24.5115694 34.6763472,24.5115694 C35.0618819,24.5115694 37.454375,24.5115694 37.8950347,24.5115694 C38.9393472,24.5115694 38.5544931,23.9102986 38.5544931,23.9102986 L30.1516736,15.5074792 L38.5830764,7.07369444 C38.5830764,7.07369444 39.1173125,6.48229167 38.0726597,6.48229167" id="Fill-3"></path>
                <path d="M96.9202986,23.8551736 L90.2610625,15.4690278 L96.7277014,7.07369444 C96.7277014,7.07369444 97.2619375,6.48229167 96.2172847,6.48229167 L93.5096944,6.48229167 C92.1897569,6.48229167 91.4067778,6.60785417 90.7582083,7.40410417 L87.5150208,11.9968333 L84.0190069,7.34965972 C83.3690764,6.55238889 82.6167222,6.48229167 81.2807917,6.48229167 L78.5983819,6.48229167 C77.5537292,6.48229167 78.0627847,7.07369444 78.0627847,7.07369444 L84.7128333,15.4690278 L78.1451319,23.9102986 C78.1451319,23.9102986 77.7599375,24.5115694 78.8059514,24.5115694 L81.2409792,24.5115694 C82.0651319,24.5115694 83.3452569,24.5707778 84.1278958,23.7867778 C84.1401458,23.7738472 85.8850903,21.2105347 87.5150208,19.0919653 C89.1602639,21.1788889 90.9242639,23.6908194 90.9388958,23.7027292 C91.721875,24.48775 93.0976181,24.5115694 93.9231319,24.5115694 L96.1784931,24.5115694 C97.2234861,24.5115694 96.9202986,23.8551736 96.9202986,23.8551736" id="Fill-4"></path>
                <path d="M49.4250069,6.49454167 C47.7498194,6.62759028 46.3029583,7.41975694 45.1075625,8.55594444 L45.1075625,0.366819444 C45.1075625,0.155166667 44.94525,0.0425347222 44.7465278,0.116715278 L40.4685556,1.71840278 C40.2698333,1.79224306 40.1075208,2.02703472 40.1075208,2.24004861 L40.1075208,24.0923472 C40.1075208,24.3050208 40.2803819,24.4792431 40.4937361,24.4792431 L44.7220278,24.4792431 C44.9132639,24.4792431 45.0657083,24.3356458 45.0946319,24.1535972 L45.0946319,16.4262292 L45.1000764,16.4262292 C45.0987153,16.3850556 45.0946319,16.9067014 45.0946319,16.8641667 C45.0946319,14.39375 46.6813472,11.7559167 49.5617986,10.9079444 C52.019625,10.1824722 54.1170972,11.9685903 54.1170972,14.4393472 C54.1170972,16.9080625 52.019625,19.5530417 49.5617986,19.8535069 C48.6090208,19.9692014 47.8103889,19.8994444 47.1625,19.6714583 L47.1625,24.4492986 L49.4794514,24.4492986 C49.4835347,24.4492986 49.4848958,24.4492986 49.4889792,24.4492986 C54.9279792,24.4492986 58.6948542,20.5129653 58.8132708,15.4343194 C58.940875,9.92284028 55.0450347,6.04741667 49.4250069,6.49454167" id="Fill-5"></path>
            </g>
        </g>
    </g>
</svg>