<?xml version="1.0" encoding="UTF-8"?>
<svg width="100px" height="100px" viewBox="0 0 100 100" version="1.1" xmlns="http://www.w3.org/2000/svg" xmlns:xlink="http://www.w3.org/1999/xlink">
    <!-- Generator: Sketch 52.6 (67491) - http://www.bohemiancoding.com/sketch -->
    <title>kugou</title>
    <desc>Created with Sketch.</desc>
    <defs>
        <linearGradient x1="50%" y1="0%" x2="50%" y2="100%" id="linearGradient-1">
            <stop stop-color="#2F91F6" offset="0%"></stop>
            <stop stop-color="#54A9FC" offset="98.5278179%"></stop>
        </linearGradient>
    </defs>
    <g id="kugou" stroke="none" stroke-width="1" fill="none" fill-rule="evenodd">
        <g id="KuGou" transform="translate(5.000000, 5.000000)">
            <rect id="Rectangle" stroke="#979797" stroke-width="0.5" fill="url(#linearGradient-1)" x="0.25" y="0.25" width="89.5" height="89.5" rx="19.8"></rect>
            <path d="M44.85,81.6 C24.5535354,81.6 8.1,65.1464646 8.1,44.85 C8.1,24.5535354 24.5535354,8.1 44.85,8.1 C65.1464646,8.1 81.6,24.5535354 81.6,44.85 C81.6,65.1464646 65.1464646,81.6 44.85,81.6 Z M45,78 C63.2253967,78 78,63.2253967 78,45 C78,26.7746033 63.2253967,12 45,12 C26.7746033,12 12,26.7746033 12,45 C12,63.2253967 26.7746033,78 45,78 Z" id="Combined-Shape" fill="#FFFFFF"></path>
            <path d="M29.0337891,62.6660156 L38.090625,62.6660156 L39.2548828,48.6539062 L51.1863281,62.6660156 L63.0193359,62.6660156 L51.1863281,48.6539062 C48.1886719,45.4086914 48.1886719,43.7099121 51.1863281,40.7824219 L65.4076172,27.4171875 L52.4982422,27.4171875 L40.0268555,39.2061035 L40.9242188,27.4171875 L31.7765625,27.4171875 L29.0337891,62.6660156 Z" id="Path" fill="#FFFFFF"></path>
        </g>
    </g>
</svg>