<?xml version="1.0" encoding="UTF-8"?>
<svg width="100px" height="100px" viewBox="0 0 100 100" version="1.1" xmlns="http://www.w3.org/2000/svg" xmlns:xlink="http://www.w3.org/1999/xlink">
    <!-- Generator: Sketch 52.6 (67491) - http://www.bohemiancoding.com/sketch -->
    <title>kuwo</title>
    <desc>Created with Sketch.</desc>
    <defs>
        <linearGradient x1="0%" y1="68.1685644%" x2="100%" y2="66.9547855%" id="linearGradient-1">
            <stop stop-color="#FEDC72" offset="0%"></stop>
            <stop stop-color="#FEDC72" offset="100%"></stop>
        </linearGradient>
    </defs>
    <g id="kuwo" stroke="none" stroke-width="1" fill="none" fill-rule="evenodd">
        <g id="Kuwo" transform="translate(2.000000, 3.000000)">
            <path d="M36.7473437,44.509699 C38.1248766,45.0784031 39.0228745,46.4169047 39.0228745,47.9014682 L39.0228745,87.637865 C39.0228745,93.1290054 36.7009316,93.1290054 33.0849156,90.5478973 L14.7227603,76.6421432 C12.9415343,74.9127045 11.8281984,73.304509 11.7894368,69.9667892 L11.4075835,39.5886072 C11.4018119,39.0916236 11.4974533,38.5986467 11.6887129,38.1395444 C12.4690879,36.2663221 14.6271392,35.3775386 16.5088555,36.154391 L36.7473437,44.509699 Z" id="Rectangle" fill="#FAC03D"></path>
            <path d="M2.84354109,42.7829979 L23.6728648,34.8695231 C25.0308233,34.3536076 26.5651379,34.6827819 27.5919589,35.7103318 L35.3287142,43.4525793 C36.7686615,44.8935488 36.7678328,47.2289932 35.3268633,48.6689405 C35.1038135,48.8918321 34.8531026,49.0852017 34.5808642,49.2443186 L15.875408,60.1772176 C14.3758485,61.0536748 12.4680052,60.7651994 11.2946068,59.4845776 L1.43398404,48.722906 C0.0577764746,47.2209427 0.159721672,44.8877242 1.66168501,43.5115166 C2.00597137,43.1960565 2.40702641,42.9488385 2.84354109,42.7829979 Z" id="Rectangle" stroke="#FFFFFF" stroke-width="1.47540984" fill="#FFE893" transform="translate(18.435690, 47.654552) scale(-1, 1) translate(-18.435690, -47.654552) "></path>
            <path d="M43.315907,44.8033143 L80.2011529,35.0116476 C82.1700743,34.488972 84.1899127,35.6613857 84.7125884,37.630307 C84.7945592,37.9390911 84.8360656,38.2572162 84.8360656,38.5766951 L84.8360656,76.7322929 C84.8360656,78.2817003 83.8677551,79.6659445 82.4122762,80.1972112 L45.5270303,93.6607528 C43.6134088,94.3592468 41.4958708,93.3741914 40.7973768,91.4605698 C40.649453,91.0553119 40.5737705,90.6272456 40.5737705,90.1958346 L40.5737705,48.3683618 C40.5737705,46.6957313 41.6992696,45.2324717 43.315907,44.8033143 Z" id="Rectangle" fill="url(#linearGradient-1)"></path>
            <path d="M86.7406699,42.9634201 C85.9866638,42.9634201 85.3754211,42.3549365 85.3754211,41.6043339 L85.3754211,37.9719028 C85.3754211,36.5353278 84.3721183,35.6049848 83.4984351,34.8878217 C83.2947378,34.4183598 83.6182941,34.0216789 84.0674729,34.0216789 L87.9118501,35.8565934 C90.3752461,37.1944814 90.2187477,40.0765988 88.8595555,41.4228407 L87.7036062,42.5677762 C87.4477734,42.8211715 87.1015621,42.9634201 86.7406699,42.9634201 Z" id="Rectangle" fill="#F5A21B"></path>
            <path d="M19.2223906,31.7792517 L54.7914607,26.550996 C56.8069202,26.254746 58.6809311,27.6484406 58.9771811,29.6639001 C59.0032878,29.8415104 59.0163934,30.0207896 59.0163934,30.2003082 L59.0163934,39.1804389 L46.9901463,42.2451254 C41.9890257,42.9291622 38.0135358,42.6167671 35.0636767,41.3079401 L16.9672131,34.3901473 L16.9672131,34.3901473 C16.9672131,33.0809269 17.9270884,31.9696467 19.2223906,31.7792517 Z" id="Rectangle" fill="#F5A21B"></path>
            <path d="M62.1639658,30.4565742 L77.1076373,25.8383667 C79.0539306,25.2368822 81.1193126,26.3270651 81.720797,28.2733584 C81.8298117,28.6261099 81.8852459,28.99323 81.8852459,29.3624424 L81.8852459,39.0244293 L59.7540984,33.7236446 L59.7540984,33.7236446 C59.7540984,32.2240118 60.7311926,30.8993599 62.1639658,30.4565742 Z" id="Rectangle" fill="#F08437" transform="translate(70.819672, 32.353603) scale(-1, 1) translate(-70.819672, -32.353603) "></path>
            <path d="M43.4238026,10.7259422 L51.4222601,23.7342521 C56.3122769,30.6233887 45.5740348,40.6908683 38.2944229,34.7985635 C32.6078413,30.1956984 38.9871598,20.8125145 47.0261922,21.9443257 L38.7237472,9.579355 L38.6833733,9.49991617 C38.0863322,7.85987494 38.2746839,6.51968308 39.2732638,5.54783618 C40.7483092,4.11227924 42.1888704,3.46977717 44.8563125,3.14304609 C47.9828044,2.76008669 49.1309506,2.39387447 50.5342121,1.17605203 L50.9849504,0.784878159 L51.1332558,1.36296771 C52.5325521,6.81737847 49.8996662,9.98044362 43.4238026,10.7259422 Z" id="Path" stroke="#FFFFFF" stroke-width="0.737704918" fill="#39A1DB" transform="translate(44.383197, 18.866496) rotate(-8.000000) translate(-44.383197, -18.866496) "></path>
            <path d="M18.4164032,10.5243789 L25.5103606,21.1328221 C18.7076317,19.549316 13.6458205,27.4432238 17.9502538,30.9291943 C23.8534494,35.7099319 31.7116787,27.320025 28.1798417,22.3256255 L21.4702122,11.3638606 C26.8963366,10.8609954 29.0569226,8.4295794 27.9519701,4.06961269 C26.6224447,5.22636994 25.4025953,5.47270915 23.1871258,5.75076741 C20.9716563,6.02882567 19.9083853,6.58115416 18.8302178,7.63243172 C18.1114394,8.33328343 17.9735012,9.29726584 18.4164032,10.5243789 Z" id="Path" fill="#5EB7E8" transform="translate(22.708639, 18.210823) rotate(40.000000) translate(-22.708639, -18.210823) "></path>
            <path d="M49.6974657,54.086647 L49.6974657,82.1865311 C49.6974657,88.318634 59.8409084,85.0860214 59.8409084,79.3128586 L59.8409084,72.1225815 L69.5859615,78.5842209 C73.9776111,80.3050537 80.9800445,73.8129349 76.3027504,68.560791 L65.7645204,62.6743164 L77.4492908,50.197113 C79.9473297,47.3488998 76.3027504,40.9378204 71.6114082,43.7526855 L59.8409084,55.9380035 L59.8409084,50.9655533 C58.0578813,46.1171722 49.6974657,48.4020538 49.6974657,54.086647 Z" id="Path-2" fill="#ED6D34"></path>
        </g>
    </g>
</svg>