<?xml version="1.0" encoding="UTF-8"?>
<svg width="100px" height="100px" viewBox="0 0 100 100" version="1.1" xmlns="http://www.w3.org/2000/svg" xmlns:xlink="http://www.w3.org/1999/xlink">
    <!-- Generator: Sketch 45 (43475) - http://www.bohemiancoding.com/sketch -->
    <title>medianet</title>
    <desc>Created with Sketch.</desc>
    <defs></defs>
    <g id="default---square-logos" stroke="none" stroke-width="1" fill="none" fill-rule="evenodd">
        <g id="medianet">
            <g id="Group-2" transform="translate(15.000000, 18.000000)">
                <g id="Page-1" transform="translate(0.000000, 52.000000)" fill="#F75763">
                    <path d="M70.482367,10.4135825 C70.8208136,10.4679515 70.9567359,10.6242621 70.9458621,10.9504757 C70.939066,11.153 70.9485806,11.3568835 70.9431437,11.560767 C70.939066,11.7714466 70.8248913,11.8815437 70.622367,11.9359126 C69.617901,12.2050388 68.1907165,11.6423204 67.7367359,10.7656214 C67.4499398,10.2110583 67.4091631,9.59261165 67.3996485,8.98232039 C67.3833379,7.78348544 67.3955709,6.58465049 67.3942117,5.38581553 C67.3942117,4.16387379 67.390134,2.94193204 67.3955709,1.71999029 C67.3982893,0.972417476 67.4798427,0.893582524 68.2070272,0.881349515 C68.3415903,0.878631068 68.4788718,0.889504854 68.613435,0.881349515 C69.0144058,0.855524272 69.2006194,1.04173786 69.1951825,1.43999029 C69.1911049,1.75668932 69.2033379,2.07338835 69.1992602,2.39008738 C69.1951825,2.70134951 69.3270272,2.84950485 69.6505223,2.82639806 C69.8761534,2.80872816 70.1031437,2.82096117 70.3287748,2.81824272 C70.5639204,2.81416505 70.8289689,2.83319417 70.8982893,3.08465049 C70.9893573,3.40678641 71.0287748,3.76426214 70.8643087,4.07552427 C70.7555709,4.28076699 70.5027553,4.22775728 70.3043087,4.22639806 C69.0293573,4.21824272 69.2060563,4.24950485 69.1992602,5.40484466 C69.1924641,6.58193204 69.1883864,7.75766019 69.2033379,8.93474757 C69.2142117,9.92698058 69.4955709,10.2531942 70.482367,10.4135825" id="Fill-5"></path>
                    <path d="M63.1942117,6.46096117 C63.7175126,6.44736893 63.7732408,6.37668932 63.7474155,5.86154369 C63.7406194,5.70387379 63.7338233,5.54620388 63.7161534,5.38853398 C63.6359592,4.6491165 63.2485806,4.21416505 62.5200369,4.01571845 C62.1204252,3.90833981 61.7126583,3.91241748 61.3103282,3.93824272 C59.775765,4.0361068 59.5243087,4.68037864 59.422367,5.973 C59.3911049,6.35086408 59.5637262,6.49358252 59.9470272,6.4745534 C60.4866388,6.44872816 61.0289689,6.46775728 61.5699398,6.46775728 L61.5699398,6.46367961 C62.1109107,6.46367961 62.6532408,6.4745534 63.1942117,6.46096117 M65.631299,7.17047573 C65.685668,7.60406796 65.5144058,7.75358252 65.0128524,7.76445631 C64.1769301,7.78212621 63.3382893,7.76853398 62.5010078,7.76853398 L62.5010078,7.7753301 C61.6637262,7.7753301 60.8264447,7.76309709 59.9891631,7.77940777 C59.4617845,7.79028155 59.4210078,7.85552427 59.4033379,8.38018447 C59.3897456,8.76892233 59.446833,9.14814563 59.5637262,9.51649515 C59.7186777,10.0030971 60.0448913,10.337466 60.5206194,10.501932 C61.3415903,10.7873689 62.1693573,10.720767 62.9889689,10.4842621 C63.2105223,10.4203786 63.4184835,10.2803786 63.5177068,10.0792136 C63.7460563,9.61435922 64.1171243,9.49882524 64.5833379,9.56814563 C64.8810078,9.613 65.3050854,9.39552427 65.4464447,9.73668932 C65.5714932,10.0357184 65.3377068,10.3796019 65.1569301,10.6704757 C64.7885806,11.2644563 64.2204252,11.5865922 63.5761534,11.7646505 C62.283532,12.1221262 60.9759592,12.0949417 59.6928524,11.7429029 C58.4260563,11.396301 57.8443087,10.3877573 57.6485806,9.19979612 C57.4460563,7.97241748 57.4433379,6.70833981 57.6526583,5.47960194 C57.9679981,3.62018447 59.0567359,2.68232039 60.9351825,2.55047573 C61.6800369,2.49746602 62.4221728,2.53416505 63.1575126,2.71901942 C64.3549883,3.01940777 65.0604252,3.78193204 65.375765,4.94950485 C65.5728524,5.67668932 65.5402311,6.42969903 65.631299,7.17047573" id="Fill-7"></path>
                    <path d="M55.5947942,11.2454272 C55.6043087,11.6355243 55.4017845,11.804068 55.0171243,11.840767 C53.7720757,11.9590194 53.6633379,11.8679515 53.6619786,10.6161068 C53.6619786,9.05571845 53.6687748,7.49397087 53.6606194,5.93358252 C53.6538233,4.64775728 53.2270272,4.22232039 51.953435,4.20465049 C51.5918816,4.19921359 51.2303282,4.19649515 50.8674155,4.20193204 C50.2272214,4.21280583 50.1864447,4.24678641 50.182367,4.91280583 C50.1755709,6.36037864 50.1796485,7.80795146 50.1796485,9.25552427 C50.1796485,9.9106699 50.1728524,10.5671748 50.1782893,11.2236796 C50.182367,11.6423204 49.9975126,11.8244563 49.5679981,11.8462039 C48.411299,11.9073689 48.3406194,11.8543592 48.3406194,10.6813495 L48.3406194,7.22076699 C48.3406194,5.97571845 48.3338233,4.73202913 48.3419786,3.48833981 C48.3474155,2.74076699 48.4180951,2.67416505 49.1670272,2.67008738 C50.2530466,2.66465049 51.339066,2.66057282 52.4250854,2.67280583 C52.9918816,2.67960194 53.5478039,2.77338835 54.0711049,3.0098932 C54.9097456,3.38503883 55.3650854,4.04290291 55.4724641,4.94134951 C55.7212019,7.03863107 55.5431437,9.14406796 55.5947942,11.2454272" id="Fill-9"></path>
                    <path d="M42.4103282,10.4326117 C43.815765,10.2232913 44.4681922,9.38736893 44.290134,7.98872816 C44.253435,7.70329126 44.125668,7.59319417 43.857901,7.5945534 C43.383532,7.59727184 42.9105223,7.59591262 42.4375126,7.59591262 L42.4375126,7.59863107 C42.0759592,7.59863107 41.715765,7.59183495 41.3555709,7.59863107 C40.1349883,7.62173786 39.7408136,8.05397087 39.8237262,9.2745534 C39.8645029,9.89435922 40.1879981,10.2803786 40.7996485,10.391835 C41.3324641,10.4869806 41.8639204,10.514165 42.4103282,10.4326117 L42.4103282,10.4326117 Z M46.0883864,8.34620388 C46.0883864,9.2514466 46.0924641,10.1566893 46.085668,11.061932 C46.0829495,11.3229029 46.1740175,11.6559126 45.8491631,11.7782427 C45.5270272,11.8992136 45.1804252,11.8801845 44.8746,11.6749417 C44.8188718,11.6368835 44.7726583,11.5838738 44.7155709,11.5471748 C44.4926583,11.4058155 44.5402311,10.9491165 44.1922699,11.0075631 C43.9693573,11.0442621 43.7872214,11.2780485 43.5711049,11.396301 C42.1303282,12.1968835 40.6678039,12.0827087 39.2052796,11.4656214 C38.9116874,11.341932 38.6738233,11.1217379 38.4848913,10.8594078 C37.8637262,9.99358252 37.8229495,8.24154369 38.4318816,7.36484466 C38.9606194,6.60639806 39.7843087,6.39843689 40.6324641,6.35086408 C41.6043087,6.29513592 42.5788718,6.32639806 43.5520757,6.31416505 C44.2643087,6.30600971 44.3132408,6.24892233 44.290134,5.52445631 C44.2575126,4.54717476 43.7627553,4.00892233 42.7949883,3.9368835 C42.366833,3.90562136 41.9318816,3.8906699 41.5064447,3.93280583 C41.0021728,3.98309709 40.5237262,4.153 40.2546,4.63552427 C40.0887748,4.93047573 39.859066,5.05280583 39.5314932,5.02018447 C39.4648913,5.01338835 39.3942117,5.02969903 39.3276097,5.01882524 C39.006833,4.96853398 38.5446971,5.19416505 38.3951825,4.84484466 C38.245668,4.49280583 38.5433379,4.12717476 38.7567359,3.80503883 C39.1033379,3.28581553 39.6198427,2.98542718 40.1852796,2.82639806 C41.3270272,2.50562136 42.4932408,2.41319417 43.6744058,2.66057282 C45.2062505,2.97999029 46.0353767,3.92736893 46.0788718,5.49319417 C46.1046971,6.44329126 46.0829495,7.39474757 46.0829495,8.34620388 L46.0883864,8.34620388 Z" id="Fill-11"></path>
                    <path d="M36.0532408,3.57804854 C36.0600369,4.82309709 36.0546,6.06814563 36.0559592,7.31183495 C36.0559592,8.5568835 36.0600369,9.80193204 36.0546,11.0469806 C36.0505223,11.7673689 35.9839204,11.828534 35.2866388,11.840767 C35.1507165,11.8421262 35.0147942,11.8434854 34.8788718,11.8353301 C34.3881922,11.804068 34.2780951,11.6939709 34.2794544,11.2223204 C34.2848913,9.09513592 34.2930466,6.96795146 34.2998427,4.84076699 C34.3012019,4.36503883 34.2862505,3.89202913 34.2454738,3.41766019 C34.2019786,2.90795146 34.3963476,2.71901942 34.9019786,2.67824272 C34.9685806,2.67280583 35.037901,2.6768835 35.1058621,2.67552427 C35.9689689,2.66329126 36.0491631,2.73261165 36.0532408,3.57804854" id="Fill-13"></path>
                    <path d="M35.0419786,0.481737864 C35.8996485,0.479019417 36.115765,0.643485437 36.0410078,1.14639806 C36.030134,1.213 36.0233379,1.28639806 35.9879981,1.33940777 C35.6876097,1.80154369 35.2173184,1.57591262 34.819066,1.60037864 C34.4724641,1.62212621 34.2998427,1.36387379 34.2536291,1.04853398 C34.2128524,0.767174757 34.3528524,0.564650485 34.6342117,0.506203883 C34.806833,0.469504854 34.9903282,0.484456311 35.0419786,0.481737864" id="Fill-15"></path>
                    <path d="M30.5021728,8.30678641 C30.5076097,7.94387379 30.503532,7.58232039 30.503532,7.21940777 L30.5021728,7.21940777 C30.5021728,6.90270874 30.503532,6.58600971 30.5021728,6.26931068 C30.4953767,4.82853398 29.9843087,4.2522233 28.5571243,4.09727184 C28.2200369,4.06057282 27.8829495,4.08096117 27.5445029,4.14212621 C26.613435,4.30659223 26.0466388,4.86115534 25.8359592,5.76096117 C25.5953767,6.78717476 25.5940175,7.83105825 25.8386777,8.85319417 C26.0697456,9.81416505 26.753435,10.3429029 27.7375126,10.4054272 C28.0079981,10.4230971 28.2825612,10.4298932 28.5516874,10.4054272 C29.7410078,10.2980485 30.4845029,9.49338835 30.5021728,8.30678641 M32.213435,1.15727184 C32.2188718,1.29319417 32.2147942,1.4291165 32.2147942,1.56503883 L32.2147942,6.18639806 C32.2147942,7.77125243 32.2175126,9.35746602 32.2120757,10.9436796 C32.2107165,11.2495049 32.3004252,11.6192136 31.9239204,11.7768835 C31.5582893,11.931835 31.1600369,11.8611553 30.9303282,11.5539709 C30.582367,11.091835 30.277901,11.1856214 29.8470272,11.4234854 C28.9716874,11.9073689 28.0147942,12.0759126 27.0212019,11.9182427 C25.3588718,11.6531942 24.4563476,10.580767 24.0907165,9.01494175 C23.8039204,7.78620388 23.8175126,6.54387379 24.1559592,5.31921359 C24.6085806,3.68406796 25.8019786,2.7353301 27.4996485,2.63338835 C28.3763476,2.58037864 29.2109107,2.71766019 30.0087748,3.09552427 C30.4151825,3.28853398 30.4804252,3.2491165 30.4980951,2.80329126 C30.5171243,2.30581553 30.4980951,1.80698058 30.5048913,1.30814563 C30.5171243,0.519796117 30.5646971,0.477660194 31.3747942,0.483097087 C31.4427553,0.484456311 31.5107165,0.481737864 31.5786777,0.485815534 C32.0815903,0.518436893 32.1903282,0.63261165 32.213435,1.15727184" id="Fill-17"></path>
                    <path d="M20.5608136,6.08581553 C20.7293573,5.10445631 20.1476097,4.2345534 19.1730466,4.00484466 C18.8142117,3.92057282 18.4553767,3.92600971 18.0951825,3.93416505 C16.7944058,3.96406796 16.1596485,4.57571845 16.0617845,5.88465049 C16.0264447,6.36309709 16.0821728,6.44329126 16.5674155,6.45824272 C17.1314932,6.47591262 17.6969301,6.46232039 18.2610078,6.46232039 L18.2610078,6.45960194 C18.8699398,6.45960194 19.4802311,6.45824272 20.0891631,6.45960194 C20.3474155,6.46096117 20.5118816,6.36717476 20.5608136,6.08581553 M22.0314932,4.44659223 C22.4229495,5.35727184 22.4732408,6.3291165 22.4569301,7.30639806 C22.450134,7.71416505 22.1864447,7.7753301 21.8602311,7.77397087 C20.9780951,7.77261165 20.0959592,7.77397087 19.2138233,7.77397087 L19.2138233,7.77804854 C18.377901,7.77804854 17.5406194,7.76717476 16.7033379,7.78076699 C16.0889689,7.79164078 16.0413961,7.85280583 16.0427553,8.44542718 C16.0441146,9.93241748 16.7549883,10.6487282 18.2446971,10.6772718 C18.6769301,10.6867864 19.102367,10.6514466 19.5210078,10.5454272 C19.9246971,10.4434854 20.3107165,10.2994078 20.4887748,9.88212621 C20.5975126,9.62931068 20.7918816,9.56814563 21.0324641,9.56678641 C21.2132408,9.56406796 21.3940175,9.56270874 21.5747942,9.56406796 C22.371299,9.56814563 22.4936291,9.76931068 22.1279981,10.477466 C21.7324641,11.2467864 21.0215903,11.6083398 20.2441146,11.8013495 C19.0439204,12.0976602 17.8206194,12.0990194 16.6177068,11.8027087 C15.3916874,11.5009612 14.6142117,10.720767 14.330134,9.47164078 C13.9767359,7.92212621 13.9740175,6.36853398 14.4171243,4.84620388 C14.7351825,3.7561068 15.5045029,3.0506699 16.6217845,2.75164078 C17.8342117,2.42950485 19.0344058,2.4553301 20.2332408,2.81824272 C21.0922699,3.07785437 21.683532,3.63649515 22.0314932,4.44659223" id="Fill-19"></path>
                    <path d="M12.3837262,4.87474757 C12.485668,5.45649515 12.5142117,6.04096117 12.510134,6.63086408 C12.5006194,8.12600971 12.5128524,9.62115534 12.5046971,11.116301 C12.5019786,11.6994078 12.3959592,11.8013495 11.8522699,11.8380485 C10.5528524,11.9250388 10.5338233,11.9073689 10.5338233,10.580767 C10.5324641,9.17668932 10.5351825,7.77261165 10.5351825,6.36853398 C10.5351825,6.07494175 10.5311049,5.78270874 10.4794544,5.4891165 C10.319066,4.59202913 9.99285243,4.23999029 9.09440583,4.21960194 C7.28663883,4.18018447 7.64547379,3.99125243 7.62780388,5.58154369 C7.60605631,7.39338835 7.62508544,9.20523301 7.62100777,11.0170777 C7.61828932,11.7605728 7.54081359,11.8312524 6.79867767,11.840767 C5.65964854,11.8543592 5.65964854,11.8543592 5.65828932,10.7465922 C5.65828932,8.91164078 5.66100777,7.07668932 5.6569301,5.24173786 C5.65421165,4.37183495 5.48974563,4.21008738 4.62935728,4.20193204 C4.24333786,4.19785437 3.85867767,4.20193204 3.47401748,4.20057282 C2.74411456,4.19921359 2.73867767,4.19921359 2.73731845,4.96309709 C2.7346,6.36717476 2.73595922,7.77125243 2.73595922,9.17668932 C2.73595922,9.81008738 2.74003689,10.4448447 2.7346,11.0782427 C2.72916311,11.7768835 2.68159029,11.8230971 2.01557087,11.8394078 C0.7746,11.8693107 0.7746,11.8693107 0.775959223,10.6460097 L0.775959223,3.7153301 C0.777318447,2.67552427 0.781396117,2.67008738 1.85246408,2.66872816 C3.05265825,2.66736893 4.25421165,2.66872816 5.45440583,2.66872816 L5.45440583,2.67008738 C6.6777068,2.67008738 7.89964854,2.66600971 9.12294951,2.67280583 C9.71421165,2.67552427 10.3000369,2.74892233 10.8559592,2.95960194 C11.7367359,3.29668932 12.2246971,3.95319417 12.3837262,4.87474757" id="Fill-21"></path>
                </g>
                <g id="Group" transform="translate(8.000000, 0.000000)">
                    <path d="M31.9754584,30.8726199 C31.9819586,28.4902651 31.9787085,26.1079104 31.9787085,23.7255556 L31.9689581,23.7255556 C31.9689581,21.3432009 31.9949592,18.9608461 31.9592076,16.5784914 C31.9299563,14.5081504 31.0166662,13.6046106 28.9853269,13.5526084 C28.010284,13.5266072 27.0352411,13.5266072 26.0601983,13.5526084 C23.9443553,13.6046106 23.0310651,14.5276512 23.0115642,16.6662453 C22.9920634,19.3183619 23.005064,21.9704785 23.005064,24.6258452 C23.005064,26.6831857 22.982313,28.7405261 23.0180645,30.7978666 C23.050566,32.7057005 23.7460965,33.3817302 25.6051783,33.6352413 C26.9052354,33.8139992 28.1955422,33.7977485 29.489099,33.6709929 C31.1174206,33.514986 31.9722082,32.5464435 31.9754584,30.8726199 M47.8751574,30.3265959 C47.8914081,24.1025722 47.8946583,17.8752984 47.8784075,11.6480246 C47.865407,8.05986686 46.1948335,6.40879427 42.5774245,6.3957937 C37.5949554,6.37954299 32.6157365,6.39254356 27.6332674,6.39254356 L12.3640961,6.39254356 C12.2568414,6.39254356 12.1463365,6.39254356 12.0390818,6.3957937 C8.97419706,6.46729684 7.34262533,8.00786458 7.11836547,11.0564986 C7.08586404,11.5440201 7.1053649,12.0315415 7.1053649,12.5190629 C7.10211476,17.6640391 7.10211476,22.8057652 7.1053649,27.9507414 C7.1053649,28.8705318 7.07286347,29.7935724 7.1281159,30.7101127 C7.23212047,32.4294383 8.30791777,33.5052356 10.0239932,33.60599 C11.0477882,33.6677428 12.0813337,33.6417416 13.1083788,33.6709929 C13.6771538,33.6839935 14.1646753,33.4824846 14.6326958,33.1932219 C15.7832464,32.4814406 16.0627587,31.3893926 16.0595086,30.1218369 C16.0400077,24.9216082 16.0400077,19.7246297 16.0595086,14.5276512 C16.069259,12.4443096 17.047552,11.407514 19.1341438,11.3912633 C24.6561365,11.3522616 30.1781293,11.3457613 35.7001221,11.3945135 C38.0759766,11.4140143 38.9177636,12.3338048 38.9242639,14.6836581 C38.9340143,19.3411129 38.9242639,23.9953175 38.927514,28.6527723 C38.927514,29.3548031 38.8950126,30.0633343 38.9535152,30.762115 C39.1160223,32.6764492 39.8538047,33.3882305 41.7876398,33.6612425 C42.8179351,33.8074989 43.8287295,33.7587468 44.8590248,33.6449918 C47.1666263,33.3979809 47.8719073,32.6796993 47.8751574,30.3265959 M54.8304632,6.18453441 C54.8369635,15.499444 54.8467139,24.8176036 54.8272131,34.1325132 C54.8207128,37.4769102 52.4578589,39.8430143 49.093961,39.8527647 C41.8363919,39.8787658 34.5788228,39.8625151 27.3212537,39.8625151 L27.3212537,39.8657653 C20.3334465,39.8657653 13.3456393,39.8722655 6.35783203,39.8625151 C2.3244047,39.8560148 0.120807812,37.6654185 0.117557669,33.6449918 C0.10780724,24.6550965 0.182560527,15.6619511 0.0818060967,6.67205585 C0.0395542391,2.95389237 2.45441041,0.0970167655 6.68934661,0.0937666226 C20.5544562,0.0742657652 34.4195658,0.080766051 48.2846754,0.0905164797 C51.3950622,0.0937666226 53.6604118,1.64083464 54.5997031,4.2669501 C54.8272131,4.90072797 54.8304632,5.53775598 54.8304632,6.18453441" id="Fill-23" fill="#F75763"></path>
                    <path d="M31.9787085,23.7255556 C31.9787085,26.1079104 31.9819586,28.4902651 31.9754584,30.8726199 C31.9722082,32.5464435 31.1174206,33.514986 29.489099,33.6709929 C28.1955422,33.7977485 26.9052354,33.8139992 25.6051783,33.6352413 C23.7460965,33.3817302 23.050566,32.7057005 23.0180645,30.7978666 C22.982313,28.7405261 23.005064,26.6831857 23.005064,24.6258452 C23.005064,21.9704785 22.9920634,19.3183619 23.0115642,16.6662453 C23.0310651,14.5276512 23.9443553,13.6046106 26.0601983,13.5526084 C27.0352411,13.5266072 28.010284,13.5266072 28.9853269,13.5526084 C31.0166662,13.6046106 31.9299563,14.5081504 31.9592076,16.5784914 C31.9949592,18.9608461 31.9689581,21.3432009 31.9689581,23.7255556 L31.9787085,23.7255556 Z" id="Fill-1" fill="#FFFFFF"></path>
                    <path d="M47.8784075,11.6480246 C47.8946583,17.8752984 47.8914081,24.1025722 47.8751574,30.3265959 C47.8719073,32.6796993 47.1666263,33.3979809 44.8590248,33.6449918 C43.8287295,33.7587468 42.8179351,33.8074989 41.7876398,33.6612425 C39.8538047,33.3882305 39.1160223,32.6764492 38.9535152,30.762115 C38.8950126,30.0633343 38.927514,29.3548031 38.927514,28.6527723 C38.9242639,23.9953175 38.9340143,19.3411129 38.9242639,14.6836581 C38.9177636,12.3338048 38.0759766,11.4140143 35.7001221,11.3945135 C30.1781293,11.3457613 24.6561365,11.3522616 19.1341438,11.3912633 C17.047552,11.407514 16.069259,12.4443096 16.0595086,14.5276512 C16.0400077,19.7246297 16.0400077,24.9216082 16.0595086,30.1218369 C16.0627587,31.3893926 15.7832464,32.4814406 14.6326958,33.1932219 C14.1646753,33.4824846 13.6771538,33.6839935 13.1083788,33.6709929 C12.0813337,33.6417416 11.0477882,33.6677428 10.0239932,33.60599 C8.30791777,33.5052356 7.23212047,32.4294383 7.1281159,30.7101127 C7.07286347,29.7935724 7.1053649,28.8705318 7.1053649,27.9507414 C7.10211476,22.8057652 7.10211476,17.6640391 7.1053649,12.5190629 C7.1053649,12.0315415 7.08586404,11.5440201 7.11836547,11.0564986 C7.34262533,8.00786458 8.97419706,6.46729684 12.0390818,6.3957937 C12.1463365,6.39254356 12.2568414,6.39254356 12.3640961,6.39254356 L27.6332674,6.39254356 C32.6157365,6.39254356 37.5949554,6.37954299 42.5774245,6.3957937 C46.1948335,6.40879427 47.865407,8.05986686 47.8784075,11.6480246" id="Fill-3" fill="#FFFFFF"></path>
                </g>
            </g>
        </g>
    </g>
</svg>