<?xml version="1.0" encoding="UTF-8"?>
<svg width="100px" height="100px" viewBox="0 0 100 100" version="1.1" xmlns="http://www.w3.org/2000/svg" xmlns:xlink="http://www.w3.org/1999/xlink">
    <!-- Generator: Sketch 45 (43475) - http://www.bohemiancoding.com/sketch -->
    <title>napster</title>
    <desc>Created with Sketch.</desc>
    <defs></defs>
    <g id="default---square-logos" stroke="none" stroke-width="1" fill="none" fill-rule="evenodd">
        <g id="napster" fill-rule="nonzero" fill="#111111">
            <g id="napster-logo" transform="translate(8.000000, 10.000000)">
                <g id="Group">
                    <path d="M50.2208032,57.1369592 C47.8650856,59.4141528 44.9597006,61.1416791 41.8187439,62.2410139 C38.6777871,61.220203 35.850926,59.4141528 33.4952085,57.1369592 L50.2208032,57.1369592 Z" id="Shape"></path>
                    <path d="M26.1139601,23.8428175 C22.8159555,21.0944804 18.8897595,18.9743346 14.570944,17.7964758 L14.570944,43.709369 L14.570944,44.73018 C14.570944,59.8067724 26.7421514,71.899456 41.8972678,71.899456 C57.0523842,71.899456 69.2235916,59.8067724 69.2235916,44.73018 L69.2235916,43.3952734 L69.2235916,17.7964758 C64.9047761,18.9743346 60.9785801,21.0159565 57.6805755,23.8428175 C53.2047121,20.7018608 47.8650856,18.8172867 41.9757917,18.8172867 C36.0079739,18.8958106 30.5112995,20.7018608 26.1139601,23.8428175 Z M26.192484,15.9904256 C30.8253952,13.5561842 36.1650217,12.2212775 41.8972678,12.2212775 C47.55099,12.2212775 52.8906165,13.6347081 57.5235277,15.9904256 C58.6228625,15.2837104 59.8007213,14.655519 60.9000562,14.1058516 C55.8745254,9.47294037 49.1999923,6.64607928 41.8972678,6.64607928 C34.5160194,6.64607928 27.8414863,9.47294037 22.8159555,14.1058516 C23.8367664,14.655519 25.0931491,15.3622343 26.192484,15.9904256 Z M16.2199463,11.5930862 C22.5018598,4.60445739 31.6106344,0.128594007 41.8187439,0.128594007 C52.0268534,0.128594007 61.135628,4.52593347 67.4175415,11.5930862 C70.0873547,10.8863709 72.9142158,10.4152274 75.7410769,10.4152274 L75.7410769,21.9582435 C80.1384163,24.7065807 83.0438014,29.5750636 83.0438014,35.1502619 C83.0438014,40.7254601 80.1384163,45.5939431 75.662553,48.3422803 L75.584029,48.6563759 C73.7779789,65.6175424 59.17253,78.5739891 41.5831721,78.5739891 C23.9938143,78.5739891 9.54541317,65.3819707 7.73936304,48.3422803 C3.34202357,45.5939431 0.436638572,40.6469362 0.436638572,35.1502619 C0.436638572,29.5750636 3.34202357,24.7065807 7.73936304,21.9582435 L7.73936304,10.4152274 C10.723272,10.4937513 13.550133,10.8863709 16.2199463,11.5930862 Z" id="Shape"></path>
                    <path d="M50.2993271,44.73018 C54.8537144,44.1805126 62.4705346,44.2590365 62.4705346,44.2590365 C62.3134867,45.5939431 62.4705346,49.6771869 58.0731951,52.1114284 C57.3664798,52.5825719 55.5604297,53.1322393 53.8329035,53.2107632 C49.5926119,53.3678111 43.624794,53.446335 43.624794,53.446335 C44.7241289,48.7348999 46.530179,45.2013235 50.2993271,44.73018 Z" id="Shape"></path>
                    <path d="M33.3381606,44.73018 C37.1073087,45.2013235 38.9133589,48.7348999 39.9341698,53.446335 C39.9341698,53.446335 33.966352,53.3678111 29.7260604,53.2107632 C27.9985341,53.1322393 26.192484,52.504048 25.4857687,52.1114284 C21.0884293,49.598663 21.2454771,45.5939431 21.0884293,44.2590365 C21.0884293,44.2590365 28.7837733,44.2590365 33.3381606,44.73018 Z" id="Shape"></path>
                    <path d="M49.8281836,66.3242577 C47.55099,67.7376883 44.8026528,68.5229275 41.8187439,68.5229275 C38.834835,68.5229275 36.0864978,67.7376883 33.8093041,66.3242577 C33.8093041,66.3242577 33.966352,65.3819707 34.4374955,64.7537793 C34.9871629,63.8900162 35.4583064,63.6544445 35.4583064,63.6544445 C37.4214044,64.2041119 39.5415502,64.5182076 41.8187439,64.5182076 C44.0174136,64.5182076 46.2160833,64.2041119 48.1791813,63.6544445 C48.1791813,63.6544445 48.8073727,63.9685401 49.3570401,64.8323033 C49.7496597,65.6960664 49.8281836,66.3242577 49.8281836,66.3242577 Z" id="Shape"></path>
                </g>
            </g>
        </g>
    </g>
</svg>