<?xml version="1.0" encoding="UTF-8"?>
<svg width="100px" height="100px" viewBox="0 0 100 100" version="1.1" xmlns="http://www.w3.org/2000/svg" xmlns:xlink="http://www.w3.org/1999/xlink">
    <!-- Generator: Sketch 52.6 (67491) - http://www.bohemiancoding.com/sketch -->
    <title>netease</title>
    <desc>Created with Sketch.</desc>
    <g id="netease" stroke="none" stroke-width="1" fill="none" fill-rule="evenodd">
        <g id="NetEase_Music_logo" transform="translate(5.000000, 5.000000)">
            <path d="M16.938,0 L73.221,0 C76.92,0.159 80.559,1.521 83.433,3.855 C87.384,6.984 89.868,11.895 90,16.941 L90,73.269 C89.85,82.035 82.059,89.838 73.293,90 L16.62,90 C11.694,89.751 6.924,87.312 3.861,83.442 C1.536,80.586 0.177,76.974 0,73.299 L0,16.608 C0.204,12.975 1.551,9.408 3.846,6.579 C6.975,2.619 11.889,0.138 16.938,0 Z M44.631,20.082 C44.451,22.686 45.561,25.122 46.131,27.612 C41.589,28.887 37.368,31.719 34.938,35.82 C33.114,38.814 32.385,42.396 32.652,45.873 C32.781,49.539 34.314,53.178 36.987,55.713 C39.762,58.44 43.872,59.772 47.712,59.103 C51.771,58.533 55.455,55.89 57.342,52.257 C59.109,49.032 59.073,45.144 58.158,41.667 C57.498,39.315 56.802,36.972 56.043,34.65 C59.271,35.403 61.983,37.536 64.155,39.957 C67.278,43.521 68.523,48.486 67.809,53.133 C67.314,57.438 65.04,61.386 61.995,64.401 C57.762,68.547 51.771,70.599 45.906,70.617 C40.794,70.761 35.691,68.994 31.644,65.892 C26.568,62.028 23.103,56.121 22.224,49.803 C21.531,44.997 22.293,39.981 24.483,35.637 C27.141,30.222 31.881,25.866 37.512,23.697 C38.613,23.319 39.666,22.65 40.242,21.609 C41.307,19.965 40.59,17.532 38.877,16.635 C37.779,16.011 36.414,15.996 35.232,16.386 C28.377,18.897 22.464,23.853 18.741,30.129 C15.498,35.553 13.884,41.97 14.328,48.285 C14.832,57.315 19.401,66.003 26.499,71.598 C31.8,75.828 38.529,78.264 45.321,78.264 C52.557,78.33 59.91,76.083 65.544,71.469 C70.512,67.395 74.166,61.614 75.333,55.266 C76.158,50.379 75.72,45.213 73.647,40.677 C71.478,35.793 67.539,31.836 62.937,29.19 C60.174,27.675 57.036,26.871 53.895,26.736 C53.469,25.131 52.932,23.553 52.65,21.915 C52.371,20.286 53.178,18.33 54.912,17.928 C56.895,17.502 58.836,18.561 60.357,19.743 C61.995,21.018 64.818,21.114 66.093,19.281 C67.2,17.469 66.603,14.898 64.95,13.611 C62.475,11.577 59.319,10.29 56.103,10.206 C50.553,9.924 45.033,14.46 44.631,20.082 Z" id="Shape" fill="#E20000" fill-rule="nonzero"></path>
            <path d="M40.713,41.64 C41.694,38.217 44.871,35.961 48.132,34.941 C49.116,38.001 50.079,41.07 50.916,44.172 C51.255,45.81 51.237,47.637 50.298,49.086 C48.798,51.678 44.85,52.518 42.579,50.451 C40.146,48.294 39.879,44.604 40.713,41.64 Z" id="Path" fill="#E20000"></path>
            <path d="M44.631,20.082 C45.033,14.46 50.553,9.924 56.103,10.206 C59.319,10.29 62.475,11.577 64.95,13.611 C66.603,14.898 67.2,17.469 66.093,19.281 C64.818,21.114 61.995,21.018 60.357,19.743 C58.836,18.561 56.895,17.502 54.912,17.928 C53.178,18.33 52.371,20.286 52.65,21.915 C52.932,23.553 53.469,25.131 53.895,26.736 C57.036,26.871 60.174,27.675 62.937,29.19 C67.539,31.836 71.478,35.793 73.647,40.677 C75.72,45.213 76.158,50.379 75.333,55.266 C74.166,61.614 70.512,67.395 65.544,71.469 C59.91,76.083 52.557,78.33 45.321,78.264 C38.529,78.264 31.8,75.828 26.499,71.598 C19.401,66.003 14.832,57.315 14.328,48.285 C13.884,41.97 15.498,35.553 18.741,30.129 C22.464,23.853 28.377,18.897 35.232,16.386 C36.414,15.996 37.779,16.011 38.877,16.635 C40.59,17.532 41.307,19.965 40.242,21.609 C39.666,22.65 38.613,23.319 37.512,23.697 C31.881,25.866 27.141,30.222 24.483,35.637 C22.293,39.981 21.531,44.997 22.224,49.803 C23.103,56.121 26.568,62.028 31.644,65.892 C35.691,68.994 40.794,70.761 45.906,70.617 C51.771,70.599 57.762,68.547 61.995,64.401 C65.04,61.386 67.314,57.438 67.809,53.133 C68.523,48.486 67.278,43.521 64.155,39.957 C61.983,37.536 59.271,35.403 56.043,34.65 C56.802,36.972 57.498,39.315 58.158,41.667 C59.073,45.144 59.109,49.032 57.342,52.257 C55.455,55.89 51.771,58.533 47.712,59.103 C43.872,59.772 39.762,58.44 36.987,55.713 C34.314,53.178 32.781,49.539 32.652,45.873 C32.385,42.396 33.114,38.814 34.938,35.82 C37.368,31.719 41.589,28.887 46.131,27.612 C45.561,25.122 44.451,22.686 44.631,20.082 Z M40.713,41.64 C39.879,44.604 40.146,48.294 42.579,50.451 C44.85,52.518 48.798,51.678 50.298,49.086 C51.237,47.637 51.255,45.81 50.916,44.172 C50.079,41.07 49.116,38.001 48.132,34.941 C44.871,35.961 41.694,38.217 40.713,41.64 Z" id="Shape" fill="#FFFFFF" fill-rule="nonzero"></path>
        </g>
    </g>
</svg>