<?xml version="1.0" encoding="UTF-8"?>
<svg width="100px" height="100px" viewBox="0 0 100 100" version="1.1" xmlns="http://www.w3.org/2000/svg" xmlns:xlink="http://www.w3.org/1999/xlink">
    <!-- Generator: Sketch 45 (43475) - http://www.bohemiancoding.com/sketch -->
    <title>nokia</title>
    <desc>Created with Sketch.</desc>
    <defs></defs>
    <g id="default---square-logos" stroke="none" stroke-width="1" fill="none" fill-rule="evenodd">
        <g id="nokia" fill-rule="nonzero" fill="#1C4598">
            <g id="Nokia_wordmark" transform="translate(3.000000, 42.000000)">
                <path d="M4.5261,15.64865 L0,15.64865 L0,0.25615 L7.82785,0.25615 L16.808375,11.74765 L16.808375,0.25615 L21.334475,0.25615 L21.334475,15.64865 L13.66525,15.64865 L4.5261,3.960925 L4.5261,15.64865 M42.989725,10.888725 C42.989725,13.0284 42.611375,13.7663 41.9851,14.47365 C41.025125,15.52645 39.62805,15.8437 36.936125,15.8437 L29.20815,15.8437 C26.516225,15.8437 25.1168,15.52645 24.158,14.47365 C23.531725,13.7663 23.153375,13.0284 23.153375,10.888725 L23.153375,4.954975 C23.153375,2.816475 23.531725,2.07975 24.158,1.371225 C25.117975,0.31725 26.516225,0 29.20815,0 L36.936125,0 C39.62805,0 41.025125,0.31725 41.9851,1.371225 C42.611375,2.07975 42.989725,2.816475 42.989725,4.954975 L42.989725,10.888725 M36.745775,11.943875 C37.779775,11.943875 38.144025,11.882775 38.39195,11.657175 C38.623425,11.44685 38.72565,11.175425 38.72565,10.270675 L38.72565,5.573025 C38.72565,4.668275 38.623425,4.3992 38.39195,4.1877 C38.144025,3.960925 37.779775,3.901 36.745775,3.901 L29.397325,3.901 C28.363325,3.901 27.999075,3.960925 27.752325,4.1877 C27.519675,4.3992 27.41745,4.668275 27.41745,5.573025 L27.41745,10.270675 C27.41745,11.175425 27.519675,11.44685 27.752325,11.657175 C27.999075,11.882775 28.363325,11.943875 29.397325,11.943875 L36.745775,11.943875 L36.745775,11.943875 M49.567375,0.25615 L49.567375,15.64865 L44.838,15.64865 L44.838,0.25615 L49.567375,0.25615 M57.557375,0.25615 L63.801325,0.25615 L55.374225,7.455375 L64.8788,15.64865 L58.19775,15.64865 L49.567375,7.62105 L57.557375,0.25615 M65.75065,0.25615 L70.4812,0.25615 L70.4812,15.64865 L65.75065,15.64865 M88.513925,15.64865 L87.1145,12.9673 L77.962425,12.9673 L76.57945,15.647475 L71.354225,15.647475 L79.73785,0.25615 L85.61755,0.25615 L94,15.64865 L88.513925,15.64865 M79.60625,9.624425 L85.487125,9.624425 L82.5461,4.0514 L79.60625,9.624425" id="Shape"></path>
            </g>
        </g>
    </g>
</svg>