<?xml version="1.0" encoding="UTF-8"?>
<svg width="100px" height="100px" viewBox="0 0 100 100" version="1.1" xmlns="http://www.w3.org/2000/svg" xmlns:xlink="http://www.w3.org/1999/xlink">
    <!-- Generator: Sketch 45 (43475) - http://www.bohemiancoding.com/sketch -->
    <title>pandora</title>
    <desc>Created with Sketch.</desc>
    <defs>
        <linearGradient x1="0%" y1="100%" x2="88.6023163%" y2="14.908724%" id="linearGradient-1">
            <stop stop-color="#00A0EE" offset="0%"></stop>
            <stop stop-color="#386AFF" offset="100%"></stop>
        </linearGradient>
    </defs>
    <g id="default---square-logos" stroke="none" stroke-width="1" fill="none" fill-rule="evenodd">
        <g id="pandora">
            <g id="vertical" transform="translate(1.000000, 19.000000)">
                <g id="Group" transform="translate(0.000000, 42.000000)">
                    <path d="M46.1237716,9.82565336 C46.1216225,12.0403961 47.8874851,13.8247411 50.0823842,13.8258156 C52.1412439,13.8268186 54.0691503,12.2199911 54.0598374,9.83869137 C54.0504529,7.44120161 52.1112278,5.87699839 50.0954939,5.87463436 C47.9079018,5.87212705 46.1259208,7.64551155 46.1237716,9.82565336 L46.1237716,9.82565336 Z M56.3786693,7.16374269e-06 C56.3750874,0.142995468 56.3684968,0.286055409 56.3684968,0.429043713 C56.3679237,5.41765921 56.3679953,10.4062747 56.3679953,15.3949618 L56.3679953,15.8753624 L55.7486898,15.8753624 C55.2951532,15.8753624 54.8416167,15.875649 54.3881518,15.8752908 C53.9715801,15.8749326 53.9715085,15.8746461 53.9711503,15.4414545 C53.971007,15.2752557 53.9711503,15.1089852 53.9711503,14.8751607 C52.1251971,16.2236636 50.1422015,16.621323 47.9939383,15.9619004 C46.5515187,15.5191811 45.4177132,14.6360349 44.584355,13.3800876 C42.919931,10.8714165 43.2321985,7.55553494 45.3637702,5.35032003 C47.3471956,3.29833757 50.9235509,2.56254956 53.9455041,4.7938405 C53.9549602,4.67735804 53.9698608,4.57864167 53.9700757,4.47978202 C53.971795,3.51310658 53.9982292,2.54542822 53.962124,1.58004225 C53.9355465,0.867822953 54.1501006,0.328966228 54.8026459,7.16374269e-06 L56.3786693,7.16374269e-06 Z" id="Fill-1" fill="#03A0ED"></path>
                    <path d="M6.27271637,13.8259374 C8.45586696,13.8230719 10.2550409,12.0140836 10.2440088,9.83293889 C10.2329766,7.64656462 8.43459064,5.86924006 6.23854532,5.87432632 C4.05389035,5.87948421 2.2896038,7.67278392 2.2924693,9.88530585 C2.29526316,12.0493292 4.09257456,13.8288029 6.27271637,13.8259374 L6.27271637,13.8259374 Z M0,3.7967693 C0.59523538,3.80622544 1.19047076,3.81639795 1.78570614,3.82485117 C1.96279386,3.82735848 2.14002485,3.82520936 2.34605409,3.82520936 L2.34605409,4.85628684 C3.91691959,3.6742693 5.61916813,3.20439942 7.49212865,3.5278424 C9.37848538,3.85364942 10.8466228,4.85019766 11.8610088,6.47464795 C13.3990643,8.93754269 13.0516944,12.133145 11.0889006,14.2511772 C9.30154678,16.1798 5.6304152,17.3006392 2.36417836,14.8861713 C2.36417836,15.0163365 2.36417836,15.1170588 2.36417836,15.2177094 C2.36417836,16.2200602 2.33545175,17.2235573 2.37399269,18.2244038 C2.40114327,18.9304623 2.15449561,19.4202474 1.50438596,19.7002781 L0,19.7002781 L0,3.7967693 Z" id="Fill-3" fill="#02A0ED"></path>
                    <path d="M95.7482064,4.17978596 C96.8334418,4.1844424 97.7123614,3.3164117 97.7117167,2.24063246 C97.7110719,1.15797602 96.8426114,0.289228947 95.7600982,0.288297661 C94.6751494,0.287366374 93.8168614,1.15339123 93.8203,2.24557544 C93.8237386,3.31497895 94.681167,4.17520117 95.7482064,4.17978596 L95.7482064,4.17978596 Z M97.9999857,2.7938883 C97.9500544,2.89468216 97.8935325,2.9927538 97.8511231,3.09662807 C97.4771041,4.01208275 96.4955997,4.59879327 95.530357,4.48123626 C94.4487035,4.34942339 93.6515939,3.55267193 93.518993,2.47087515 C93.4008629,1.50656374 93.988648,0.522695322 94.9033863,0.148891228 C95.0072605,0.106481871 95.1053322,0.0499599415 95.206126,2.86549708e-05 L96.20905,2.86549708e-05 C96.4930208,0.130552047 96.7921787,0.236145614 97.0578102,0.396971637 C97.5794023,0.712677778 97.8140865,1.23921287 97.9999857,1.79096433 L97.9999857,2.7938883 Z" id="Fill-5" fill="#12A6EE"></path>
                    <path d="M24.8145671,9.86510409 C24.8202265,7.67815673 23.0482747,5.88120351 20.8795949,5.87461287 C18.6713712,5.86787895 16.8855218,7.63567573 16.8784297,9.83515965 C16.8714092,12.0200295 18.645725,13.8192035 20.8139034,13.8256509 C23.0234165,13.8323132 24.8088361,12.0647313 24.8145671,9.86510409 M24.7230145,4.81416404 L24.7230145,3.82477953 C25.0021139,3.82477953 25.2600086,3.82470789 25.5179034,3.82477953 C25.9594765,3.82477953 26.4014077,3.83516696 26.842551,3.82040965 C27.0660598,3.81295936 27.1517382,3.89290673 27.123513,4.10960994 C27.1173522,4.15653246 27.1226534,4.20495936 27.1226534,4.25274152 C27.1226534,7.98841842 27.122725,11.7240953 27.1225101,15.4598439 C27.1225101,15.8744813 27.121937,15.875126 26.7229882,15.8754126 C26.0694399,15.875914 25.4158917,15.8755558 24.7260232,15.8755558 L24.7260232,14.9078058 C21.1849136,17.489762 17.2785963,15.9772094 15.6090861,13.7729974 C13.7518142,11.3209199 13.8622791,7.85682047 15.9452089,5.53841842 C17.9981227,3.25347105 21.718899,2.5683307 24.7230145,4.81416404" id="Fill-7" fill="#03A1ED"></path>
                    <path d="M86.0718025,5.87438363 C83.8761154,5.87252105 82.0881885,7.6542155 82.0856811,9.84675058 C82.0831738,12.0377096 83.8716022,13.8260664 86.0648537,13.8259231 C88.2350379,13.8257798 90.0335671,12.035274 90.0370773,9.87153713 C90.0406592,7.67613655 88.2550963,5.8762462 86.0718025,5.87438363 L86.0718025,5.87438363 Z M92.3291168,3.84675789 L92.3291168,15.8534056 L89.9764004,15.8534056 L89.9764004,14.8509114 C88.0989268,16.2332988 86.091861,16.6283792 83.9215335,15.9484684 C82.5463814,15.5175693 81.4496841,14.677119 80.6323727,13.4878661 C78.9940963,11.1042023 79.1529165,7.87227982 81.0079677,5.7141307 C82.1400539,4.39707661 83.572301,3.62912339 85.2977601,3.46292456 C87.001513,3.29880322 88.5468039,3.76265556 89.9592791,4.85569942 L89.9592791,3.84675789 L92.3291168,3.84675789 Z" id="Fill-9" fill="#02A0ED"></path>
                    <path d="M68.2933488,9.84154254 C68.2865433,7.72021506 66.5634482,6.01431301 64.4356734,6.01703523 C62.5454482,6.01954254 60.6244906,7.50831155 60.632514,9.85873553 C60.6406091,12.2467692 62.6077012,13.70237 64.4887567,13.6854636 C66.5835784,13.6665513 68.3000827,11.9432414 68.2933488,9.84154254 M64.4618927,16.2619037 C61.1117684,16.2915615 58.0471193,13.6098145 58.0473342,9.84899284 C58.0475491,6.07678085 61.1405667,3.39238319 64.5361091,3.43214196 C67.8380213,3.47075453 70.879245,6.08924576 70.8782421,9.85142851 C70.8773108,13.6380396 67.794824,16.2924928 64.4618927,16.2619037" id="Fill-11" fill="#02A0ED"></path>
                    <path d="M41.8364221,15.8574817 L39.2571165,15.8574817 L39.2571165,15.4752961 C39.2571165,13.6015475 39.2590507,11.727799 39.2566867,9.85405044 C39.2538212,7.63128436 37.3772788,5.88010746 35.1542262,6.02173465 C33.2041838,6.14602558 31.6031589,7.8321557 31.5942042,9.78850219 C31.5854645,11.6741425 31.59227,13.5598545 31.59227,15.4455665 C31.59227,15.5750154 31.59227,15.7044642 31.59227,15.8544013 L29.0129645,15.8544013 L29.0129645,15.4504379 C29.0129645,13.612508 29.0129645,11.7745782 29.0129645,9.93664839 C29.0130361,6.77571857 31.0812086,4.21654313 34.168137,3.55762208 C37.5290785,2.84017325 40.9706838,5.07490278 41.6837627,8.45318056 C41.7790405,8.90449635 41.8258197,9.37379313 41.8297598,9.83535307 C41.8458066,11.7089583 41.8364221,13.5827785 41.8364221,15.456527 L41.8364221,15.8574817 Z" id="Fill-13" fill="#02A0ED"></path>
                    <path d="M75.0761667,15.858456 L72.5144839,15.858456 C72.5081082,15.739323 72.4976491,15.6355203 72.4976491,15.5316461 C72.4966462,13.5386928 72.4788801,11.5454531 72.5024488,9.5527864 C72.5224357,7.85540921 73.0227515,6.33519137 74.318386,5.15876155 C75.2936579,4.27317968 76.4715921,3.8126943 77.7493889,3.58746623 C78.2020658,3.50766213 78.6633392,3.47671477 79.1485395,3.42026447 L79.1485395,5.96611535 C78.603307,6.06998962 78.0662412,6.12400424 77.5594781,6.27788143 C75.9689123,6.76078933 75.0853363,7.97045892 75.0781009,9.63624401 C75.0697909,11.5694516 75.0761667,13.5028025 75.0761667,15.4361534 L75.0761667,15.858456 Z" id="Fill-15" fill="#02A0ED"></path>
                    <path d="M95.2745971,1.26816871 L95.2745971,2.20110292 C95.5301278,2.20110292 95.7668178,2.21944211 95.9992813,2.19601667 C96.2336789,2.17237632 96.4215123,1.94177544 96.4180737,1.73266579 C96.4142053,1.49260877 96.2255123,1.28915848 95.9629611,1.27124912 C95.7414582,1.25620526 95.5180211,1.26816871 95.2745971,1.26816871 M96.135464,2.53915994 C96.3507345,2.86489532 96.5458032,3.1601848 96.7529787,3.47374181 C96.5025342,3.56823158 96.3424246,3.52983392 96.2240079,3.31399035 C96.1269392,3.13704591 95.9937652,2.97973012 95.8983442,2.80199766 C95.7676775,2.55871696 95.5920225,2.4473924 95.2531058,2.57132515 C95.2531058,2.78014825 95.2570459,3.02407368 95.2519596,3.26778421 C95.2470167,3.50762632 95.243005,3.50755468 94.9301643,3.50483246 L94.9301643,0.953966959 C95.3233822,0.953966959 95.7148807,0.926959649 96.1007199,0.961918713 C96.4569728,0.994155556 96.6788339,1.24545965 96.7428061,1.58831637 C96.8087842,1.94184708 96.6681599,2.24408538 96.3482988,2.43141725 C96.2871921,2.46716433 96.2218588,2.49567602 96.135464,2.53915994" id="Fill-17" fill="#13A6EE"></path>
                </g>
                <path d="M49.9702324,1.0658141e-14 C49.9409734,1.0658141e-14 49.9257884,0.00029629337 49.9257884,0.00029629337 L49.9257884,0.00029629337 L36,0.00029629337 L36,30 L44.1480677,30 C45.4567214,30 45.3826481,28.7654196 45.3826481,28.7654196 L45.3826481,28.7654196 L45.3826481,22.8889591 C52.555392,22.8889591 61.2342693,21.555639 61.2342693,10.6668576 L61.2342693,10.6668576 C61.2342693,0.236664329 50.8582977,0.00125924682 49.9843804,1.0658141e-14 L49.9843804,1.0658141e-14 L49.9702324,1.0658141e-14 Z" id="Page-1" fill="url(#linearGradient-1)"></path>
            </g>
        </g>
    </g>
</svg>