<?xml version="1.0" encoding="UTF-8"?>
<svg width="100px" height="100px" viewBox="0 0 100 100" version="1.1" xmlns="http://www.w3.org/2000/svg" xmlns:xlink="http://www.w3.org/1999/xlink">
    <!-- Generator: Sketch 45 (43475) - http://www.bohemiancoding.com/sketch -->
    <title>pulselocker</title>
    <desc>Created with Sketch.</desc>
    <defs>
        <polygon id="path-1" points="0.0381818182 0.171181818 0.0381818182 17.8181818 40.0963182 17.8181818 80.1544545 17.8181818 80.1544545 0.171181818"></polygon>
    </defs>
    <g id="default---square-logos" stroke="none" stroke-width="1" fill="none" fill-rule="evenodd">
        <g id="pulselocker">
            <g id="vertical" transform="translate(1.000000, 11.000000)">
                <g id="Group-4" transform="translate(0.000000, 61.090909)">
                    <mask id="mask-2" fill="white">
                        <use xlink:href="#path-1"></use>
                    </mask>
                    <g id="Clip-2"></g>
                    <path d="M79.9724545,12.3422727 C80.0933636,12.5000909 80.1544545,12.6820909 80.1544545,12.8876364 C80.1544545,13.0944545 80.0749091,13.2700909 79.9177273,13.4151818 C79.7599091,13.5609091 79.5842727,13.6334545 79.3901818,13.6334545 C79.0993636,13.6334545 78.8505455,13.5189091 78.6443636,13.2879091 L75.5153636,9.03127273 L73.9327273,10.4688182 L73.9327273,12.8150909 C73.9327273,13.0454545 73.8506364,13.2401818 73.6870909,13.3973636 C73.5229091,13.5545455 73.3256364,13.6334545 73.0959091,13.6334545 C72.8649091,13.6334545 72.6708182,13.5545455 72.5136364,13.3973636 C72.3558182,13.2401818 72.2769091,13.0454545 72.2769091,12.8150909 L72.2769091,1.00863636 C72.2769091,0.778272727 72.3558182,0.581 72.5136364,0.416818182 C72.6708182,0.253272727 72.8649091,0.171181818 73.0959091,0.171181818 C73.3256364,0.171181818 73.5229091,0.253272727 73.6870909,0.416818182 C73.8506364,0.581 73.9327273,0.778272727 73.9327273,1.00863636 L73.9327273,8.449 L78.2625455,4.44627273 C78.456,4.28909091 78.6742727,4.21018182 78.9173636,4.21018182 C79.1598182,4.21018182 79.3354545,4.29863636 79.4449091,4.47427273 C79.5537273,4.64990909 79.6084545,4.79881818 79.6084545,4.91972727 C79.6084545,5.18636364 79.5053636,5.42309091 79.2991818,5.62927273 L76.6792727,7.97554545 L79.9724545,12.3422727" id="Fill-1" fill="#020609" mask="url(#mask-2)"></path>
                    <path d="M6.67672727,11.487 C6.38527273,11.7415455 6.06072727,11.9299091 5.70309091,12.0508182 C5.34545455,12.1723636 4.99418182,12.2328182 4.648,12.2328182 C4.30245455,12.2328182 3.95054545,12.1723636 3.59290909,12.0508182 C3.23527273,11.9299091 2.91327273,11.739 2.62881818,11.4780909 C2.34372727,11.2171818 2.11018182,10.8748182 1.92818182,10.4503636 C1.74681818,10.0259091 1.65581818,9.513 1.65581818,8.91290909 C1.65581818,8.31218182 1.74681818,7.80054545 1.92818182,7.37545455 C2.43790909,6.19945455 3.34727273,5.61081818 4.65690909,5.61081818 C5.45745455,5.61081818 6.13072727,5.85963636 6.67672727,6.35727273 C7.33154545,6.96372727 7.65863636,7.812 7.65863636,8.90336364 C7.65863636,10.0316364 7.33154545,10.8932727 6.67672727,11.487 Z M8.04109091,5.42945455 C7.19218182,4.54363636 6.06390909,4.10136364 4.65690909,4.10136364 C3.23845455,4.10136364 2.11018182,4.54363636 1.27336364,5.42945455 C0.424454545,6.31463636 0,7.47854545 0,8.92181818 L0,16.9998182 C0,17.2301818 0.0789090909,17.4242727 0.236090909,17.5814545 C0.393909091,17.7392727 0.591181818,17.8181818 0.827909091,17.8181818 C1.064,17.8181818 1.26127273,17.7392727 1.41909091,17.5814545 C1.57627273,17.4242727 1.65581818,17.2301818 1.65581818,16.9998182 L1.65581818,12.7673636 C2.44363636,13.4158182 3.44272727,13.7429091 4.65690909,13.7429091 C6.06390909,13.7429091 7.19218182,13.3 8.04109091,12.4148182 C8.89,11.5175455 9.31445455,10.353 9.31445455,8.92181818 C9.31445455,7.49127273 8.89,6.32672727 8.04109091,5.42945455 L8.04109091,5.42945455 Z" id="Fill-3" fill="#020609" mask="url(#mask-2)"></path>
                </g>
                <path d="M15.2084545,73.2874545 C16.2756364,73.2874545 17.2702727,72.7051818 18.1923636,71.5406364 L18.1923636,66.0838182 C18.1923636,65.8528182 18.2738182,65.6587273 18.438,65.5009091 C18.6015455,65.3437273 18.7981818,65.2648182 19.0291818,65.2648182 C19.2595455,65.2648182 19.4536364,65.3437273 19.6108182,65.5009091 C19.7686364,65.6587273 19.8475455,65.8528182 19.8475455,66.0838182 L19.8475455,73.8875455 C19.8475455,74.1306364 19.7686364,74.3310909 19.6108182,74.4882727 C19.4536364,74.6454545 19.2595455,74.7243636 19.0291818,74.7243636 C18.7981818,74.7243636 18.6015455,74.6454545 18.438,74.4882727 C18.2738182,74.3310909 18.1923636,74.1306364 18.1923636,73.8875455 L18.1923636,73.1417273 C17.7068182,73.6514545 17.2887273,74.0090909 16.9368182,74.2152727 C16.2457273,74.6155455 15.5877273,74.8153636 14.9628182,74.8153636 C14.3385455,74.8153636 13.8262727,74.7218182 13.426,74.5334545 C13.0257273,74.3457273 12.6859091,74.088 12.4071818,73.7602727 C11.837,73.094 11.5519091,72.2565455 11.5519091,71.2504545 L11.5519091,66.0838182 C11.5519091,65.8528182 11.634,65.6587273 11.7975455,65.5009091 C11.9610909,65.3437273 12.1583636,65.2648182 12.3887273,65.2648182 C12.6190909,65.2648182 12.8131818,65.3437273 12.971,65.5009091 C13.1288182,65.6587273 13.2077273,65.8528182 13.2077273,66.0838182 L13.2077273,71.0684545 C13.2077273,71.7589091 13.3623636,72.3023636 13.6716364,72.6962727 C13.9809091,73.0908182 14.4931818,73.2874545 15.2084545,73.2874545" id="Fill-5" fill="#020609"></path>
                <path d="M23.1038182,61.4988182 C23.2616364,61.3416364 23.4582727,61.2620909 23.695,61.2620909 C23.9317273,61.2620909 24.1283636,61.3416364 24.2861818,61.4988182 C24.444,61.6566364 24.5229091,61.8564545 24.5229091,62.0995455 L24.5229091,73.906 C24.5229091,74.1363636 24.444,74.3310909 24.2861818,74.4882727 C24.1283636,74.6454545 23.9317273,74.7243636 23.695,74.7243636 C23.4582727,74.7243636 23.2616364,74.6454545 23.1038182,74.4882727 C22.946,74.3310909 22.8677273,74.1363636 22.8677273,73.906 L22.8677273,62.0995455 C22.8677273,61.8564545 22.946,61.6566364 23.1038182,61.4988182" id="Fill-6" fill="#020609"></path>
                <path d="M30.4900909,73.2874545 C31.836,73.2874545 32.5092727,72.8572727 32.5092727,71.9962727 C32.5092727,71.729 32.3756364,71.526 32.109,71.3866364 C31.8417273,71.2472727 31.5050909,71.1225455 31.0990909,71.0130909 C30.6924545,70.9042727 30.2533636,70.7922727 29.7805455,70.6770909 C29.3070909,70.5619091 28.8673636,70.4009091 28.4613636,70.1947273 C28.0547273,69.9885455 27.7180909,69.7187273 27.4520909,69.3852727 C27.1848182,69.0518182 27.0511818,68.6426364 27.0511818,68.1577273 C27.0511818,67.6721818 27.1243636,67.2540909 27.2700909,66.9015455 C27.4151818,66.5502727 27.6334545,66.2473636 27.9249091,65.9928182 C28.5676364,65.4468182 29.4591818,65.1738182 30.5989091,65.1738182 C31.5089091,65.1738182 32.3877273,65.3252727 33.2366364,65.6288182 C33.4065455,65.6892727 33.537,65.786 33.628,65.9196364 C33.719,66.0532727 33.7641818,66.2015455 33.7641818,66.3650909 C33.7641818,66.5292727 33.6941818,66.6839091 33.5554545,66.8296364 C33.4154545,66.9747273 33.2792727,67.0472727 33.1456364,67.0472727 C33.012,67.0472727 32.8484545,67.0173636 32.655,66.9569091 C32.0727273,66.7742727 31.4357273,66.6839091 30.7446364,66.6839091 C30.0529091,66.6839091 29.5285455,66.8048182 29.1709091,67.0472727 C28.8132727,67.2903636 28.6344545,67.5811818 28.6344545,67.921 C28.6344545,68.2601818 28.7706364,68.5121818 29.0436364,68.6757273 C29.3166364,68.8392727 29.6532727,68.9760909 30.0529091,69.0855455 C30.4531818,69.1943636 30.8929091,69.3038182 31.3720909,69.4126364 C31.8512727,69.5214545 32.291,69.6735455 32.6912727,69.867 C33.6369091,70.3525455 34.1103636,71.1040909 34.1103636,72.1229091 C34.1103636,72.8992727 33.8189091,73.5305455 33.2366364,74.0148182 C32.606,74.5493636 31.7271818,74.8153636 30.5989091,74.8153636 C29.3739091,74.8153636 28.2704545,74.5423636 27.2879091,73.997 C27.0817273,73.8519091 26.9786364,73.6692727 26.9786364,73.451 C26.9786364,73.2333636 27.0454545,73.0481818 27.1790909,72.8960909 C27.3120909,72.7452727 27.4578182,72.6689091 27.6156364,72.6689091 C27.7728182,72.6689091 27.9611818,72.7172727 28.1794545,72.8146364 C28.8826364,73.1302727 29.6532727,73.2874545 30.4900909,73.2874545" id="Fill-7" fill="#020609"></path>
                <path d="M40.0769091,66.5744545 C38.9976364,66.5744545 38.2091818,67.0536364 37.7121818,68.0113636 C37.5301818,68.3511818 37.4270909,68.7571818 37.4029091,69.2306364 L42.7693636,69.2306364 C42.721,68.3696364 42.4053636,67.6906364 41.8237273,67.193 C41.3388182,66.7806364 40.7565455,66.5744545 40.0769091,66.5744545 Z M38.3307273,72.5416364 C38.8519091,73.0265455 39.5799091,73.269 40.5140909,73.269 C41.4476364,73.269 42.2297273,73.1118182 42.8603636,72.7961818 C43.0786364,72.6867273 43.267,72.6326364 43.4248182,72.6326364 C43.582,72.6326364 43.7340909,72.6994545 43.8791818,72.8324545 C44.0249091,72.9660909 44.0974545,73.1175455 44.0974545,73.2874545 C44.0974545,73.6030909 43.967,73.8302727 43.7067273,73.9696364 C43.4458182,74.1096364 43.2122727,74.2273636 43.0060909,74.3240909 C42.7999091,74.4214545 42.5759091,74.5060909 42.3328182,74.5792727 C41.7868182,74.7364545 41.1561818,74.8153636 40.4409091,74.8153636 C38.9492727,74.8153636 37.7910909,74.3972727 36.9663636,73.5604545 C36.1416364,72.7236364 35.7292727,71.5349091 35.7292727,69.9942727 C35.7292727,68.6604545 36.0748182,67.5506364 36.7659091,66.6654545 C37.5422727,65.6714545 38.6457273,65.1738182 40.0769091,65.1738182 C41.4355455,65.1738182 42.5084545,65.6345455 43.2975455,66.5566364 C44.037,67.4176364 44.4067273,68.4848182 44.4067273,69.7581818 C44.4067273,69.9885455 44.331,70.1826364 44.1795455,70.3404545 C44.0274545,70.4982727 43.8250909,70.5765455 43.5699091,70.5765455 L37.4029091,70.5765455 C37.4996364,71.4019091 37.8089091,72.0567273 38.3307273,72.5416364 L38.3307273,72.5416364 Z" id="Fill-8" fill="#020609"></path>
                <path d="M47.0266364,61.4988182 C47.1838182,61.3416364 47.3810909,61.2620909 47.6178182,61.2620909 C47.8545455,61.2620909 48.0511818,61.3416364 48.209,61.4988182 C48.3668182,61.6566364 48.4457273,61.8564545 48.4457273,62.0995455 L48.4457273,73.906 C48.4457273,74.1363636 48.3668182,74.3310909 48.209,74.4882727 C48.0511818,74.6454545 47.8545455,74.7243636 47.6178182,74.7243636 C47.3810909,74.7243636 47.1838182,74.6454545 47.0266364,74.4882727 C46.8688182,74.3310909 46.7899091,74.1363636 46.7899091,73.906 L46.7899091,62.0995455 C46.7899091,61.8564545 46.8688182,61.6566364 47.0266364,61.4988182" id="Fill-9" fill="#020609"></path>
                <path d="M53.5302727,72.5505455 C53.8147273,72.8114545 54.1367273,73.003 54.4943636,73.1239091 C54.852,73.2448182 55.2039091,73.3052727 55.5494545,73.3052727 C55.895,73.3052727 56.2469091,73.2448182 56.6045455,73.1239091 C56.9621818,73.003 57.2867273,72.8146364 57.5781818,72.5594545 C58.233,71.9657273 58.5600909,71.1040909 58.5600909,69.9764545 C58.5600909,68.8850909 58.233,68.0361818 57.5781818,67.4297273 C57.0321818,66.9320909 56.3589091,66.6839091 55.5583636,66.6839091 C54.2487273,66.6839091 53.3393636,67.2719091 52.8296364,68.4479091 C52.6476364,68.873 52.5566364,69.3852727 52.5566364,69.9853636 C52.5566364,70.5860909 52.6476364,71.0983636 52.8296364,71.5228182 C53.0116364,71.9472727 53.2451818,72.2902727 53.5302727,72.5505455 Z M55.5583636,65.1738182 C56.9653636,65.1738182 58.093,65.6167273 58.9425455,66.5019091 C59.7914545,67.3991818 60.2159091,68.5637273 60.2159091,69.9942727 C60.2159091,71.4260909 59.7914545,72.59 58.9425455,73.4872727 C58.093,74.3730909 56.9653636,74.8153636 55.5583636,74.8153636 C54.1399091,74.8153636 53.0116364,74.3730909 52.1748182,73.4872727 C51.3259091,72.6027273 50.9014545,71.4381818 50.9014545,69.9942727 C50.9014545,68.5516364 51.3259091,67.3870909 52.1748182,66.5019091 C53.0116364,65.6167273 54.1399091,65.1738182 55.5583636,65.1738182 L55.5583636,65.1738182 Z" id="Fill-10" fill="#020609"></path>
                <path d="M86.0115455,66.5744545 C84.9322727,66.5744545 84.1438182,67.0536364 83.6468182,68.0113636 C83.4648182,68.3511818 83.3617273,68.7571818 83.3375455,69.2306364 L88.7046364,69.2306364 C88.6556364,68.3696364 88.3406364,67.6906364 87.7583636,67.193 C87.2734545,66.7806364 86.6911818,66.5744545 86.0115455,66.5744545 Z M84.2653636,72.5416364 C84.7865455,73.0265455 85.5145455,73.269 86.4487273,73.269 C87.3822727,73.269 88.1643636,73.1118182 88.795,72.7961818 C89.0132727,72.6867273 89.2016364,72.6326364 89.3594545,72.6326364 C89.5166364,72.6326364 89.6687273,72.6994545 89.8138182,72.8324545 C89.9595455,72.9660909 90.0320909,73.1175455 90.0320909,73.2874545 C90.0320909,73.6030909 89.9016364,73.8302727 89.6413636,73.9696364 C89.3804545,74.1096364 89.1469091,74.2273636 88.9407273,74.3240909 C88.7345455,74.4214545 88.5105455,74.5060909 88.2674545,74.5792727 C87.7220909,74.7364545 87.0914545,74.8153636 86.3755455,74.8153636 C84.8839091,74.8153636 83.7257273,74.3972727 82.901,73.5604545 C82.0762727,72.7236364 81.6639091,71.5349091 81.6639091,69.9942727 C81.6639091,68.6604545 82.0094545,67.5506364 82.7011818,66.6654545 C83.4769091,65.6714545 84.5803636,65.1738182 86.0115455,65.1738182 C87.3701818,65.1738182 88.4430909,65.6345455 89.2321818,66.5566364 C89.9716364,67.4176364 90.3413636,68.4848182 90.3413636,69.7581818 C90.3413636,69.9885455 90.2656364,70.1826364 90.1141818,70.3404545 C89.9627273,70.4982727 89.7597273,70.5765455 89.5045455,70.5765455 L83.3375455,70.5765455 C83.4342727,71.4019091 83.7435455,72.0567273 84.2653636,72.5416364 L84.2653636,72.5416364 Z" id="Fill-11" fill="#020609"></path>
                <path d="M94.2346364,66.8837273 C95.0835455,65.744 96.0355455,65.1738182 97.0906364,65.1738182 L97.1816364,65.1738182 C97.412,65.1738182 97.6029091,65.2527273 97.755,65.4105455 C97.9064545,65.5677273 97.9821818,65.765 97.9821818,66.0017273 C97.9821818,66.2378182 97.9032727,66.4261818 97.7460909,66.5655455 C97.5882727,66.7049091 97.3878182,66.7742727 97.1453636,66.7742727 L97.0543636,66.7742727 C96.4479091,66.7742727 95.9050909,66.9231818 95.4265455,67.2203636 C94.9467273,67.5181818 94.5502727,67.9025455 94.2346364,68.376 L94.2346364,73.906 C94.2346364,74.1363636 94.1525455,74.3310909 93.989,74.4882727 C93.8254545,74.6454545 93.6281818,74.7243636 93.3978182,74.7243636 C93.1674545,74.7243636 92.9733636,74.6454545 92.8155455,74.4882727 C92.6577273,74.3310909 92.5794545,74.1363636 92.5794545,73.906 L92.5794545,66.1016364 C92.5794545,65.8712727 92.6577273,65.674 92.8155455,65.5104545 C92.9733636,65.3462727 93.1674545,65.2648182 93.3978182,65.2648182 C93.6281818,65.2648182 93.8254545,65.3462727 93.989,65.5104545 C94.1525455,65.674 94.2346364,65.8712727 94.2346364,66.1016364 L94.2346364,66.8837273" id="Fill-12" fill="#020609"></path>
                <path d="M66.9282727,73.269 C67.6072727,73.269 68.2563636,73.0997273 68.8749091,72.7599091 C69.0931818,72.639 69.2872727,72.5779091 69.4571818,72.5779091 C69.6270909,72.5779091 69.7785455,72.6568182 69.9121818,72.8146364 C70.0451818,72.9724545 70.112,73.1601818 70.112,73.3784545 C70.112,73.5967273 69.9726364,73.7965455 69.6932727,73.9785455 C68.8322727,74.5366364 67.8624545,74.8153636 66.7825455,74.8153636 C65.4366364,74.8153636 64.3026364,74.3909091 63.3811818,73.5426364 C62.4107273,72.6447273 61.9258182,71.4623636 61.9258182,69.9942727 C61.9258182,68.5274545 62.4107273,67.3450909 63.3811818,66.4471818 C64.3026364,65.5982727 65.4366364,65.1738182 66.7825455,65.1738182 C67.5105455,65.1738182 68.1080909,65.268 68.5745455,65.4557273 C69.0416364,65.6434545 69.4145455,65.8286364 69.6932727,66.0106364 C69.9726364,66.1926364 70.112,66.3930909 70.112,66.6113636 C70.112,66.8296364 70.0451818,67.0173636 69.9121818,67.1751818 C69.7785455,67.3323636 69.6449091,67.4112727 69.5119091,67.4112727 C69.3057273,67.4112727 69.0931818,67.3508182 68.8749091,67.2299091 C68.2563636,66.8900909 67.6072727,66.7201818 66.9282727,66.7201818 C65.8610909,66.7201818 65.0363636,67.0205455 64.4540909,67.6206364 C63.8718182,68.2207273 63.581,69.0123636 63.581,69.9942727 C63.581,70.9774545 63.8718182,71.7684545 64.4540909,72.3685455 C65.0363636,72.9692727 65.8610909,73.269 66.9282727,73.269" id="Fill-13" fill="#020609"></path>
                <path d="M72.2228182,49.8355455 C72.2228182,50.5355455 71.6500909,51.1082727 70.9500909,51.1082727 L22.5864545,51.1082727 C21.8864545,51.1082727 21.3137273,50.5355455 21.3137273,49.8355455 L21.3137273,1.47190909 C21.3137273,0.771909091 21.8864545,0.199181818 22.5864545,0.199181818 L70.9500909,0.199181818 C71.6500909,0.199181818 72.2228182,0.771909091 72.2228182,1.47190909 L72.2228182,49.8355455" id="Fill-14" fill="#020609"></path>
                <path d="M44.9444545,25.6537273 C44.9444545,24.6412727 45.7609091,23.8197273 46.7708182,23.8101818 L46.7708182,15.9084545 C41.3890909,15.9084545 37.0255455,20.2713636 37.0255455,25.6537273 C37.0255455,31.0360909 41.3890909,35.399 46.7708182,35.399 L46.7708182,27.4972727 C45.7609091,27.4877273 44.9444545,26.6661818 44.9444545,25.6537273" id="Fill-15" fill="#FFFFFE"></path>
                <path d="M48.6054545,25.6537273 C48.6054545,26.6661818 47.789,27.4870909 46.7790909,27.4972727 L46.7790909,35.399 C52.1608182,35.399 56.5243636,31.0354545 56.5243636,25.6537273 C56.5243636,20.2713636 52.1608182,15.9084545 46.7790909,15.9084545 L46.7790909,23.8101818 C47.789,23.8197273 48.6054545,24.6412727 48.6054545,25.6537273" id="Fill-16" fill="#C8C9C4"></path>
                <path d="M46.7708182,35.399 C41.3890909,35.399 37.0255455,31.0360909 37.0255455,25.6537273 L36.9956364,25.6537273 L36.9956364,39.3520909 C36.9956364,42.0540909 39.186,44.2438182 41.8873636,44.2438182 C44.5887273,44.2438182 46.7790909,42.0540909 46.7790909,39.3520909 L46.7790909,35.399 L46.7708182,35.399" id="Fill-17" fill="#E15F30"></path>
            </g>
        </g>
    </g>
</svg>