<?xml version="1.0" encoding="UTF-8"?>
<svg width="100px" height="100px" viewBox="0 0 100 100" version="1.1" xmlns="http://www.w3.org/2000/svg" xmlns:xlink="http://www.w3.org/1999/xlink">
    <!-- Generator: Sketch 45 (43475) - http://www.bohemiancoding.com/sketch -->
    <title>rdio</title>
    <desc>Created with Sketch.</desc>
    <defs>
        <polygon id="path-1" points="0 0 97.9661944 0 97.9661944 37.5868136 0 37.5868136"></polygon>
    </defs>
    <g id="default---square-logos" stroke="none" stroke-width="1" fill="none" fill-rule="evenodd">
        <g id="rdio">
            <g id="Rdio" transform="translate(1.000000, 31.000000)">
                <g id="g10" transform="translate(49.003263, 18.863231) scale(-1, 1) rotate(-180.000000) translate(-49.003263, -18.863231) translate(0.000000, 0.058481)">
                    <g id="g12">
                        <g id="g14">
                            <g id="g16-Clipped">
                                <mask id="mask-2" fill="white">
                                    <use xlink:href="#path-1"></use>
                                </mask>
                                <g id="path20"></g>
                                <g id="g16" mask="url(#mask-2)" fill-rule="nonzero" fill="#2D7BC8">
                                    <path d="M59.3709823,0.582291861 L59.3709823,28.905573 L51.3223476,28.905573 L51.3223476,0.582291861 L59.3709823,0.582291861 Z M51.142064,31.4407356 L51.142064,37.5868136 L59.3887284,37.5868136 L59.3887284,31.4407356 L51.142064,31.4407356 L51.142064,31.4407356 Z" id="path22"></path>
                                    <path d="M20.7709305,28.8437643 C19.6961861,29.2397228 18.4642481,29.4286778 17.0374061,29.3655583 C12.2901394,29.5760909 9.6528362,27.0444573 8.01753883,23.140934 L8.01753883,28.8379162 L1.42108547e-14,28.8379162 L1.42108547e-14,0.565237516 L8.01753883,0.565237516 L8.01753883,11.0089965 C8.01753883,17.4351795 10.9846965,20.653363 15.8636469,20.9493991 C16.8197147,24.2876708 18.559028,26.935662 20.7709305,28.8437643" id="path24"></path>
                                    <path d="M97.0633647,22.8014402 C92.9380159,22.6813519 87.9568242,25.9183905 86.0263376,27.1372207 C85.8470623,27.2500492 85.8102594,27.3545088 85.6253376,27.4489863 C85.4232748,27.5619156 85.2141539,27.6652661 85.0054363,27.7692216 L85.0054363,15.8603195 L84.9994873,15.8603195 C85.006747,14.7943473 84.5445434,13.6695913 83.8781595,12.5915195 L83.8198799,12.4965379 C81.8913091,9.3781961 77.833113,7.56061869 74.0269912,8.84611746 C70.3307739,10.0948739 69.3436505,13.6744312 71.3010587,16.840284 L71.3601449,16.9356689 C73.2869008,20.0527201 77.3450969,21.871689 81.1512187,20.5857062 C81.4446333,20.4866914 81.7156637,20.3688214 81.9727796,20.2403643 L81.9727796,28.8531415 C80.6106704,29.2217751 79.1649733,29.432711 77.6424439,29.432711 C68.8330486,29.432711 62.2927263,22.8395538 62.2927263,14.7164059 L62.2927263,14.6106355 C62.2927263,6.48748756 68.780113,0 77.5366735,0 C86.3451613,0 92.8864919,6.59304623 92.8864919,14.7164059 L92.8864919,14.8219747 C92.8864919,15.4549839 92.8425301,16.076196 92.7658995,16.6871235 C97.3538553,17.8830653 99.2458249,22.6308362 97.0633647,22.8014402" id="path26"></path>
                                    <polyline id="path28" points="90.7570682 2.90137633 89.8393158 2.90137633 89.8393158 3.40552513 92.1584002 3.40552513 92.1584002 2.90137633 91.3517622 2.90137633 91.3517622 0.683121621 90.7570682 0.683121621 90.7570682 2.90137633"></polyline>
                                    <polyline id="path30" points="92.5617193 3.40552513 93.3848934 3.40552513 94.0357495 1.50126437 94.0432109 1.50126437 94.6592808 3.40552513 95.4857823 3.40552513 95.4857823 0.683121621 94.8886685 0.683121621 94.8886685 2.60404954 94.8808037 2.60404954 94.2578775 0.683121621 93.7865992 0.683121621 93.1666978 2.58479105 93.1590348 2.58479105 93.1590348 0.683121621 92.5617193 0.683121621 92.5617193 3.40552513"></polyline>
                                    <path d="M26.723012,16.9886045 L26.6638249,16.8931187 C24.7065176,13.7277701 25.693641,10.1482128 29.3897575,8.89932532 C33.1960809,7.61374589 37.2540754,9.43159554 39.1828479,12.5493727 L39.2410267,12.6448585 C41.1983339,15.8106104 40.2102023,19.3902686 36.5141866,20.6389443 C32.7078632,21.9245237 28.6497679,20.1059582 26.723012,16.9886045 L26.723012,16.9886045 Z M39.7318659,0.582291861 L39.7318659,4.69393788 C37.7804068,2.05672544 35.0897646,0.105280385 30.9229748,0.105280385 C24.3293135,0.105280385 18.0524593,5.27442489 18.0524593,14.7164059 L18.0524593,14.8219747 C18.0524593,24.263875 24.2241481,29.432711 30.9229748,29.432711 C35.195535,29.432711 37.8327374,27.4812518 39.7318659,25.2134897 L39.7318659,37.5868136 L47.793306,37.5868136 L47.793306,0.582291861 L39.7318659,0.582291861 L39.7318659,0.582291861 Z" id="path32"></path>
                                </g>
                            </g>
                        </g>
                    </g>
                </g>
            </g>
        </g>
    </g>
</svg>