<?xml version="1.0" encoding="UTF-8"?>
<svg width="100px" height="100px" viewBox="0 0 100 100" version="1.1" xmlns="http://www.w3.org/2000/svg" xmlns:xlink="http://www.w3.org/1999/xlink">
    <!-- Generator: Sketch 45 (43475) - http://www.bohemiancoding.com/sketch -->
    <title>saavn</title>
    <desc>Created with Sketch.</desc>
    <defs></defs>
    <g id="default---square-logos" stroke="none" stroke-width="1" fill="none" fill-rule="evenodd">
        <g id="saavn" fill="#0AB85E">
            <g id="vertical" transform="translate(17.000000, 7.000000)">
                <g id="saavn">
                    <path d="M22.9081476,0 L42.7958935,0 C49.3910294,0 52.6900187,0 56.2391683,1.11719327 C60.1093163,2.51499483 63.1627828,5.55337098 64.579741,9.41654637 C65.7026197,12.9486396 65.7026197,16.2305725 65.7026197,22.7944383 L65.7026197,42.5883742 C65.7026197,49.15224 65.7026197,52.4341729 64.579741,55.9662661 C63.1627828,59.8294415 60.1093163,62.8678177 56.2391683,64.2656192 C52.6900187,65.3828125 49.3924507,65.3828125 42.7958935,65.3828125 L22.9081476,65.3828125 C16.3130117,65.3828125 13.0140224,65.3828125 9.46487279,64.2656192 C5.59472482,62.8678177 2.54125826,59.8294415 1.1243001,55.9662661 C0,52.4327515 0,49.15224 0,42.5883742 L0,22.7958597 C0,16.2319939 0,12.950061 1.12287874,9.41796773 C2.53931675,5.55414326 5.59289629,2.51513431 9.46345143,1.11719327 C13.0140224,0 16.3115904,0 22.9081476,0 L22.9081476,0 L22.9081476,0 Z M24.2456525,4.40623302 L41.4555459,4.40623302 C47.1637497,4.40623302 50.7811248,4.40623302 53.854117,5.37276155 C56.9347713,6.31558168 59.3499607,8.72066127 60.305695,11.7973336 C61.2764876,14.8532694 61.2764876,18.4535881 61.2764876,24.1333646 L61.2764876,41.253712 C61.2764876,46.9391739 61.2764876,50.5323859 60.305695,53.589743 C59.3483597,56.6642364 56.933434,59.0669252 53.854117,60.0086296 C50.7825462,60.9751581 47.1637497,60.9751581 41.4555459,60.9751581 L24.2456525,60.9751581 C18.5374487,60.9751581 14.9200735,60.9751581 11.8470814,60.0086296 C8.76893934,59.064483 6.35620871,56.6602648 5.40118886,53.5854789 C4.43039623,50.5281218 4.43039623,46.9292244 4.43039623,41.2494479 L4.43039623,24.1305219 C4.43039623,18.44506 4.43039623,14.851848 5.40118886,11.7944908 C6.35740894,8.72133907 8.76994207,6.31891358 11.8470814,5.37560428 C14.9243376,4.40623302 18.5374487,4.40623302 24.2456525,4.40623302 L24.2456525,4.40623302 L24.2456525,4.40623302 Z M47.7195036,56.5703465 L36.9938796,56.5703465 C36.5975975,56.5539835 36.2480102,56.3060648 36.101504,55.9374957 C35.9549978,55.5689266 36.0389826,55.148663 36.3158882,54.8647079 C41.8151513,48.9845189 48.681768,46.9405953 55.2100997,44.7730129 C55.4711735,44.7024784 55.7502183,44.7678347 55.9528163,44.9469679 C56.1554142,45.1261012 56.2544548,45.3950406 56.2164265,45.6627877 L56.2164265,47.8858033 C56.3340516,50.1902979 55.4831352,52.4390711 53.8694038,54.0884352 C52.2556725,55.7377993 50.0260172,56.6376198 47.7195036,56.5703465 Z M27.5744905,55.4716309 C26.0517691,43.2191069 19.4114963,32.1845206 9.29857303,25.1013145 C8.99219552,24.9087473 8.81975687,24.560575 8.85226427,24.2001688 L8.85226427,17.9831162 C8.85226427,11.1449268 13.4901799,9.45492323 15.6392845,9.45492323 C16.0628823,9.42064909 16.4693154,9.62937286 16.6882522,9.99362075 C23.1838925,24.0907237 27.2347841,33.0126349 29.7392301,54.2677344 C29.7520224,54.6827731 29.8174052,54.8803429 30.0689869,54.2535207 C31.838587,50.3874066 40.196216,30.691545 36.8730635,10.5181046 C36.8289099,10.2505889 36.903023,9.97707796 37.0761968,9.76845134 C37.2493705,9.55982473 37.5045589,9.43661808 37.7756306,9.43076002 L47.725189,9.43076002 C50.0209984,9.31463351 52.2580618,10.1792357 53.87904,11.8091606 C55.5000183,13.4390856 56.3522944,15.680874 56.2235333,17.9760093 L56.2235333,26.7216712 C56.2317234,27.0888579 56.0235966,27.4266466 55.6919426,27.58444 C44.4368248,33.3389856 36.0327387,43.4558428 32.4398246,55.5753906 C32.4217389,56.102087 32.0101869,56.530787 31.4846669,56.5703465 L28.4486303,56.5703465 C27.8402858,56.5703465 27.716627,56.327293 27.5744905,55.4716309 Z M17.4358905,56.5746106 C12.2905474,56.5746106 8.85226427,53.4063869 8.85226427,47.8829606 L8.85226427,47.3144144 C8.83758398,47.0409352 8.94866201,46.7757364 9.15386056,46.594353 C9.35905911,46.4129697 9.63588677,46.335283 9.90549609,46.38342 C15.1176433,47.9810348 20.6979243,49.5900206 24.7758218,54.9627821 C24.9983604,55.2604633 25.0387033,55.656568 24.8807489,55.993002 C24.7227944,56.3294361 24.3922629,56.5514167 24.0210768,56.5703465 L17.4358905,56.5703465 L17.4358905,56.5746106 Z" id="Logo"></path>
                </g>
                <g id="saavn" transform="translate(0.000000, 70.000000)">
                    <path d="M10.2246774,9.04466129 C9.59625806,8.37827419 8.38785484,7.71667742 6.59946774,7.05987097 C5.69554531,6.74269909 4.81315886,6.36720036 3.95787097,5.93574194 C3.57088225,5.73678713 3.23082134,5.45751619 2.96041935,5.11659677 C2.74836826,4.81167675 2.63978471,4.44674646 2.65064516,4.0755 C2.64323985,3.48787819 2.96048183,2.94406403 3.47564516,2.66129032 C4.23038267,2.27202677 5.07648772,2.09452865 5.92403226,2.14766129 C7.14074329,2.17498475 8.34287841,2.41865591 9.47419355,2.86727419 C9.59628695,2.95753477 9.75305095,2.98676854 9.89947067,2.946581 C10.0458904,2.90639346 10.1657668,2.80123072 10.2246774,2.66129032 L10.6254677,1.73569355 C10.7081704,1.59835637 10.7192397,1.42947076 10.6551707,1.28251367 C10.5911016,1.13555658 10.4598288,1.02872802 10.3029194,0.995854839 C8.9576402,0.48241469 7.53002556,0.218535952 6.09009677,0.21716129 C4.64006403,0.136607926 3.20127936,0.512825266 1.97627419,1.29285484 C1.0079911,1.95084441 0.443213848,3.058113 0.479032258,4.22825806 C0.461858534,4.8529843 0.611404591,5.47101002 0.912290323,6.01877419 C1.24301129,6.56157441 1.69523862,7.02017885 2.23335484,7.35846774 C3.18086572,7.92014704 4.18358299,8.38298079 5.22570968,8.73967742 C6.28382603,9.09519027 7.28707475,9.59681463 8.20635484,10.23 C8.72212401,10.6342025 9.00628545,11.2660842 8.96642899,11.9201552 C8.92657254,12.5742263 8.56778981,13.1669296 8.00675806,13.5055161 C7.15635666,13.9368501 6.20698314,14.1355391 5.25498387,14.0814194 C4.44440836,14.0762392 3.63771578,13.9689425 2.85396774,13.7620645 C2.55590323,13.6854194 2.11785484,13.5374516 1.77667742,13.4171613 C1.64581876,13.3371334 1.48454998,13.3246114 1.34290642,13.3834803 C1.20126286,13.4423493 1.09637682,13.5654888 1.06079032,13.7146935 L0.741435484,14.4880645 C0.65156748,14.6175286 0.626324735,14.7811646 0.673000768,14.9316922 C0.719676801,15.0822198 0.833070844,15.2028669 0.980419355,15.2587742 C2.32087215,15.7906668 3.75745882,16.037379 5.19856452,15.9831774 C7.08808065,15.9831774 8.55569355,15.5992419 9.60140323,14.831371 C10.6428008,14.0733604 11.232439,12.841863 11.1699677,11.5553226 C11.1987748,10.6264426 10.858952,9.723884 10.2246774,9.04466129 L10.2246774,9.04466129 Z M47.3560645,15.3785323 C48.1459355,13.2894194 51.9792581,2.99075806 52.7898871,0.847887097 C52.9910806,0.378967742 52.4630806,0.448693548 52.4630806,0.448693548 L50.8306452,0.448693548 C50.6016622,0.433076683 50.397113,0.591002323 50.3542742,0.816483871 C48.5579032,5.78724194 47.3975806,9.07553226 46.8738387,10.5791613 C46.5025195,11.5774518 46.182743,12.5941633 45.9157742,13.6252742 L45.8055968,13.6252742 C45.6767903,12.9961452 45.2454839,11.6268226 44.5116774,9.51730645 C44.5116774,9.51730645 41.9951613,2.4648871 41.3931774,0.802112903 C41.3336831,0.581024089 41.1260565,0.432942387 40.8976452,0.448693548 L39.1901613,0.448693548 C39.1901613,0.448693548 38.7813871,0.378967742 38.9628871,0.840435484 C39.7665968,2.96627419 43.5967258,13.2569516 44.3956452,15.3710806 C44.4532984,15.5533292 44.5944986,15.6971004 44.7756774,15.7580323 L46.9313226,15.7580323 C47.1257747,15.7098848 47.2842761,15.5694808 47.3555323,15.3822581 L47.3560645,15.3785323 Z M66,15.2896452 L66,5.8016129 C66,3.86259677 65.5502419,2.4521129 64.6336935,1.57016129 C63.7171452,0.688209677 62.6435806,0.2475 60.8280484,0.2475 C59.8528855,0.23374071 58.8876421,0.444637289 58.0070806,0.863854839 C57.1978928,1.24304671 56.5144245,1.84634609 56.0377258,2.60220968 L55.9275484,2.60220968 C55.9275484,2.60220968 55.7146452,1.33756452 55.6081935,0.771774194 C55.573292,0.581561505 55.3961334,0.451551769 55.2042097,0.475306452 L54.0774194,0.475306452 C53.9716368,0.460655434 53.8650966,0.496380803 53.7895308,0.571842112 C53.713965,0.647303421 53.6780922,0.753794033 53.6925968,0.859596774 L53.6925968,15.2965645 C53.6651124,15.4090409 53.6914818,15.5279026 53.7639524,15.6182041 C53.836423,15.7085056 53.946757,15.7599823 54.0625161,15.7575 L55.5869032,15.7575 C55.703596,15.762235 55.8157571,15.7119789 55.8898942,15.6217387 C55.9640314,15.5314984 55.9915653,15.4117166 55.9642742,15.2981613 L55.9642742,7.74275806 C55.9642742,5.76701613 56.3528226,4.34908065 57.0862742,3.49054839 C57.8197258,2.63201613 58.9752581,2.20248387 60.552871,2.20248387 C61.4326075,2.11364839 62.3013088,2.45379891 62.8868226,3.11637097 C63.5033438,3.90126123 63.8027099,4.88901763 63.7256613,5.8841129 L63.7256613,15.2901774 C63.7256613,15.8059355 64.0939839,15.7575 64.0939839,15.7575 L65.6236935,15.7575 C65.6236935,15.7575 66,15.8080645 66,15.2896452 Z M38.5408065,15.4706129 L38.5408065,5.32258065 C38.5408065,3.54590323 38.0314355,2.25517742 37.1643871,1.44987097 C36.2973387,0.644564516 34.782,0.242177419 32.9840323,0.242177419 C32.0857422,0.243526641 31.1913394,0.360156762 30.3227419,0.589209677 C29.6169413,0.77101097 28.9311544,1.02314378 28.2756774,1.34182258 C27.7593871,1.54354839 28.0260484,1.91080645 28.0260484,1.91080645 L28.4236452,2.90985484 C28.4236452,2.90985484 28.4912419,3.33566129 29.1240968,3.05622581 C30.2894839,2.49740441 31.5581816,2.18657346 32.8499032,2.14340323 C33.9676452,2.14340323 34.9661613,2.42816129 35.4755323,2.99501613 C36.0443681,3.75363218 36.3158656,4.69421763 36.2387903,5.63927419 L36.2387903,6.58296774 L33.4965968,6.666 C28.6260806,6.81396774 26.1908226,8.42404839 26.1908226,11.4962419 C26.113246,12.734417 26.5776947,13.9451694 27.4634516,14.8138065 C28.4425018,15.6369247 29.699422,16.0541841 30.9763548,15.9799839 C32.0940968,15.9799839 33.2182258,15.9650806 33.9655161,15.6270968 C34.9149217,15.1940635 35.7485584,14.5428018 36.3984677,13.7264032 L36.6033871,13.7264032 C36.6033871,13.7264032 36.6470323,14.9223871 36.6677903,15.462629 C36.6671346,15.6136102 36.786742,15.7376999 36.9376452,15.7425968 L38.2597742,15.7425968 C38.3334806,15.7460105 38.4052961,15.7186706 38.4580722,15.6671055 C38.5108483,15.6155403 38.5398475,15.5443786 38.5381452,15.4706129 L38.5408065,15.4706129 Z M29.3327419,13.431 C28.8099199,12.9418218 28.5345803,12.2436046 28.5827903,11.5292419 C28.5216106,10.5834502 28.9838421,9.68023928 29.7867581,9.17666129 C30.5894032,8.67243548 31.8987581,8.38856452 33.7148226,8.32504839 L36.182371,8.22764516 L36.182371,9.60193548 C36.2556456,10.8249266 35.8140807,12.0228257 34.9645645,12.9056613 C33.9785673,13.7322177 32.7157097,14.1539311 31.4309032,14.0856774 C30.6731551,14.1330187 29.9244641,13.9 29.3274194,13.431 L29.3327419,13.431 Z M24.6238548,15.4706129 L24.6238548,5.32258065 C24.6238548,3.54590323 24.1144839,2.25517742 23.2479677,1.44987097 C22.3814516,0.644564516 20.8607903,0.24483871 19.0628226,0.24483871 C18.1645302,0.24615271 17.270123,0.362783416 16.4015323,0.591870968 C15.6957231,0.773644884 15.0099335,1.02577868 14.3544677,1.34448387 C13.8387097,1.54620968 14.1048387,1.91612903 14.1048387,1.91612903 L14.5024355,2.91517742 C14.5024355,2.91517742 14.5700323,3.34098387 15.2028871,3.06154839 C16.3682742,2.50272699 17.6369719,2.19189604 18.9286935,2.14872581 C20.0464355,2.14872581 21.0449516,2.43348387 21.5543226,3.00033871 C22.1214854,3.7586461 22.3918115,4.69816153 22.3143871,5.64193548 L22.3143871,6.58562903 L19.5716613,6.66866129 C14.7011452,6.81662903 12.2658871,8.42670968 12.2658871,11.4989032 C12.188239,12.7370893 12.6526987,13.9478704 13.5385161,14.8164677 C14.5175932,15.639538 15.7744938,16.0567909 17.0514194,15.9826452 C18.1691613,15.9826452 19.2927581,15.9677419 20.0405806,15.6297581 C20.9907238,15.1979261 21.8254332,14.5477756 22.4767258,13.7322581 L22.6816452,13.7322581 C22.6816452,13.7322581 22.7252903,14.9282419 22.7460484,15.4684839 C22.7453839,15.6192652 22.8646771,15.7432735 23.015371,15.7484516 L24.3375,15.7484516 C24.4128868,15.7530628 24.4866823,15.7254247 24.540493,15.6724262 C24.5943037,15.6194277 24.6230609,15.5460611 24.6195968,15.4706129 L24.6238548,15.4706129 Z M15.4157903,13.431 C14.892904,12.9418656 14.6175519,12.2436165 14.6658387,11.5292419 C14.604659,10.5834502 15.0668904,9.68023928 15.8698065,9.17666129 C16.6724516,8.67243548 17.9818065,8.38856452 19.797871,8.32504839 L22.2654194,8.22764516 L22.2654194,9.60193548 C22.3387598,10.8249364 21.8971855,12.022861 21.0476129,12.9056613 C20.0615893,13.7321705 18.7987508,14.1538776 17.5139516,14.0856774 C16.756024,14.1331515 16.00712,13.9001254 15.4099355,13.431 L15.4157903,13.431 Z" id="Logo"></path>
                </g>
            </g>
        </g>
    </g>
</svg>