<?xml version="1.0" encoding="UTF-8"?>
<svg width="100px" height="100px" viewBox="0 0 100 100" version="1.1" xmlns="http://www.w3.org/2000/svg" xmlns:xlink="http://www.w3.org/1999/xlink">
    <!-- Generator: Sketch 45 (43475) - http://www.bohemiancoding.com/sketch -->
    <title>shazam</title>
    <desc>Created with Sketch.</desc>
    <defs>
        <linearGradient x1="50%" y1="0%" x2="50%" y2="100%" id="linearGradient-1">
            <stop stop-color="#2255FF" offset="0%"></stop>
            <stop stop-color="#00AAFF" offset="100%"></stop>
        </linearGradient>
    </defs>
    <g id="default---square-logos" stroke="none" stroke-width="1" fill="none" fill-rule="evenodd">
        <g id="shazam" fill-rule="nonzero">
            <g id="Shazam_logo" transform="translate(18.000000, 10.000000)">
                <g id="Group-2" transform="translate(4.705882, 69.647059)" fill="#242424">
                    <path d="M0.574711577,1.96778685 C0.574711577,2.64042824 1.42210996,3.36872656 1.50746981,3.2990833 C2.09994215,2.76558424 3.24566743,2.24837852 4.22009626,2.24837852 C5.09575567,2.24837852 5.49141011,2.50070916 5.49141011,2.96225795 C5.49141011,3.52272034 4.77118638,3.52272034 3.85154934,3.71910567 C2.32660715,4.02781418 0.786092558,4.67161778 0.786092558,6.54780422 C0.786092558,8.41029271 2.17059472,9.5599111 4.68611491,9.5599111 C7.08801421,9.5599111 8.1345375,8.73356431 8.1345375,7.83656494 C8.1345375,7.05203293 7.18692782,6.38054506 7.13069413,6.43576942 C6.52322614,6.99478993 5.57676996,7.41697513 4.71466432,7.41697513 C3.8950944,7.41697513 3.48545363,7.165798 3.48545363,6.71722622 C3.48545363,6.18401554 4.22009626,6.22510938 5.18025039,6.01574705 C6.97424913,5.62427409 8.34519754,4.8538726 8.34519754,3.18560661 C8.34519754,1.21108331 6.97424913,0.105442552 4.22009626,0.105442552 C1.53500989,0.105442552 0.574711577,1.01599568 0.574711577,1.96778685" id="path3356" transform="translate(4.459955, 4.832677) scale(-1, 1) rotate(-180.000000) translate(-4.459955, -4.832677) "></path>
                    <path d="M9.26408479,1.53509027 L9.26408479,8.13144573 C9.26408479,9.00003988 9.67386975,9.43476952 10.4503272,9.43476952 L10.8599679,9.43476952 C11.6795379,9.43476952 12.1035975,9.00003988 12.1035975,8.13144573 L12.1035975,6.03133387 L15.0289027,6.03133387 L15.0289027,8.13144573 C15.0289027,9.00003988 15.438255,9.43476952 16.2145683,9.43476952 L16.6389163,9.43476952 C17.4440673,9.43476952 17.8678386,9.00003988 17.8678386,8.13144573 L17.8678386,1.53509027 C17.8678386,0.68019407 17.4440673,0.231478101 16.6389163,0.231478101 L16.2145683,0.231478101 C15.438255,0.231478101 15.0289027,0.68019407 15.0289027,1.53509027 L15.0289027,3.67716111 L12.1035975,3.67716111 L12.1035975,1.53509027 C12.1035975,0.68019407 11.6795379,0.231478101 10.8599679,0.231478101 L10.4503272,0.231478101 C9.67386975,0.231478101 9.26408479,0.68019407 9.26408479,1.53509027" id="path3360" transform="translate(13.565962, 4.833124) scale(-1, 1) rotate(-180.000000) translate(-13.565962, -4.833124) "></path>
                    <path d="M27.994343,1.40970357 L27.994343,1.53630146 C27.994343,2.34808517 28.2763765,2.64251898 28.7425394,3.14602674 L32.2176369,7.05426786 L29.3498632,7.05426786 C28.5307258,7.05426786 28.1059452,7.34913424 28.1059452,8.14649905 L28.1059452,8.27309694 C28.1059452,9.04263329 28.5307258,9.36431881 29.3498632,9.36431881 L34.4648215,9.36431881 C35.4957724,9.36431881 35.9055573,8.81870787 35.9055573,8.27309694 L35.9055573,8.13265692 C35.9055573,7.3352921 35.6096816,7.01288564 35.1573609,6.53605282 L31.6103131,2.62853265 L34.747576,2.62853265 C35.5668575,2.62853265 35.990773,2.31996833 35.990773,1.52231513 L35.990773,1.40970357 C35.990773,0.638581143 35.5668575,0.303197678 34.747576,0.303197678 L29.4213809,0.303197678 C28.4038395,0.303197678 27.994343,0.86409264 27.994343,1.40970357" id="path3364" transform="translate(31.992558, 4.833758) scale(-1, 1) rotate(-180.000000) translate(-31.992558, -4.833758) "></path>
                    <path d="M24.3782863,3.64835216 C24.3782863,2.69324465 23.642346,2.05232483 22.6898339,2.05232483 C22.004648,2.05232483 21.5609787,2.40890406 21.5609787,2.95927323 C21.5609787,3.87934284 22.8132596,4.2617319 23.7553901,4.28494631 L24.3782863,4.28494631 L24.3782863,3.64835216 Z M22.7648121,9.58244783 C20.9359196,9.58244783 19.1807077,8.71270017 19.1807077,7.5666865 C19.1807077,6.14209981 20.9604318,6.17713772 20.9604318,6.17713772 C21.1526356,6.94854853 21.7932671,7.34319365 22.6266791,7.34319365 C23.9047698,7.34319365 24.3782863,6.72274866 24.3782863,5.82776793 L23.7526505,5.82776793 C20.0925586,5.82776793 18.7133914,4.38054358 18.7133914,2.72943607 C18.7133914,1.1338413 20.0596835,0.0659780397 21.8303236,0.0659780397 C23.0648693,0.0659780397 24.2472186,0.51599171 24.4702788,1.37406007 C24.582602,0.718144598 25.2049215,0.136918996 26.0302589,0.136918996 C26.7623062,0.136918996 27.1099457,0.383626266 27.1418115,0.472302462 L27.1418115,6.02213462 C27.1418115,8.29801279 25.5955293,9.58244783 22.7648121,9.58244783 L22.7648121,9.58244783 Z" id="path3368" transform="translate(22.927601, 4.824213) scale(-1, 1) rotate(-180.000000) translate(-22.927601, -4.824213) "></path>
                    <path d="M42.2371531,3.64835216 C42.2371531,2.69324465 41.5007802,2.05232483 40.548989,2.05232483 C39.8632264,2.05232483 39.4201338,2.40890406 39.4201338,2.95927323 C39.4201338,3.87934284 40.6721263,4.2617319 41.614401,4.28494631 L42.2371531,4.28494631 L42.2371531,3.64835216 Z M40.6233905,9.58244783 C38.794498,9.58244783 37.0398629,8.71270017 37.0398629,7.5666865 C37.0398629,6.14209981 38.8192985,6.17713772 38.8192985,6.17713772 C39.0123675,6.94854853 39.6524222,7.34319365 40.4846807,7.34319365 C41.7640692,7.34319365 42.2371531,6.72274866 42.2371531,5.82776793 L41.6119498,5.82776793 C37.9509927,5.82776793 36.5728349,4.38054358 36.5728349,2.72943607 C36.5728349,1.1338413 37.9185502,0.0659780397 39.6891904,0.0659780397 C40.9241686,0.0659780397 42.1069505,0.51599171 42.329434,1.37406007 C42.4421897,0.718144598 43.0642208,0.136918996 43.8884048,0.136918996 C44.6216055,0.136918996 44.969245,0.383626266 45.0009666,0.472302462 L45.0009666,6.02213462 C45.0009666,8.29801279 43.4542519,9.58244783 40.6233905,9.58244783 L40.6233905,9.58244783 Z" id="path3372" transform="translate(40.786901, 4.824213) scale(-1, 1) rotate(-180.000000) translate(-40.786901, -4.824213) "></path>
                    <path d="M46.0462643,1.53509027 L46.0462643,8.09020769 C46.0462643,8.9867745 46.4990175,9.43476952 47.3043128,9.43476952 L48.1090312,9.43476952 C48.8586695,9.43476952 49.1130188,9.25208214 49.3675122,8.67821018 L50.8503513,5.04998397 L52.3489069,8.67821018 C52.6173867,9.29519463 52.9134066,9.43476952 53.5634103,9.43476952 L54.354575,9.43476952 C55.2025501,9.43476952 55.6548708,8.9867745 55.6548708,8.09020769 L55.6548708,1.53509027 C55.6548708,0.68019407 55.3578416,0.231478101 54.5531231,0.231478101 L54.1006583,0.231478101 C53.3229031,0.231478101 52.9980455,0.68019407 52.9980455,1.53509027 L52.9980455,5.41362847 L52.0377472,2.75348678 C51.9108609,2.4026751 51.8960094,2.06758001 50.8366533,2.06758001 C49.7770088,2.06758001 49.8051257,2.38998648 49.6499784,2.75348678 L48.7035222,5.30317974 L48.7035222,1.53509027 C48.7035222,0.68019407 48.4209119,0.231478101 47.6014861,0.231478101 L47.1484445,0.231478101 C46.3708336,0.231478101 46.0462643,0.68019407 46.0462643,1.53509027" id="path3376" transform="translate(50.850568, 4.833124) scale(-1, 1) rotate(-180.000000) translate(-50.850568, -4.833124) "></path>
                </g>
                <g id="Group">
                    <path d="M0.417766133,32.3739523 C0.417766133,14.7849994 14.6806735,0.520912213 32.2715927,0.520912213 L32.2715927,0.520912213 C49.8625118,0.520912213 64.1230598,14.7849994 64.1230598,32.3739523 L64.1230598,32.3739523 C64.1230598,49.9676241 49.8625118,64.2262059 32.2715927,64.2262059 L32.2715927,64.2262059 C14.6806735,64.2262059 0.417766133,49.9676241 0.417766133,32.3739523" id="path3396" fill="url(#linearGradient-1)" transform="translate(32.270413, 32.373559) scale(-1, 1) rotate(-180.000000) translate(-32.270413, -32.373559) "></path>
                    <path d="M49.2893215,19.7206158 C46.2660727,16.3867055 40.8483701,11.2002294 40.6187164,10.9768677 C39.9073406,10.2985243 38.9914787,9.9587627 38.0787628,9.9587627 C37.1054875,9.9587627 36.140077,10.3413877 35.4172972,11.0968067 C34.0110618,12.5698933 34.0645428,14.8978892 35.5333037,16.304911 C35.5867847,16.358392 40.9907239,21.5299248 43.834654,24.6727193 C45.1795436,26.1579964 45.856314,28.0644363 45.736375,30.0318288 C45.6089644,32.1168009 44.6042297,34.0735758 42.9034557,35.5415503 C40.6710177,37.4715847 36.2615889,37.9006123 33.5045654,35.4255437 C31.8623845,33.9552098 29.8721839,31.7892298 29.8537015,31.7672082 C28.4730269,30.2713136 26.1481769,30.1737894 24.6511025,31.5477789 C23.1563876,32.9241278 23.0545378,35.2556629 24.4316732,36.7531306 C24.523692,36.8538007 26.6814138,39.2018519 28.5917862,40.9136368 C33.8285973,45.6136718 42.40797,45.7068703 47.715958,41.1173364 C50.9299294,38.341044 52.8351896,34.5604101 53.0845054,30.4781591 C53.327136,26.5142742 51.9759546,22.6915633 49.2893215,19.7206158 M27.0337592,19.4583231 C23.6263124,19.4583231 20.2235846,20.5857495 17.6112744,22.8449279 C14.3984827,25.6208271 12.4932225,29.3987083 12.2419405,33.4833187 C12.0040288,37.4456307 13.3497048,41.2679483 16.0406636,44.2373228 C19.0607664,47.5739859 24.4792555,52.7616417 24.7077295,52.981071 C26.1764904,54.3884861 28.5040931,54.3322524 29.9107217,52.862705 C31.3138111,51.3911914 31.2638693,49.0600495 29.7943219,47.6546006 C29.7388747,47.6019061 24.338868,42.4307665 21.4929716,39.2903315 C20.1480821,37.7991558 19.4701319,35.8970415 19.5900709,33.9316152 C19.7186612,31.8450703 20.7233959,29.8879021 22.4222037,28.4187479 C24.6573944,26.4843878 29.0652502,26.061652 31.8238467,28.5320017 C33.4640614,30.0070546 35.4562282,32.1714616 35.4762836,32.1926967 C36.8514528,33.6917373 39.1818081,33.7876885 40.6761298,32.4093733 C42.1720245,31.0345974 42.2719081,28.7014893 40.8955592,27.2040216 C40.8043269,27.1088569 38.6434591,24.7619854 36.735053,23.0478411 C34.0763401,20.6592858 30.5528868,19.4583231 27.0337592,19.4583231" id="path3408" fill="#FFFFFF" transform="translate(32.663677, 31.980252) scale(-1, 1) rotate(-180.000000) translate(-32.663677, -31.980252) "></path>
                </g>
            </g>
        </g>
    </g>
</svg>