<?xml version="1.0" encoding="UTF-8"?>
<svg width="100px" height="100px" viewBox="0 0 100 100" version="1.1" xmlns="http://www.w3.org/2000/svg" xmlns:xlink="http://www.w3.org/1999/xlink">
    <!-- Generator: Sketch 45 (43475) - http://www.bohemiancoding.com/sketch -->
    <title>slacker</title>
    <desc>Created with Sketch.</desc>
    <defs></defs>
    <g id="default---square-logos" stroke="none" stroke-width="1" fill="none" fill-rule="evenodd">
        <g id="slacker" fill="#000000">
            <g transform="translate(1.000000, 28.000000)">
                <path d="M76.5417124,14.3394977 C77.5756761,13.9901714 78.4754452,13.6941025 79.3673892,13.3759599 C79.4948097,13.3305276 79.6354279,13.1973842 79.682612,13.0719491 C79.9897762,12.2552195 80.29659,11.4365043 80.5522486,10.602723 C80.6517558,10.2780399 80.6725449,9.90652314 80.6348209,9.56689067 C80.5466426,8.77398667 80.0395298,8.54846044 79.3582794,8.96891328 C78.842991,9.28705594 78.5117676,9.76298521 78.2726935,10.3068877 C77.96004,11.0181537 77.6535766,11.732106 77.3471132,12.4460583 C77.0953087,13.0324733 76.8473583,13.6205233 76.5417124,14.3394977 M11.6255446,26.3164474 C9.64579565,27.3768061 7.81682576,28.3594979 5.98353456,29.3343645 C5.7768119,29.4442662 5.66550869,29.5903736 5.61248492,29.8174181 C5.40961642,30.6865876 5.18362301,31.5505014 4.985543,32.420722 C4.93030017,32.6628328 4.9081096,32.9230464 4.92854828,33.1701792 C5.00785036,34.1282277 5.71631341,34.7605421 6.67693138,34.7632283 C7.3099465,34.765097 7.85162992,34.5367678 8.3195005,34.1221545 C8.79321071,33.7024024 9.14931092,33.18945 9.38067677,32.6077067 C10.0260719,30.9855763 10.656868,29.3573726 11.2699116,27.7227454 C11.4233769,27.3133878 11.4884303,26.8708612 11.6255446,26.3164474 M29.9869541,28.9860894 C30.021291,29.2656906 30.0240941,29.4434487 30.0670737,29.6109291 C30.2150497,30.188351 30.6237065,30.3990446 31.1739158,30.1874166 C31.2997013,30.1390646 31.4245524,30.0761134 31.5335198,29.9971617 C32.2173396,29.5013777 32.8034042,28.9347007 33.1463068,28.1274313 C34.4457397,25.0689872 35.7526473,22.0133461 37.0999651,18.9758079 C37.3632153,18.3822686 37.2535472,17.9321505 36.9183528,17.4669661 C36.4534021,16.8216878 35.751129,16.702793 35.1538524,17.235717 C34.8308045,17.523844 34.5445461,17.9058722 34.3728612,18.3022658 C32.9906225,21.4944372 31.6345453,24.6979375 30.285826,27.9044745 C30.1300248,28.2750569 30.068008,28.6849985 29.9869541,28.9860894 M41.9908829,29.5185462 C41.5325893,30.0018334 41.0672881,30.5268155 40.5649638,31.0136065 C39.9195686,31.6392637 39.2054995,32.1782609 38.3738205,32.5420694 C37.8703282,32.76234 37.349901,32.9126518 36.7945528,32.9128854 C35.7347781,32.9133526 34.9321803,32.3584716 34.5540063,31.3612976 C34.5127786,31.2525638 34.4819454,31.1398591 34.4474916,31.0286727 C34.4138554,30.9205229 34.3817375,30.8119059 34.3303488,30.6413889 C34.1898474,30.7891314 34.0867197,30.8909744 33.9909499,30.9994746 C33.0809031,32.0298177 32.0572172,32.913119 30.8069539,33.5157681 C30.0414961,33.8847155 29.2386648,34.0920221 28.3929706,34.1307972 C27.7610066,34.1598785 27.2028555,33.9703243 26.7502847,33.5149505 C26.6002064,33.3638211 26.4614569,33.2014796 26.2944437,33.0192834 C26.0979988,33.1372437 25.9021378,33.2571896 25.703941,33.3735149 C24.8150337,33.8949932 23.9379223,34.4386621 23.0321968,34.9293072 C22.2872945,35.3328252 21.4780395,35.5381463 20.6178631,35.4909621 C19.5579715,35.4326827 18.7741774,34.9273217 18.2521151,34.0169245 C17.8866715,33.3797049 17.7420824,32.6803516 17.7125339,31.9487637 C17.65624,30.5570648 17.9876969,29.249106 18.5303147,27.9827254 C19.3881553,25.9805523 20.2455287,23.9782624 21.1022014,21.9756221 C21.2156069,21.7107368 21.3239903,21.4436325 21.4917043,21.0405817 C19.6020023,22.0286459 17.841356,22.9890303 16.0599206,23.9431079 C16.1194848,24.3995328 16.2028746,24.8356358 16.228569,25.2751259 C16.2942063,26.3964502 16.0623733,27.4811018 15.7685235,28.5543077 C15.2188982,30.5617365 14.4424619,32.4579788 13.0662964,34.0601377 C11.3031974,36.1126484 9.12933941,37.4565792 6.42699552,37.8533232 C5.36313302,38.0095915 4.29471562,38.0058541 3.24381708,37.7028945 C1.28380605,37.1378526 0.0439373231,35.5184084 0.00154166093,33.4832998 C-0.0177290946,32.5563181 0.140991856,31.6668267 0.428651679,30.7892482 C0.532947344,30.4711055 0.702646785,30.2680034 0.998715665,30.1086985 C4.30511014,28.3304166 7.60496425,26.540105 10.9063367,24.7524796 C11.1253225,24.6338185 11.3417389,24.5103688 11.5651629,24.3858681 C11.4744152,23.7558896 11.2514584,23.2144397 10.9099572,22.7429486 C10.5582951,22.2573255 10.1463681,21.813631 9.74296698,21.3678342 C9.32555073,20.9067376 8.85592826,20.4903725 8.46268806,20.010589 C6.99133667,18.2153722 6.61538175,16.2018702 7.32454556,13.9867844 C7.81297161,12.460891 8.67489995,11.1802617 9.9192068,10.1841388 C12.3277009,8.2563625 15.0580749,7.58036775 18.0796126,8.26126778 C19.2253466,8.51937911 20.2096735,9.11280159 20.9609993,10.0373307 C22.1712028,11.5263177 22.2285479,13.2588171 21.3979199,14.9632862 C21.3402244,15.0817137 21.1882775,15.2118205 21.0637767,15.2312081 C19.4522744,15.4818447 17.8377354,15.7133273 16.1532378,15.959993 C16.1983197,15.7738258 16.2263499,15.6337917 16.2661761,15.4973781 C16.4679935,14.8070179 16.6755337,14.1182927 16.8747816,13.4272318 C16.9286229,13.240831 16.9738216,13.0497586 17.0002167,12.8577518 C17.1332433,11.8888415 16.3969837,11.1236173 15.426088,11.2484685 C15.1447349,11.2846741 14.8536881,11.3873347 14.6094751,11.5314566 C14.3291732,11.6968347 14.0542438,11.9079955 13.8497402,12.1586321 C12.8781437,13.3495648 12.170031,14.6884735 11.8162667,16.1865704 C11.4661229,17.669601 11.8981382,18.9551356 12.9568618,20.0347651 C13.2154403,20.2983657 13.5046185,20.5319506 13.7649488,20.7940328 C14.2706602,21.3035983 14.765977,21.8235584 15.2871049,22.3615044 C15.4188468,22.2961006 15.5755823,22.2243901 15.7269453,22.1425186 C17.8651817,20.9848717 19.9989799,19.8189326 22.1442237,18.6743665 C22.4921485,18.4887833 22.7110175,18.2501763 22.8648332,17.8901052 C24.4453855,14.1881346 26.0389018,10.4917701 27.6291479,6.79400414 C27.6827557,6.66962017 27.7409183,6.54710488 27.8239577,6.3640911 C29.4052108,6.1286375 31.0132094,5.88921297 32.73765,5.63238635 C32.6004189,5.96279221 32.5035979,6.201516 32.4024557,6.43848789 C29.2177589,13.8960367 26.0321279,21.3532351 22.8489494,28.8113679 C22.6124447,29.3655481 22.3824803,29.9231153 22.1712028,30.4872229 C22.0768345,30.7391442 21.997766,31.0087012 21.9793128,31.274988 C21.9350484,31.910339 22.3507128,32.2672567 22.9719319,32.1520994 C23.1423321,32.1204486 23.3192726,32.074082 23.4692342,31.9911594 C24.1808506,31.597452 24.8841748,31.1887952 25.4926635,30.8413376 C25.5935722,29.8746464 25.6316465,29.017857 25.7868637,28.1829077 C25.9064592,27.5393812 26.1259122,26.9030959 26.3825052,26.2982278 C27.5369987,23.5773139 28.7155514,20.866561 29.8963231,18.1569759 C30.3675807,17.075361 31.0206841,16.1111225 31.8878681,15.3050209 C32.8782681,14.384346 34.0322944,13.8522395 35.4076424,13.8261948 C36.7236598,13.801318 37.7255055,14.2582101 38.2504876,15.6607707 C38.5404833,15.0124558 38.7942733,14.445078 39.0648814,13.8400931 C40.7297579,13.5991503 42.3966199,13.3579738 44.1767705,13.1004465 C44.0393058,13.4239616 43.945755,13.6472688 43.8496348,13.869408 C41.8571555,18.4737171 39.8661945,23.0788437 37.8678755,27.6807001 C37.7131255,28.0371507 37.5740257,28.3578628 37.9328121,28.6788085 C38.2690576,28.979549 38.6330997,28.9996373 39.0139599,28.815222 C39.2572386,28.6974953 39.4907067,28.5518551 39.7086415,28.3916158 C39.9273937,28.2309094 40.1140281,28.0271065 40.3278751,27.8590422 C40.9116038,27.4003982 41.3180415,26.8978403 41.2752955,26.062891 C41.2508859,25.5849763 41.4614627,25.0701551 41.6560389,24.609876 C42.9964659,21.4397783 44.3378273,18.2696807 45.7243874,15.1195545 C46.7290361,12.8373131 48.5122233,11.5962764 51.0071438,11.3771738 C51.9458048,11.2947183 52.8732537,11.3372307 53.7927607,11.5280696 C54.076216,11.586933 54.3580362,11.6787319 54.6235055,11.7948236 C55.665411,12.2508981 56.2170218,13.0638904 56.306952,14.191288 C56.4163865,15.56103 56.0672938,16.8493676 55.6107521,18.1537057 C54.1334443,18.3805167 52.6689837,18.6303358 51.0988259,18.8084443 C51.3353306,18.2135035 51.5532653,17.7188874 51.729038,17.2097891 C51.9632069,16.5313417 52.184879,15.8469379 52.369995,15.1540083 C52.4432239,14.8797796 52.4422895,14.5708635 52.4083029,14.2857731 C52.3304024,13.6329033 51.859612,13.3876391 51.2741314,13.6776348 C50.8619708,13.8816712 50.5538723,14.2084565 50.3191194,14.597609 C50.1792021,14.8296756 50.0594898,15.0759909 49.9518072,15.3249924 C48.7010767,18.2163065 47.4435723,21.1048176 46.216434,24.0061758 C45.9841338,24.5554507 45.819106,25.1487564 45.730227,25.7379744 C45.6656408,26.1659019 45.7159783,26.6364587 45.8249457,27.0597146 C46.003171,27.7514763 46.5779066,28.1396945 47.2874208,28.0192814 C47.8932233,27.9165041 48.4997265,27.7332567 49.0644181,27.4893941 C50.1407774,27.0244433 51.1012785,26.3519523 52.0248733,25.6343795 C52.6393184,25.1570487 53.2266677,24.644797 53.8369083,24.1618602 C54.1522479,23.9122747 54.3604889,23.6052273 54.5153557,23.235696 C57.5603686,15.9728402 60.6116884,8.71267063 63.6623074,1.4521507 C63.7447628,1.25593937 63.8348098,1.06276465 63.9356017,0.835836903 C65.4855544,0.601784818 67.0373758,0.367382355 68.697347,0.116745741 C66.9092545,4.46154196 65.1564333,8.72026214 63.3521066,13.1044174 C63.6689645,12.9931142 63.866811,12.936937 64.0537957,12.8556495 C65.1420678,12.3822897 65.9858933,11.6086564 66.6089811,10.6203586 C67.0738151,9.88304785 67.4467334,9.08757442 67.8544558,8.31475873 C67.9529119,8.12800759 68.0270751,7.92840928 68.1174725,7.72320493 C69.5556548,7.50620454 70.970829,7.29270793 72.4726632,7.06601377 C72.2363921,7.55911153 72.0415823,7.95924249 71.8523785,8.36182609 C71.5297977,9.04809857 71.1985743,9.73075049 70.8928116,10.4244977 C70.3220469,11.7193757 69.4388623,12.7147978 68.1627879,13.3478129 C68.0965666,13.3806316 68.0368857,13.4268814 67.9216115,13.5004606 C68.0753104,13.5802299 68.1846281,13.6432978 68.2989679,13.6952705 C68.8505787,13.9455567 69.1193182,14.3832948 69.1666191,14.9764837 C69.2316725,15.7929798 69.0505274,16.5722191 68.7392755,17.309997 C68.217914,18.5455444 67.6539232,19.7633394 67.0943705,20.9824191 C66.8266822,21.565447 66.5257081,22.1331752 66.244355,22.7101299 C66.0454575,23.1182028 65.9174529,23.5447288 65.9672065,24.0054751 C66.0196463,24.4907477 66.325409,24.7163907 66.7748264,24.5444722 C67.0960056,24.4216066 67.4238421,24.2517903 67.6745955,24.0221764 C68.2183811,23.5244069 68.7271291,22.9862273 69.2216284,22.4387042 C69.350684,22.2957503 69.4324387,22.0592455 69.4368769,21.8633846 C69.4561476,21.030304 69.6764182,20.2563204 70.0043714,19.4972862 C71.3001837,16.4984062 72.5838496,13.4945042 73.8711361,10.4920037 C74.6045927,8.78146139 75.7808096,7.52757756 77.5739242,6.9185049 C78.5642074,6.58214262 79.5909299,6.48240186 80.6260615,6.56555809 C81.2428425,6.61519488 81.8696676,6.69578168 82.4615717,6.86723301 C83.8023492,7.25556793 84.5074252,8.23148571 84.5589307,9.62610444 C84.6081003,10.9562537 84.2313279,12.2020789 83.8223207,13.4426484 C83.7919546,13.5349144 83.7468727,13.6233263 83.7246822,13.7173442 C83.6418763,14.0687727 83.4437963,14.2524873 83.0795206,14.3720828 C80.6963705,15.1545922 78.3265348,15.9775119 75.9453702,16.7662114 C75.5627581,16.8929312 75.3233335,17.0823685 75.1786277,17.4662653 C74.931962,18.1205367 74.6250314,18.7519167 74.3582774,19.3990637 C74.0590552,20.1250456 73.8527997,20.8760211 73.9328025,21.6699763 C73.9614167,21.9544827 74.0370982,22.2458799 74.152022,22.5073782 C74.3568759,22.9734969 74.7449773,23.250295 75.2550099,23.2310243 C75.6765139,23.2151405 76.1259313,23.1735624 76.5067915,23.0113377 C77.2905857,22.6773112 78.0708761,22.3095318 78.7918359,21.8585961 C80.7319922,20.6451225 82.4185921,19.1115207 84.0504163,17.5194059 C84.2224516,17.3514584 84.3323533,17.1030408 84.4254369,16.8734268 C85.9884704,13.0169399 87.5434452,9.15718273 89.1025077,5.29917747 C89.3060769,4.7954516 89.5224934,4.29698139 89.74218,3.77433514 C90.2610889,3.67693023 90.7728734,3.58092683 91.3097683,3.48013494 C91.3914063,3.61421268 91.4842563,3.71734042 91.5227978,3.83775345 C92.0941465,5.62479484 93.2983935,6.87143754 94.8961144,7.77144022 C95.4202789,8.06669155 95.9718897,8.31475873 96.5189456,8.56703044 C97.4609935,9.00138159 97.7437481,9.51702029 97.5127326,10.5220194 C97.4219848,10.9171283 97.2674684,11.3006747 97.1122512,11.6773304 C96.2598999,13.7446737 95.3908472,15.805243 94.5463209,17.8757397 C94.3865489,18.2674616 94.2556245,18.6873305 94.2083236,19.1052139 C94.0844068,20.1997928 94.817513,20.7681049 95.8511263,20.3995079 C96.141122,20.2961466 96.4063576,20.1234105 96.6826886,19.9819749 C96.8141969,19.9144688 96.9450044,19.8456781 97.1659758,19.7307543 C97.1716986,20.3534917 97.1919037,20.8908538 97.1707643,21.4265808 C97.1655086,21.5596074 97.0480154,21.708401 96.945238,21.8139814 C95.8357097,22.9536422 94.4874575,23.6528786 92.9183509,23.8826094 C91.9611199,24.0226435 91.1637778,23.6299873 90.5146453,22.9409118 C89.9484355,22.339781 89.6472277,21.6101785 89.5638379,20.7919306 C89.4505492,19.6815847 89.6675496,18.626248 90.0941924,17.6026789 C91.0369412,15.3413434 91.9715144,13.076504 92.9095914,10.813183 C92.9468482,10.7232528 92.9866745,10.6346073 93.022413,10.54421 C93.2114999,10.066412 93.1909445,9.94214484 92.8009745,9.64514162 C92.3556448,9.30585953 91.8950154,8.98654895 91.3957276,8.62589384 C89.1216617,14.1132707 86.8546033,19.5838294 84.5815884,25.0689872 C83.3702171,25.2555047 82.1853576,25.4379345 80.9009909,25.6356642 C81.3533281,24.5023102 81.7729634,23.4510613 82.1925987,22.3998123 C82.1751966,22.385914 82.1579114,22.3720157 82.1405093,22.3581174 C82.0348121,22.4547048 81.9271295,22.5490731 81.8237681,22.6479963 C80.4953707,23.9178807 79.0796125,25.0689872 77.405743,25.8622415 C76.0936966,26.4841614 74.7292103,26.800085 73.271874,26.5225861 C72.0093475,26.2822272 70.9966401,25.6495625 70.2501027,24.5985472 C70.206072,24.5365304 70.1569024,24.4782509 70.0777171,24.3768751 C69.9527491,24.51761 69.837475,24.6384902 69.732245,24.7675458 C69.0171248,25.6439564 68.2698866,26.4936216 67.3698839,27.1837482 C66.8786549,27.5604039 66.3527384,27.9054088 65.8035803,28.1897984 C64.9819454,28.6152734 64.0887166,28.6813779 63.1876628,28.4920573 C62.1308079,28.2700349 61.5366846,27.5894852 61.4291188,26.5183816 C61.3200346,25.4326789 61.5012965,24.3758239 61.8444328,23.3578609 C62.2289135,22.2171489 62.6761119,21.0967589 63.1237773,19.9785879 C63.4853668,19.0757822 63.8948412,18.1903786 64.0376783,17.2179646 C64.0708474,16.9922048 64.0769206,16.7496268 64.0313715,16.5278379 C63.9530038,16.1463938 63.6792423,15.9332475 63.309127,16.0172213 C62.8778124,16.1149766 62.4502352,16.2689091 62.0552432,16.4667555 C61.8962886,16.5464079 61.8022707,16.7963438 61.7222679,16.9870659 C60.4578727,19.999377 59.2004851,23.0146078 57.9415792,26.029138 C57.4474303,27.2123624 56.9532814,28.39547 56.4389274,29.6269296 C54.8562728,29.8625 53.2691801,30.0987712 51.6207714,30.3442689 C51.8465312,29.7654455 52.0412242,29.2661577 52.2359173,28.76687 C52.2103397,28.7447962 52.1847622,28.7226056 52.1593014,28.7004151 C52.0123765,28.8029588 51.862415,28.9011813 51.7192274,29.0085136 C50.5128781,29.9128376 49.2405411,30.6968653 47.7690729,31.0927918 C46.3286715,31.4803091 44.9062562,31.4487752 43.5812458,30.7014202 C43.0477378,30.4005629 42.5879259,29.9688979 41.9908829,29.5185462" id="Fill-1"></path>
                <path d="M91.4135384,38.9553418 C91.4291886,39.1482829 91.4242834,39.3456622 91.4642264,39.5334644 C91.6464226,40.3923562 92.1047162,41.0296926 92.9811268,41.2763583 C93.8032289,41.5078409 94.6587337,41.2037134 95.1618756,40.5385803 C95.80657,39.6863458 95.8372864,38.3608682 95.2328854,37.4781508 C94.4601865,36.349702 92.9268183,36.2338439 92.0272828,37.2429308 C91.5949171,37.7279698 91.4059469,38.3067933 91.4135384,38.9553418 M97.9170097,38.9451808 C97.9249516,41.3386087 95.9948394,43.2521363 93.564038,43.2607789 C91.1401273,43.2695384 89.1638821,41.3590474 89.1484655,38.9920146 C89.1330489,36.6151713 91.0820815,34.6636861 93.4880061,34.6472184 C95.9608528,34.6302835 97.908951,36.5206862 97.9170097,38.9451808" id="Fill-4"></path>
                <path d="M76.3665938,41.0576878 C77.3440299,41.0623595 78.3316269,41.1025361 78.8809019,40.15605 C79.3877811,39.2827928 79.392336,38.3025537 78.8622151,37.4351361 C78.3117722,36.5344327 77.3451978,36.5799817 76.3665938,36.5270748 L76.3665938,41.0576878 Z M74.1355075,42.924148 L74.1355075,34.7245 C74.3236602,34.7033605 74.4545845,34.6735784 74.5848081,34.6764983 C75.6144504,34.6993896 76.6449103,34.7110688 77.6731511,34.7646766 C78.0759682,34.7856992 78.485793,34.8666364 78.8715585,34.9870494 C80.1816195,35.3961734 81.0136489,36.2867159 81.3602889,37.6106752 C81.570749,38.4144409 81.5609384,39.2304698 81.3531646,40.0359874 C80.9598076,41.5610633 79.767123,42.6139473 78.1844684,42.8207867 C77.7039843,42.8835043 77.2164925,42.9109505 76.7315703,42.9198267 C75.8781678,42.9353601 75.0241813,42.924148 74.1355075,42.924148 L74.1355075,42.924148 Z" id="Fill-6"></path>
                <path d="M56.4847918,38.3909889 C56.7871675,38.3909889 57.0583596,38.4162161 57.3231281,38.3858501 C57.9117621,38.3182272 58.213437,37.9935442 58.2413504,37.4420502 C58.2726508,36.822583 57.9809032,36.4257223 57.3722977,36.3290181 C57.0937477,36.2847538 56.8023505,36.3214266 56.4847918,36.3214266 L56.4847918,38.3909889 Z M56.4274467,42.7211861 L54.3125689,42.7211861 C54.30743,39.9938486 54.3359274,37.2863659 54.3602202,34.5431446 C55.0411203,34.5431446 55.6597699,34.5328669 56.2779524,34.5459476 C56.9380634,34.5599627 57.6014445,34.5613643 58.2571174,34.6291039 C60.3431475,34.8443524 60.827369,36.9055057 60.2180628,38.3028106 C60.0240705,38.7476731 59.6852556,39.0647646 59.2437801,39.2657645 C59.067657,39.3458841 58.8840593,39.409536 58.6403134,39.5058897 C59.3523971,40.5788621 60.0544365,41.6367681 60.8019082,42.7629978 L58.2752202,42.7629978 C57.7007181,41.7716634 57.1193253,40.7686498 56.5380492,39.7656362 C56.5011428,39.7717094 56.4643532,39.7778994 56.4274467,39.7839726 L56.4274467,42.7211861 Z" id="Fill-8"></path>
                <path d="M67.2796151,36.1448247 C66.8951343,37.397891 66.5427714,38.5458441 66.1693859,39.7629383 C66.9323911,39.7705298 67.6124736,39.7954066 68.3327326,39.7458866 C67.9782675,38.5338144 67.6455258,37.3959055 67.2796151,36.1448247 M65.8619882,34.6575896 L68.6935045,34.6575896 C69.6076391,37.3691601 70.5230584,40.0843511 71.4542447,42.8461424 L69.2207057,42.8461424 C69.0833578,42.3682276 68.9510319,41.9074814 68.8100634,41.4170698 L65.6604044,41.4170698 C65.5203703,41.8595965 65.375898,42.316255 65.2251189,42.7930018 L62.9867915,42.7930018 C63.9505628,40.0662483 64.9039397,37.3684593 65.8619882,34.6575896" id="Fill-10"></path>
                <path d="M84.2399355,34.8033465 L86.5281333,34.8033465 C86.4991688,37.5352389 86.4707882,40.2257868 86.4420573,42.9467007 L84.2399355,42.9467007 L84.2399355,34.8033465 Z" id="Fill-12"></path>
            </g>
        </g>
    </g>
</svg>