<?xml version="1.0" encoding="UTF-8"?>
<svg width="100px" height="100px" viewBox="0 0 100 100" version="1.1" xmlns="http://www.w3.org/2000/svg" xmlns:xlink="http://www.w3.org/1999/xlink">
    <!-- Generator: Sketch 45 (43475) - http://www.bohemiancoding.com/sketch -->
    <title>spotify</title>
    <desc>Created with Sketch.</desc>
    <defs></defs>
    <g id="default---square-logos" stroke="none" stroke-width="1" fill="none" fill-rule="evenodd">
        <g id="spotify" fill-rule="nonzero" fill="#1ED760">
            <g id="Spotify_logo_only" transform="translate(10.000000, 10.000000)">
                <path d="M39.2682552,0.129497913 C17.6467788,0.129497913 0.118277877,17.6575313 0.118277877,39.2790078 C0.118277877,60.9014192 17.6467788,78.4280501 39.2682552,78.4280501 C60.8920692,78.4280501 78.4187001,60.9014192 78.4187001,39.2790078 C78.4187001,17.6589338 60.8920692,0.131367919 39.2677877,0.131367919 L39.2682552,0.129497913 Z M57.2221825,56.594328 C56.5209302,57.7443816 55.0155754,58.1090328 53.8655218,57.4031055 C44.6735075,51.7884126 33.1019106,50.5168086 19.4742421,53.6303685 C18.1610304,53.9295695 16.8520262,53.1067668 16.5528253,51.7930877 C16.2522218,50.4794085 17.0717519,49.1704043 18.3882361,48.8712033 C33.3015337,45.4640525 46.093777,46.9310722 56.4134049,53.2376673 C57.5634586,53.9435945 57.9281097,55.4442743 57.2221825,56.594328 L57.2221825,56.594328 Z M62.0140727,45.934359 C61.1304949,47.3705236 59.2511389,47.824 57.8159094,46.9404222 C47.2924508,40.4720716 31.2510722,38.5987931 18.803845,42.3771401 C17.1895623,42.8647442 15.4845844,41.9549863 14.9946428,40.3435086 C14.5084413,38.729226 15.4186667,37.0275206 17.0301443,36.536644 C31.2482671,32.2225403 48.924031,34.3122719 61.0089445,41.7385331 C62.4441741,42.6221109 62.8976506,44.5014669 62.0140727,45.9348265 L62.0140727,45.934359 Z M62.4254741,34.8340036 C49.8076088,27.3394872 28.9897674,26.65039 16.9427215,30.3067191 C15.0082004,30.8934335 12.9624138,29.80135 12.376167,27.8668289 C11.7899201,25.9313727 12.8810686,23.8869887 14.8169922,23.2988718 C28.6461538,19.1007084 51.6355397,19.9118235 66.162681,28.5358235 C67.9064615,29.5685343 68.4768134,31.815814 67.4436351,33.553517 C66.4151318,35.2935575 64.1617746,35.8671819 62.4273441,34.8340036 L62.4254741,34.8340036 Z" id="Shape"></path>
            </g>
        </g>
    </g>
</svg>