<?xml version="1.0" encoding="UTF-8"?>
<svg width="100px" height="100px" viewBox="0 0 100 100" version="1.1" xmlns="http://www.w3.org/2000/svg" xmlns:xlink="http://www.w3.org/1999/xlink">
    <!-- Generator: Sketch 45 (43475) - http://www.bohemiancoding.com/sketch -->
    <title>tidal</title>
    <desc>Created with Sketch.</desc>
    <defs></defs>
    <g id="default---square-logos" stroke="none" stroke-width="1" fill="none" fill-rule="evenodd">
        <g id="tidal" stroke="#000000" stroke-width="0.094" fill="#000000" fill-rule="nonzero">
            <g transform="translate(1.000000, 26.000000)" id="Shape">
                <path d="M40.2481247,0 L40.3020766,0 C40.7135948,0.472079211 41.1787952,0.890206512 41.6171544,1.34205376 L44.5979975,4.32289677 L44.5979975,4.37684868 C43.1549187,5.81331828 41.7183143,7.26327586 40.2751007,8.69974546 C38.8251431,7.25653187 37.3819295,5.80657429 35.9319719,4.36336071 C36.0062907,4.22173694 36.1477796,4.1273211 36.2556834,4.01267329 C37.5842492,2.67061954 38.9330469,1.34879775 40.2481247,0 Z M48.9478702,0 L49.0018221,0 C49.0424209,0.0606958985 49.08275,0.114647808 49.1367019,0.168599718 C50.5327075,1.55111741 51.9086161,2.95386706 53.3179749,4.32964076 C53.2842549,4.41056863 53.2100711,4.46452054 53.1493752,4.52521644 C51.7535044,5.91447811 50.3641078,7.31048378 48.9681022,8.69974546 C47.5114006,7.26327586 46.081675,5.79983031 44.6182294,4.3701047 C46.0344671,2.89317116 47.5248886,1.47018954 48.9478702,0 Z M57.6476156,0 L57.7015676,0 C57.9713271,0.323711459 58.2882946,0.600214997 58.5782861,0.90369449 C59.6708123,1.99622066 60.7567293,3.08200285 61.8491206,4.17452902 C61.9032074,4.23522492 61.9908793,4.28917683 62.0109764,4.37684868 C60.5475308,5.79983031 59.1312932,7.27676384 57.6611036,8.69974546 L53.5135506,4.55219239 C53.4461107,4.47800852 53.3584388,4.42405661 53.3247189,4.32964076 C54.0598136,3.61477796 54.7746764,2.87968319 55.5030272,2.15807639 C56.21789,1.4364696 56.9462408,0.735094771 57.6476156,0 Z M44.6789253,12.9821783 C46.1019069,11.5591967 47.5316326,10.1362151 48.9546142,8.70648945 L49.0151752,8.7334654 C50.4449008,10.169935 51.8746264,11.6064046 53.31784,13.0293862 C53.270767,13.13729 53.1696071,13.1979859 53.0952884,13.2856578 C52.056849,14.3174881 51.0181398,15.3628063 49.9795656,16.3946366 C49.6423661,16.7183481 49.3186547,17.0825234 48.9748461,17.3860029 C48.482535,16.9408997 48.0306877,16.4418445 47.5517296,15.9832533 C46.5807301,15.0121189 45.6163398,14.0409845 44.6384614,13.0765941 C44.6519494,13.0496182 44.6654373,13.0091543 44.6789253,12.9821783 Z M0,31.690003 L12.9754343,31.690003 C12.9821783,32.7284424 12.9821783,33.7671516 12.9754343,34.7989818 L8.30185012,34.7989818 L8.30185012,47.0730413 C8.29510614,47.275361 8.3153381,47.4776806 8.27487417,47.6800003 L4.6668402,47.6800003 C4.68032818,43.3840795 4.67358419,39.0949027 4.67358419,34.7989818 L0,34.7989818 L0,31.690003 Z M23.7995362,31.690003 C25.0134542,31.690003 26.2273722,31.690003 27.4412901,31.696747 C27.4345461,37.0244981 27.4547781,42.3522492 27.4278022,47.6800003 L23.8062802,47.6800003 C23.7860482,46.2637627 23.7995362,44.847525 23.7927922,43.4312874 C23.7995362,39.5197739 23.7927922,35.6082605 23.7995362,31.690003 L23.7995362,31.690003 Z M88.0090529,31.690003 C89.2229709,31.690003 90.4368888,31.690003 91.6508068,31.696747 L91.6508068,44.4698617 C93.7616753,44.4832148 95.8792877,44.4766057 97.9901562,44.4766057 L97.9901562,47.6800003 L88.0157969,47.6800003 C87.9955649,42.3522492 88.0157969,37.0244981 88.0090529,31.690003 Z M53.7765661,37.0514741 C53.4123907,35.7969573 52.7042719,34.6573581 51.7196496,33.8008715 C50.4180597,32.6476494 48.7185746,32.0204585 47.0123454,31.7979069 C46.047955,31.6562831 45.0700767,31.696747 44.0990772,31.690003 L39.7896684,31.690003 C39.7087405,31.690003 39.6210687,31.696747 39.5401408,31.710235 C39.5603728,36.9907782 39.5401408,42.2713213 39.5536288,47.5517296 C39.5468848,47.5854496 39.5401408,47.6461455 39.5333968,47.6798654 L45.7647075,47.6798654 C46.3245935,47.5787056 46.8978325,47.5854496 47.4507047,47.4640578 C49.3390215,47.1201144 51.1531545,46.1826999 52.3873044,44.6922784 C53.2977429,43.6132402 53.857494,42.2575636 54.0395817,40.8616928 C54.2014374,39.5872138 54.1339975,38.27888 53.7765661,37.0514741 L53.7765661,37.0514741 Z M49.669477,42.3589932 C49.2176297,43.0806 48.5499749,43.653839 47.7744161,44.0045264 C47.0730413,44.3282379 46.2974826,44.4766057 45.528533,44.4968376 C44.7192544,44.5037165 43.9099757,44.4968376 43.1006971,44.5037165 C43.0602331,43.6066311 43.0939531,42.7096806 43.0804651,41.812865 C43.0804651,39.4727009 43.0804651,37.1392808 43.087344,34.7991167 L45.5893638,34.7991167 C46.8437457,34.8260927 48.1183596,35.2577079 49.0287981,36.1479145 C49.8448207,36.9369611 50.3034119,38.0497193 50.3775958,39.1759654 C50.4517797,40.2751007 50.24946,41.4148348 49.669477,42.3589932 L49.669477,42.3589932 Z M76.7870557,43.9168546 C75.2629142,40.2144048 73.7455167,36.505211 72.2080222,32.8095052 C72.0662635,32.4385858 71.9179632,32.0609224 71.7493635,31.703491 C70.4949142,31.683259 69.2406671,31.683259 67.9861504,31.703491 C65.8415619,36.8626424 63.6969735,42.0217938 61.55252,47.1742012 C61.4850801,47.3428009 61.4041522,47.5046566 61.3704323,47.6800003 L65.2482258,47.6800003 C65.6326332,46.6144501 66.0440165,45.5623878 66.4284238,44.4968376 C68.6269642,44.4631177 70.8322485,44.4900936 73.0375328,44.4833496 C73.1521806,44.4496297 73.1859006,44.5711564 73.2128765,44.6519494 C73.5837959,45.6635477 73.9615941,46.668402 74.3256346,47.6800003 L78.3249548,47.6800003 C77.8391179,46.4121304 77.2995988,45.1712365 76.7870557,43.9168546 L76.7870557,43.9168546 Z M67.4533753,41.6576184 C67.4331433,41.5158597 67.5208151,41.3946028 67.5612791,41.266467 C68.2963738,39.3444302 69.0518355,37.4223935 69.7800514,35.5003567 C69.7935393,35.4934778 69.8205153,35.4868687 69.8340033,35.4868687 C70.596074,37.5100653 71.3716327,39.5263831 72.1404474,41.5495797 C72.1404474,41.5765556 72.1471914,41.6305075 72.1471914,41.6576184 C70.582586,41.6441304 69.0179806,41.6441304 67.4533753,41.6576184 Z"></path>
            </g>
        </g>
    </g>
</svg>