<?xml version="1.0" encoding="UTF-8"?>
<svg width="100px" height="100px" viewBox="0 0 100 100" version="1.1" xmlns="http://www.w3.org/2000/svg" xmlns:xlink="http://www.w3.org/1999/xlink">
    <!-- Generator: Sketch 45.1 (43504) - http://www.bohemiancoding.com/sketch -->
    <title>um-agency</title>
    <desc>Created with Sketch.</desc>
    <defs></defs>
    <g id="default---square-logos" stroke="none" stroke-width="1" fill="none" fill-rule="evenodd">
        <g id="um-agency" fill="#000000">
            <g transform="translate(1.000000, 28.000000)" id="Shape">
                <path d="M97.1663678,26.8250302 L95.827275,23.9777337 L90.4569305,23.9777337 L89.1178376,26.8250302 L88.3708119,26.8250302 L88.3708119,26.7404748 L92.9941307,16.9300746 L93.3183793,16.9300746 L97.8994204,26.7404748 L97.8994204,26.8250302 L97.1663678,26.8250302 Z M93.1492684,18.1000566 L90.6966236,23.3575411 L95.587761,23.3575411 L93.1492684,18.1000566 Z M92.1625496,9.91018272 L88.7656428,9.91018272 L88.7656428,0.0433525708 L92.1625496,0.0433525708 C95.1085538,0.0433525708 96.9408269,2.27045654 96.9408269,4.97676765 C96.9408269,7.72535646 95.0944015,9.91018272 92.1625496,9.91018272 Z M92.1483973,0.705822847 L89.4843639,0.705822847 L89.4843639,9.24771244 L92.1344241,9.24771244 C94.6291675,9.24771244 96.2360789,7.38713475 96.2360789,4.99091993 C96.2360789,2.60867825 94.6433198,0.705822847 92.1483973,0.705822847 Z M76.8372366,41.4846483 C77.9085109,41.4846483 78.7542443,40.9912889 79.0220629,39.9200146 L81.5028332,39.9200146 C81.1223337,42.7250334 78.9375075,43.8385854 76.8372366,43.8385854 C74.3141887,43.8385854 71.7911407,42.1471186 71.7911407,38.8206149 C71.7911407,35.4237081 74.3141887,33.774519 76.8372366,33.774519 C78.8669252,33.774519 81.0940292,34.8739187 81.4747077,37.5098266 L78.9939375,37.5098266 C78.6413843,36.4949823 77.8943586,36.1003306 76.8372366,36.1003306 C75.3431852,36.1003306 74.3706187,37.1714258 74.3706187,38.8066417 C74.3706187,40.2301109 75.329033,41.4846483 76.8372366,41.4846483 Z M71.8364639,0.0433525708 L77.9961118,0.0433525708 L77.9961118,2.28460883 L74.4159418,2.28460883 L74.4159418,3.69410481 L77.7143201,3.69410481 L77.7143201,5.9493342 L74.4159418,5.9493342 L74.4159418,7.55624561 L78.1231241,7.55624561 L78.1231241,9.91018272 L71.8364639,9.91018272 L71.8364639,0.0433525708 Z M70.3060465,19.0443186 L70.3060465,16.9582 L75.1690584,16.9582 L75.1690584,19.0443186 L74.0272018,19.0443186 L74.0272018,24.7389117 L75.2817392,24.7389117 L75.2817392,26.8250302 L70.1933656,26.8250302 L70.1933656,24.7389117 L71.447903,24.7389117 L71.447903,19.0443186 L70.3060465,19.0443186 Z M54.5095878,35.4095558 L54.579991,38.7783372 L54.579991,43.7398777 L53.8610907,43.7398777 L53.8610907,33.8590744 L54.1430615,33.8590744 L60.8947766,42.1612708 L60.8241943,38.5811009 L60.8241943,33.8590744 L61.5430946,33.8590744 L61.5430946,43.7398777 L61.3035806,43.7398777 L54.5095878,35.4095558 Z M57.8276718,9.91018272 L57.1229238,9.91018272 L57.1229238,0.691849705 L53.8809755,0.691849705 L53.8809755,0.0433525708 L61.06962,0.0433525708 L61.06962,0.691849705 L57.8276718,0.691849705 L57.8276718,9.91018272 Z M50.4344462,26.8250302 L47.0375393,26.8250302 L47.0375393,16.9582 L50.4344462,16.9582 C53.3804504,16.9582 55.2127235,19.185304 55.2127235,21.8916151 C55.2127235,24.6402039 53.3662981,26.8250302 50.4344462,26.8250302 Z M50.4202939,17.6208495 L47.7562605,17.6208495 L47.7562605,26.1625599 L50.4063207,26.1625599 C52.9010641,26.1625599 54.5079755,24.3019822 54.5079755,21.9057674 C54.5079755,19.5237049 52.9152164,17.6208495 50.4202939,17.6208495 Z M39.3342175,7.82406418 L40.5885757,7.82406418 L40.5885757,2.12947111 L39.4468983,2.12947111 L39.4468983,0.0433525708 L44.3099102,0.0433525708 L44.3099102,2.12947111 L43.1680537,2.12947111 L43.1680537,7.82406418 L44.4225911,7.82406418 L44.4225911,9.91018272 L39.3342175,9.91018272 L39.3342175,7.82406418 Z M44.1320214,36.1143038 L40.5516723,36.1143038 L40.5516723,37.5237998 L43.8500505,37.5237998 L43.8500505,39.7792083 L40.5516723,39.7792083 L40.5516723,41.3859406 L44.2588545,41.3859406 L44.2588545,43.7398777 L37.9721943,43.7398777 L37.9721943,33.8732267 L44.1320214,33.8732267 L44.1320214,36.1143038 Z M26.4353945,16.9582 L32.5950424,16.9582 L32.5950424,19.1994563 L29.0148725,19.1994563 L29.0148725,20.6089523 L32.3132507,20.6089523 L32.3132507,22.8641817 L29.0148725,22.8641817 L29.0148725,24.4710931 L32.7218755,24.4710931 L32.7218755,26.8250302 L26.4353945,26.8250302 L26.4353945,16.9582 Z M20.7725097,1.57986084 L20.8429129,4.94864222 L20.8429129,9.91018272 L20.1240126,9.91018272 L20.1240126,0.0293794282 L20.4059834,0.0293794282 L27.1576985,8.33139674 L27.0871162,4.75122679 L27.0871162,0.0293794282 L27.8060165,0.0293794282 L27.8060165,9.91018272 L27.5663233,9.91018272 L20.7725097,1.57986084 Z M23.241994,33.7322412 C25.2294048,33.7322412 26.8785939,34.5638224 27.5833419,36.5372601 L26.8646208,36.5372601 C26.2021505,35.0007518 24.9193085,34.3947115 23.2280208,34.3947115 C20.7047937,34.4369892 19.0697569,36.2975669 19.0697569,38.7783372 C19.0697569,41.3013851 20.662516,43.2042405 23.2280208,43.2042405 C25.5819579,43.2042405 27.1605648,41.6256337 27.3155233,39.299822 L23.4252571,39.299822 L23.4252571,38.6796295 L28.0204505,38.6796295 C28.0204505,39.5817929 27.9075905,40.413374 27.5833419,41.1605789 C26.8504685,42.8941443 25.2718616,43.8808631 23.2280208,43.8808631 C20.366572,43.8808631 18.3650089,41.7524668 18.3650089,38.7783372 C18.3650089,35.8325121 20.4369751,33.7322412 23.241994,33.7322412 Z M9.73516015,18.7202492 L6.12668563,23.935456 L5.9857002,23.935456 L2.36325254,18.7202492 L2.36325254,26.8250302 L1.64435226,26.8250302 L1.64435226,16.9442269 L1.9404754,16.9442269 L6.05628249,22.8641817 L10.1579373,16.9442269 L10.4540604,16.9442269 L10.4540604,26.8250302 L9.73516015,26.8250302 L9.73516015,18.7202492 Z M5.2386745,10.0370159 C3.15255596,10.0370159 1.22157513,8.86703388 1.22157513,6.65408219 L1.22157513,0.0433525708 L3.80105309,0.0433525708 L3.80105309,6.59783134 C3.80105309,7.41526018 4.51977422,7.76763418 5.25282678,7.76763418 C5.94342249,7.76763418 6.67647505,7.41526018 6.67647505,6.59783134 L6.67647505,0.0433525708 L9.22764844,0.0433525708 L9.22764844,6.65408219 C9.22764844,8.86703388 7.3108199,10.0370159 5.2386745,10.0370159 Z M5.78846392,33.774519 L10.2707973,43.3875037 L10.2707973,43.7398777 L7.60676389,43.7398777 L7.02884905,42.5136448 L3.3358191,42.5136448 L2.77205653,43.7398777 L0.0798977132,43.7398777 L0.0798977132,43.3875037 L4.60450879,33.774519 L5.78846392,33.774519 Z M6.21124106,40.3571232 L5.18242364,37.9748815 L4.16740023,40.3571232 L6.21124106,40.3571232 Z M93.8257118,38.8770449 L93.8538373,38.8770449 L97.0676601,33.8732267 L97.8288381,33.8732267 L97.8288381,33.9719344 L94.1922381,39.6382229 L94.1922381,43.7398777 L93.4874901,43.7398777 L93.4874901,39.6382229 L89.8367379,33.9577821 L89.8367379,33.8732267 L90.611889,33.8732267 L93.8257118,38.8770449 Z"></path>
            </g>
        </g>
    </g>
</svg>