<?xml version="1.0" encoding="UTF-8"?>
<svg width="100px" height="100px" viewBox="0 0 100 100" version="1.1" xmlns="http://www.w3.org/2000/svg" xmlns:xlink="http://www.w3.org/1999/xlink">
    <!-- Generator: Sketch 45 (43475) - http://www.bohemiancoding.com/sketch -->
    <title>wimp</title>
    <desc>Created with Sketch.</desc>
    <defs></defs>
    <g id="default---square-logos" stroke="none" stroke-width="1" fill="none" fill-rule="evenodd">
        <g id="wimp" fill-rule="nonzero" fill="#520F41">
            <g id="WiMP_Logo_2013" transform="translate(5.000000, 2.000000)">
                <path d="M41.4838565,59.2385053 C31.631311,57.9608028 23.2763907,52.3582711 18.6269493,43.9113822 C18.00103,42.7742288 17.9882352,42.7187483 18.2782897,42.3924626 C18.724967,41.8900021 19.8539408,41.4262403 20.6305422,41.4262403 C22.1145159,41.4262403 23.3753794,42.3545807 25.1987592,44.7898569 C27.187501,47.4458727 28.8297537,48.3534614 31.4027173,48.2184929 C32.5600226,48.1577859 33.0244069,48.0432949 33.939524,47.5930248 C36.9460273,46.1137521 37.6142152,43.4423368 36.789576,36.1980492 C36.3784273,32.5864583 36.425437,31.3959721 37.0328494,30.0428772 C37.8279006,28.2716821 40.0205602,27.562065 41.8955192,28.4691911 C43.3773795,29.1861308 44.5642157,30.5986761 48.3264145,36.1229137 C51.3842113,40.6128251 53.9555756,42.7402653 57.1238993,43.4016161 C59.3501454,43.8663032 62.8313146,43.3263321 64.4972149,42.2579339 C65.6092813,41.5447069 67.0797175,39.9241311 67.615159,38.8216609 C68.6783879,36.6322571 68.7675519,35.425509 68.5722021,25.872934 C68.5156534,23.1173412 68.5550661,22.337878 68.8001674,21.3622653 C69.3481763,19.1795731 70.2880263,17.6182877 71.4647523,16.9359397 L71.9992227,16.6260074 L72.4978219,17.73664 C74.3888887,21.9490803 75.2998932,27.2512759 74.9120494,31.7872888 C74.5472821,36.0532047 73.688885,39.1338209 71.8235221,42.8708185 C70.3058477,45.9112452 68.8082784,48.0072466 66.4395754,50.4061317 C61.7184486,55.1874229 55.9850438,58.1029113 49.3466321,59.0979676 C47.7797775,59.332833 42.8858061,59.4203064 41.4838565,59.2385053 Z M28.835123,45.3746899 C28.0774853,45.0106765 27.1573988,44.0921036 25.9585103,42.5029495 C25.5224003,41.9247881 24.8543837,41.205455 24.4741368,40.9044334 C22.6180273,39.4352195 19.8342344,39.2954072 18.0755714,40.5830828 C17.7045778,40.8547791 17.3470075,41.0770667 17.2810341,41.0770667 C17.048899,41.0770667 15.7367419,36.7114253 15.3832271,34.7629416 C14.9019924,32.1102101 14.8693198,27.6178768 15.3116559,24.9333525 C17.3508917,12.5589942 26.7548181,2.90783041 39.2385895,0.377552439 C40.8986636,0.0410708358 41.644706,-0.00710404437 45.0734391,0.000761358756 C49.5369554,0.0109858116 50.9176564,0.221078326 54.6217072,1.45351337 C57.7667832,2.49997755 61.5242411,4.53186765 63.8742088,6.45690365 L64.3856028,6.87580348 L63.3365396,8.98583924 C61.2343578,13.214256 60.4928851,16.1308925 60.4984257,20.1500279 C60.5041377,22.7029823 60.5709108,23.2375213 61.644764,29.0333467 C61.9793149,30.8388422 61.9799432,33.2627402 61.644764,34.3859848 C61.4997938,34.8741539 61.142452,35.5451693 60.8508552,35.877127 C59.4297134,37.4948068 56.7524489,37.3312156 54.7276074,35.5029806 C54.3298248,35.1437653 52.963518,33.2720792 51.6914019,31.3436846 C47.5915105,25.1282854 45.0951447,23.1835888 40.8041874,22.8622153 C38.9914319,22.7264415 37.6831589,22.9867423 35.9875562,23.8206121 C31.9723164,25.7951368 31.0891294,29.3643505 32.4179084,38.2459728 C33.1256804,42.976513 32.9865936,44.4615091 31.7609159,45.2641687 C31.0843313,45.7072416 29.6394276,45.7617911 28.833695,45.3746899 L28.835123,45.3746899 Z" id="path2995"></path>
                <path d="M72.1927581,96.2112373 C71.7744731,96.0562447 71.5509006,95.8696047 71.3418196,95.500886 L71.1577604,95.1762741 L71.1577604,87.339595 C71.1577604,78.8219929 71.1471809,79.0658658 71.5788748,77.7001128 C72.5014342,74.7819322 74.8043267,72.4894028 77.7460258,71.5606433 C78.8165017,71.2226667 79.5624076,71.1310259 80.913118,71.1715307 C81.890002,71.2008237 82.264911,71.2439709 82.8273728,71.3918334 C85.2315335,72.023847 87.1001732,73.3253035 88.4238689,75.2895921 C89.5026363,76.8903926 89.9945597,78.5040264 89.9999233,80.4595094 C90.0031217,81.6165726 89.9069957,82.2727346 89.5849598,83.2924878 C88.4951454,86.7437413 85.4834246,89.2527598 81.8049968,89.7738434 C81.0380056,89.8824927 79.3923479,89.8213258 78.6307449,89.655862 C77.4364393,89.3963954 76.2117483,88.8666612 75.1711164,88.1594346 C74.6770279,87.8236551 74.6059482,87.7956587 74.4723756,87.8842438 C74.327436,87.9803453 74.3226875,88.0736395 74.2868402,91.5427748 C74.2469086,95.402302 74.2510666,95.3635342 73.8281562,95.8130165 C73.4258389,96.2405819 72.7295337,96.4101299 72.1927581,96.2112373 L72.1927581,96.2112373 Z M82.2015568,86.5654098 C82.838469,86.392159 83.8961511,85.871538 84.4249798,85.4709503 C85.2209539,84.8680206 85.9520485,83.949009 86.3718589,83.0236448 C87.0572892,81.5127776 87.0581012,79.4815625 86.3743192,77.9732885 C85.5104393,76.069099 83.7074664,74.6615618 81.6802076,74.3087321 C81.388434,74.2579504 80.8079624,74.2375146 80.258885,74.258686 C79.4646823,74.2893027 79.2271104,74.3291604 78.613301,74.5347502 C76.5160696,75.2372013 74.9319207,76.9513332 74.4298852,79.0614125 C74.2976411,79.6173027 74.2773186,79.8832179 74.3033984,80.7170495 C74.3308559,81.5959843 74.3618318,81.79097 74.5723398,82.4094787 C74.9861715,83.6255117 75.6624248,84.5983066 76.6259491,85.3635312 C77.453957,86.0211669 78.4902832,86.500636 79.4585806,86.6741181 C80.017967,86.7743382 81.6754345,86.7086615 82.2020735,86.5654098 L82.2015568,86.5654098 Z M7.59723939,91.2340445 C7.42326768,91.1458137 7.19770231,90.9645643 7.09599123,90.8312696 C6.99423094,90.6979749 5.36746868,86.6872761 3.48086831,81.9186033 C-0.220809897,72.5621653 -0.155315242,72.753175 0.106023688,72.0691888 C0.519092723,70.9882219 2.05027018,70.756267 2.80914214,71.6596996 C2.97140256,71.8528375 3.72001484,73.6674725 5.52931085,78.2531858 C6.90226286,81.7330458 8.06396878,84.6547029 8.11083854,84.7457655 C8.23240469,84.9817899 8.50939148,84.9625007 8.63919982,84.7089734 C8.69615705,84.5976767 9.87673389,81.6920366 11.262652,78.2519926 C12.6485701,74.8119485 13.8661998,71.8861852 13.9684768,71.7502997 C14.2065654,71.4340506 14.8056619,71.1528074 15.243236,71.15187 C15.6979835,71.1508859 16.3013364,71.457205 16.5278613,71.8040511 C16.623766,71.9508458 17.8526888,74.9186443 19.258831,78.3991587 C20.6649732,81.8796756 21.8473461,84.76876 21.8863427,84.8193498 C21.9253393,84.8699372 22.0319219,84.9113277 22.1232011,84.9113277 C22.3299694,84.9113277 22.0731575,85.5167473 24.9879403,78.1577216 C26.3068875,74.8277096 27.4353786,72.00783 27.4956573,71.8913199 C27.7258974,71.4463745 28.3671643,71.0775648 28.9106076,71.0775648 C29.8898782,71.0775648 30.7230529,72.0976502 30.4906231,73.0119847 C30.3375152,73.614287 23.5628534,90.5950484 23.380172,90.8344164 C22.8188665,91.5699223 21.4289873,91.571684 20.8687644,90.8376148 C20.7681605,90.7057792 19.5434203,87.777521 18.1471441,84.3303764 C16.7508925,80.8832293 15.5597853,77.9686851 15.5002448,77.8536069 C15.3609886,77.5844613 15.2098736,77.5293149 15.0612928,77.6934108 C14.9963148,77.7652039 13.7831875,80.6956346 12.36558,84.2054814 C10.9479233,87.7153281 9.73742857,90.6641992 9.67557524,90.7585267 C9.61374652,90.8528567 9.4273254,91.0241147 9.26130064,91.1390969 C8.84372915,91.4282994 8.0675855,91.4725907 7.59723939,91.2340543 L7.59723939,91.2340445 Z M33.9401149,91.2210784 C33.7218322,91.104497 33.5334674,90.9226029 33.3879128,90.6878235 L33.1670467,90.3315026 L33.1142721,83.1144024 C33.0793843,78.3465416 33.0866423,75.7724417 33.1356772,75.5293783 C33.2923526,74.752558 33.860178,74.2813459 34.6395939,74.2813459 C35.4009016,74.2813459 35.9718024,74.7411813 36.1433384,75.4925886 C36.1921764,75.7066223 36.2195848,78.3621476 36.2207658,83.0020896 L36.2232261,90.1804589 L36.0301128,90.5677705 C35.7609254,91.1076265 35.3964976,91.3382307 34.7588473,91.3721344 C34.3542665,91.3936379 34.216216,91.3681486 33.9408284,91.2210784 L33.9401149,91.2210784 Z M39.8754512,91.2783604 C39.2214396,91.0453722 38.7136469,90.2109525 38.8344011,89.5675573 C38.9238596,89.0910308 45.7275045,72.0090701 45.9351092,71.7398113 C46.609222,70.8654625 48.1215777,70.9894939 48.6268116,71.9605642 C48.6794632,72.0617413 49.8550948,74.9425516 51.2393644,78.3623567 C52.6235848,81.7821668 53.8042109,84.6546955 53.8628904,84.7457557 C53.9215944,84.8368159 54.0177943,84.9113204 54.0766706,84.9113204 C54.1355223,84.9113204 54.2325095,84.8368159 54.2921485,84.7457557 C54.3518122,84.6546955 55.5491932,81.7490529 56.9529735,78.2887749 C58.3791676,74.7733037 59.5927624,71.8837199 59.7034784,71.7398113 C59.9909709,71.3661153 60.4571098,71.1511393 60.9799107,71.1511393 C61.6179792,71.1511393 62.1455039,71.4724641 62.429675,72.0341485 C62.5013205,72.175796 64.0885941,76.1364094 65.9569386,80.8355058 C69.035089,88.5773751 69.353951,89.4185533 69.353951,89.7972733 C69.353951,90.7662818 68.5141088,91.4933733 67.5477797,91.3609964 C66.7658296,91.2538823 66.4580391,90.9213949 65.9439479,89.6286111 C65.7249271,89.0778925 64.5623847,86.1551283 63.3605257,83.1335833 C62.1270759,80.0327509 61.1285407,77.6219374 61.0679422,77.5987092 C60.9356243,77.5479595 60.7637192,77.6088459 60.7137986,77.7241873 C60.6933777,77.7716476 59.5175001,80.6581732 58.100926,84.1386901 C56.1971032,88.8165979 55.4631546,90.5411396 55.2865011,90.7515836 C54.5784847,91.5952443 53.1755655,91.4538256 52.670676,90.4878926 C52.6132268,90.3780303 51.422464,87.4642784 50.0244656,84.0128971 C48.6264918,80.5615083 47.4333917,77.6883744 47.3731376,77.6281425 C47.2916507,77.5467195 47.2308799,77.5384182 47.1360824,77.5957716 C47.0192155,77.6665043 45.6019279,81.1472352 42.8172487,88.2024293 C41.9620784,90.369055 41.8346567,90.6441768 41.5630088,90.9104143 C41.1035867,91.3607306 40.485201,91.4955581 39.8754512,91.2783604 L39.8754512,91.2783604 Z M33.93266,70.8726812 C32.7737343,70.2676011 32.9111206,68.5381535 34.1528864,68.1002791 C34.7096894,67.9039428 35.2107408,67.9955024 35.6756987,68.3785625 C36.553332,69.1015822 36.3199919,70.5163135 35.2493437,70.9632862 C34.8287952,71.1388646 34.38384,71.1082504 33.93266,70.8726812 Z" id="path2995-copy"></path>
            </g>
        </g>
    </g>
</svg>