<?xml version="1.0" encoding="UTF-8"?>
<svg width="100px" height="100px" viewBox="0 0 100 100" version="1.1" xmlns="http://www.w3.org/2000/svg" xmlns:xlink="http://www.w3.org/1999/xlink">
    <!-- Generator: Sketch 52.6 (67491) - http://www.bohemiancoding.com/sketch -->
    <title>xiami</title>
    <desc>Created with Sketch.</desc>
    <g id="xiami" stroke="none" stroke-width="1" fill="none" fill-rule="evenodd">
        <g id="Xiami" transform="translate(5.000000, 5.000000)">
            <path d="M20.1869159,0 L69.8130841,0 C80.9620099,0 90,9.0379901 90,20.1869159 L90,69.8130841 C90,80.9620099 80.9620099,90 69.8130841,90 L20.1869159,90 C9.0379901,90 0,80.9620099 0,69.8130841 L0,20.1869159 C0,9.0379901 9.0379901,0 20.1869159,0 Z" id="Rectangle" fill="#FF410F"></path>
            <path d="M41.9390643,64.8721361 C43.225945,63.8784359 45.0747212,64.1161056 46.0684214,65.4029863 C47.0621216,66.689867 46.8244519,68.5386431 45.5375712,69.5323433 L32.500188,79.5995162 C30.5649706,81.0938474 27.7570093,79.7144263 27.7570093,77.2694126 L27.7570093,13.0373832 C27.7570093,10.6039341 30.5416745,9.22123246 32.4803131,10.6920671 L45.5176963,20.5834587 C46.8129787,21.5661824 47.0663575,23.4128711 46.0836339,24.7081534 C45.1009102,26.0034357 43.2542215,26.2568146 41.9589392,25.2740909 L33.6448598,18.9662442 L33.6448598,71.2767335 L41.9390643,64.8721361 Z" id="Path" fill="#FFFFFF" fill-rule="nonzero"></path>
            <path d="M67.6053599,45.2102804 L56.7757009,37.0332109 L56.7757009,53.3873498 L67.6053599,45.2102804 Z M74.2648313,47.5596992 L55.6057337,61.6484842 C53.6662064,63.1129486 50.8878505,61.7293786 50.8878505,59.2990654 L50.8878505,31.1214953 C50.8878505,28.6911821 53.6662064,27.3076121 55.6057337,28.7720765 L74.2648313,42.8608616 C75.8247875,44.0387261 75.8247875,46.3818347 74.2648313,47.5596992 Z" id="Triangle" fill="#FFFFFF" fill-rule="nonzero"></path>
            <path d="M26.4953271,34.4859813 C24.8694421,34.4859813 23.5514019,35.8040215 23.5514019,37.4299065 L23.5514019,52.5700935 C23.5514019,54.1959785 24.8694421,55.5140187 26.4953271,55.5140187 L34.9065421,55.5140187 C36.5324271,55.5140187 37.8504673,54.1959785 37.8504673,52.5700935 L37.8504673,37.4299065 C37.8504673,35.8040215 36.5324271,34.4859813 34.9065421,34.4859813 L26.4953271,34.4859813 Z M26.4953271,28.5981308 L34.9065421,28.5981308 C39.7841971,28.5981308 43.7383178,32.5522515 43.7383178,37.4299065 L43.7383178,52.5700935 C43.7383178,57.4477485 39.7841971,61.4018692 34.9065421,61.4018692 L26.4953271,61.4018692 C21.6176721,61.4018692 17.6635514,57.4477485 17.6635514,52.5700935 L17.6635514,37.4299065 C17.6635514,32.5522515 21.6176721,28.5981308 26.4953271,28.5981308 Z" id="Rectangle" fill="#FFFFFF" fill-rule="nonzero"></path>
        </g>
    </g>
</svg>