<?xml version="1.0" encoding="UTF-8"?>
<svg width="100px" height="100px" viewBox="0 0 100 100" version="1.1" xmlns="http://www.w3.org/2000/svg" xmlns:xlink="http://www.w3.org/1999/xlink">
    <!-- Generator: Sketch 48.2 (47327) - http://www.bohemiancoding.com/sketch -->
    <title>yandex-music</title>
    <desc>Created with Sketch.</desc>
    <defs></defs>
    <g id="default---square-logos" stroke="none" stroke-width="1" fill="none" fill-rule="evenodd">
        <g id="yandex-music">
            <g id="yandex" transform="translate(3.000000, 16.000000)">
                <g id="Group-2">
                    <polygon id="Fill-1" fill="#EC1F24" points="15.3952838 0 9.1422974 17.358716 3.70866781 3.00134275 0 3.00134275 7.37421158 21.617378 7.37421158 32 10.7810111 32 10.7810111 21.7386525 18.8020833 0"></polygon>
                    <path d="M94.514965,11.293192 L90.3701201,20.8565998 L95,31.7163396 L91.4283783,31.7163396 L87.989039,23.2875734 L84.6378878,31.7163396 L81.2430791,31.7163396 L85.8725224,21.139859 L81.68402,11.293192 L85.2552051,11.293192 L88.1213213,18.7088853 L91.1638138,11.293192 L94.514965,11.293192 Z M70.3518377,19.6409124 L76.0399759,19.6409124 C76.0399759,16.1559418 75.4226586,13.6029982 73.4384243,13.6029982 C71.3219078,13.6029982 70.5723082,15.9938501 70.3518377,19.6409124 Z M74.1439299,32 C69.558144,32 66.736122,28.6365981 66.736122,22.3555464 C66.736122,15.7912355 68.7203562,11.0095316 73.4384243,11.0095316 C77.1423283,11.0095316 79.5675035,13.5624752 79.5675035,20.4918936 L79.5675035,22.2339777 L70.3077436,22.2339777 C70.3077436,26.8535899 71.7187547,29.2849647 74.4525885,29.2849647 C76.3927287,29.2849647 77.8037397,28.4745065 78.6856216,27.9071857 L79.4793153,30.3385605 C78.0683043,31.3516334 76.3486346,32 74.1439299,32 Z M59.8578798,14.5755481 C59.1523743,13.9271815 58.4027747,13.6029982 57.2563282,13.6029982 C54.4784003,13.6029982 53.1555774,17.452675 53.1555774,21.626134 C53.1555774,26.4078378 54.1256475,29.3254877 56.6390109,29.3254877 C58.3586806,29.3254877 59.2846566,28.5555523 59.8578798,27.745094 L59.8578798,14.5755481 Z M49.4957676,22.2745006 C49.4957676,14.6971168 52.5823542,11.0095316 57.0358577,11.0095316 C58.094116,11.0095316 59.1964684,11.333715 59.8578798,11.779467 L59.8578798,2.74285714 L63.2967826,2.74285714 L63.2967826,31.7163396 L60.7397617,31.7163396 L60.4751971,30.095423 L60.2547266,30.095423 C59.2846566,31.2300646 58.0500219,32 56.242164,32 C51.8768487,32 49.4957676,28.5960752 49.4957676,22.2745006 Z M37.0616695,31.7163396 L33.6223301,31.7163396 L33.6223301,11.2526691 L37.0616695,11.2526691 L37.0616695,13.0356774 L37.28214,13.0356774 C37.8994573,12.265742 39.5750329,11.0095316 41.6470187,11.0095316 C44.557229,11.0095316 46.1005223,12.5088795 46.1005223,15.6291439 L46.1005223,31.7163396 L42.6170888,31.7163396 L42.6170888,15.9128043 C42.6170888,14.3729335 41.8674892,13.8461356 40.545103,13.8461356 C39.0899978,13.8461356 37.8553632,14.8592085 37.0616695,15.8722814 L37.0616695,31.7163396 Z M25.9499577,21.0588132 L25.5531108,21.0588132 C21.2759836,21.0588132 20.3500077,22.8012985 20.3500077,25.4352879 C20.3500077,27.7856169 21.1877955,29.3254877 22.9515592,29.3254877 C24.1420998,29.3254877 25.3326403,28.5960752 25.9499577,27.7045711 L25.9499577,21.0588132 Z M29.7420498,31.7163396 L26.8318396,31.7163396 C26.6995573,31.2705875 26.567275,30.6222209 26.5231809,30.095423 L26.3027104,30.095423 C25.3326403,31.2300646 24.0980057,32 22.1578655,32 C18.9835273,32 16.8229167,29.8117626 16.8229167,25.7999941 C16.8229167,21.4235194 19.2480919,18.6683624 25.4649226,18.6683624 L25.9499577,18.6683624 L25.9499577,17.452675 C25.9499577,14.7781627 24.9798876,13.6435211 23.0397474,13.6435211 C21.2759836,13.6435211 19.777221,14.4945023 18.6307745,15.4265293 L17.9693631,12.6304482 C18.9835273,11.8605128 21.0114191,11.0095316 23.2602179,11.0095316 C27.1845923,11.0095316 29.3452029,12.5494024 29.3452029,17.4931979 L29.3452029,27.0967274 C29.3452029,29.0418273 29.5656734,30.7437897 29.7420498,31.7163396 Z" id="Fill-2" fill="#231F20"></path>
                </g>
                <g id="Group" transform="translate(12.954545, 39.000000)" fill="#231F20">
                    <path d="M2.72661253,9.19502029 L1.80308248,29.0909091 L0,29.0909091 L1.36330627,0 L3.78207545,0 L8.48768095,17.9424757 C8.88347955,19.3669485 9.10380307,20.7499279 9.23530052,21.9705593 L9.32325576,21.9705593 C9.45518862,20.7499279 9.71905435,19.3669485 10.1148529,17.9424757 L14.9523913,0 L17.4147027,0 L18.778009,29.0909091 L16.6675186,29.0909091 L15.7439885,9.03226944 C15.6120556,6.75375751 15.6555978,5.00418585 15.6555978,3.21392648 L15.5241004,3.21392648 C15.2602347,5.04487356 14.9523913,6.75375751 14.4686375,8.46264145 L10.0708753,24.5342881 L8.35574809,24.5342881 L4.00196356,8.46264145 C3.56218734,6.87582065 3.21036637,5.24871498 2.99047826,3.25461419 L2.8585454,3.25461419 C2.8585454,4.841435 2.81456778,7.20132235 2.72661253,9.19502029" id="Fill-4"></path>
                    <path d="M33.5300826,24.0607275 L33.5300826,9.09090909 L35.5793854,9.09090909 L35.5793854,29.5932005 L33.7044913,29.5932005 L33.6172869,26.2171675 L33.5300826,26.2171675 C32.9196519,27.6812429 31.306371,30 28.29782,30 C25.3764734,30 23.7195903,28.0066825 23.7195903,24.3454871 L23.7195903,9.09090909 L25.7688931,9.09090909 L25.7688931,24.1018102 C25.7688931,26.9494066 26.6849708,28.3732048 28.6466375,28.3732048 C30.8703491,28.3732048 32.4400279,26.664647 33.5300826,24.0607275" id="Fill-6"></path>
                    <path d="M38.5443342,28.5426512 L38.9740554,26.8354711 C40.0053863,27.7098804 41.0362918,28.4177355 43.0989537,28.4177355 C45.2479852,28.4177355 46.5367234,26.7938325 46.5367234,25.0037877 C46.5367234,20.2153558 39.1025463,18.1750674 39.1025463,12.8453345 C39.1025463,9.68121782 41.466013,8.18181818 43.8299052,8.18181818 C45.9351137,8.18181818 47.2672495,8.93172413 47.998201,9.51425141 L47.439138,11.3047086 C46.4941768,10.3053836 45.4194483,9.76408264 43.915424,9.76408264 C42.3258809,9.76408264 40.9078009,10.7638198 40.9078009,12.5955032 C40.9078009,17.1341039 48.4274968,18.8825103 48.4274968,24.7539564 C48.4274968,28.0850395 45.9785113,30 43.1423512,30 C40.7354869,30 39.3608045,29.2088678 38.5443342,28.5426512" id="Fill-8"></path>
                    <path d="M52.7518391,30 L54.9287647,30 L54.9287647,9.42307148 L52.7518391,9.42307148 L52.7518391,30 Z M52.3807618,4.07459809 C52.3807618,3.38092562 53.0293444,2.72727273 53.8632362,2.72727273 C54.6508008,2.72727273 55.3457106,3.38092562 55.3457106,4.07459809 C55.3457106,4.80950283 54.6508008,5.3810954 53.8632362,5.3810954 C53.0293444,5.3810954 52.3807618,4.80950283 52.3807618,4.07459809 Z" id="Fill-10"></path>
                    <path d="M69.5231296,26.0443389 L70.1704545,27.6678296 C70.1704545,27.6678296 68.574346,30 65.1677773,30 C60.811998,30 58.3106594,25.9610618 58.3106594,19.1323415 C58.3106594,12.2207564 60.7688715,8.18181818 65.2104769,8.18181818 C67.4530563,8.18181818 69.0056113,9.01458895 69.9548219,10.1388295 L69.3937501,12.2207564 C68.4453934,10.9299617 67.0649176,9.84735971 65.2104769,9.84735971 C61.8901612,9.84735971 60.3371792,13.2200813 60.3371792,19.1323415 C60.3371792,24.878872 61.8466077,28.2928199 65.2104769,28.2928199 C68.0141282,28.2928199 69.5231296,26.0443389 69.5231296,26.0443389" id="Fill-12"></path>
                </g>
            </g>
        </g>
    </g>
</svg>