<?xml version="1.0" encoding="UTF-8"?>
<svg width="100px" height="100px" viewBox="0 0 100 100" version="1.1" xmlns="http://www.w3.org/2000/svg" xmlns:xlink="http://www.w3.org/1999/xlink">
    <!-- Generator: Sketch 45 (43475) - http://www.bohemiancoding.com/sketch -->
    <title>zvooq</title>
    <desc>Created with Sketch.</desc>
    <defs></defs>
    <g id="default---square-logos" stroke="none" stroke-width="1" fill="none" fill-rule="evenodd">
        <g id="zvooq" fill-rule="nonzero">
            <g id="zvooq_logo" transform="translate(5.000000, 5.000000)">
                <path d="M12.0731705,0.334115994 L77.9076209,0.334115994 C84.575578,0.334115994 89.9807913,5.73932932 89.9807913,12.4072865 L89.9807913,78.2417369 C89.9807913,84.909694 84.575578,90.3149073 77.9076209,90.3149073 L12.0731705,90.3149073 C5.40521332,90.3149073 0,84.909694 0,78.2417369 L0,12.4072865 C0,5.73932932 5.40521332,0.334115994 12.0731705,0.334115994" id="Fill-1" fill="#000000"></path>
                <path d="M60.415682,52.3301608 C59.001749,49.3093987 56.1736088,47.2525695 52.8315357,47.2525695 C48.139737,47.2525695 44.3476639,51.3659535 44.3476639,56.4435449 L44.3476639,56.5077523 C44.2834566,57.5361668 44.3476639,67.2413497 60.415682,77.3962577 L60.415682,52.3301608" id="Fill-3" fill="#FF45AB"></path>
                <path d="M60.415682,52.3301608 C61.829615,49.3093987 64.6577551,47.2525695 67.9998283,47.2525695 C72.6916266,47.2525695 76.4836997,51.3659535 76.4836997,56.4435449 L76.4836997,56.5077523 C76.5479075,57.5361668 76.4836997,67.2413497 60.415682,77.3962577 L60.415682,52.3301608" id="Fill-5" fill="#F9218E"></path>
                <polygon id="Fill-7" fill="#8DFFD3" points="46.2758315 27.9710851 73.2700692 27.9710851 46.2758315 12.545689"></polygon>
                <polygon id="Fill-9" fill="#1CF9B0" points="46.2758315 27.9710851 73.2700692 27.9710851 46.2758315 43.3964811"></polygon>
                <path d="M33.4214445,58.5002644 L33.4214445,14.5382834 L35.9922067,12.5456615 L35.9922067,65.2488925 C35.7351031,68.8480692 33.4214445,72.6401424 29.5651641,75.0824897 C23.8449508,78.7458737 16.9034265,78.1032521 14.0755607,73.5398676 C11.2476949,68.9764836 13.6255608,62.2923374 19.3457741,58.628679 C24.2304691,55.415295 30.0793715,55.5437096 33.4214445,58.5002644" id="Fill-11" fill="#FFFFFF"></path>
            </g>
        </g>
    </g>
</svg>